<?xml version="1.0" encoding="UTF-8"?>
<svg width="106px" height="117px" viewBox="0 0 106 117" version="1.1" xmlns="http://www.w3.org/2000/svg" xmlns:xlink="http://www.w3.org/1999/xlink">
    <title>hexa-brix-orange</title>
    <g id="Page-1" stroke="none" stroke-width="1" fill="none" fill-rule="evenodd">
        <g id="hexa-brix-orange" transform="translate(0, -0)">
            <g id="path-1-link" fill="#000000" fill-rule="nonzero">
                <path d="M43.8920327,2.35940675 L8.8060289,22.6165846 C3.3566776,25.7624603 0,31.5760708 0,37.8678222 L0,78.3821778 C0,84.6739292 3.3566776,90.4875397 8.8060289,93.633415 L43.8920327,113.890593 C49.3405763,117.036469 56.0539315,117.036469 61.5024751,113.890593 L96.589287,93.633415 C102.03783,90.4875397 105.394508,84.6739292 105.394508,78.3821778 L105.394508,37.8678222 C105.394508,31.5760708 102.03783,25.7624603 96.589287,22.6165846 L61.5024751,2.35940675 C56.0539315,-0.786468917 49.3405763,-0.786468917 43.8920327,2.35940675 Z" id="path-1"></path>
            </g>
            <path d="M52.6972539,2.25 C55.3492464,2.25 58.001241,2.93597579 60.3774835,4.3079688 L60.3774835,4.3079688 L95.464244,24.5651174 C100.21667,27.3090688 103.144508,32.3799131 103.144508,37.8678222 L103.144508,37.8678222 L103.144508,78.3821778 C103.144508,83.8700869 100.21667,88.9409312 95.464295,91.6848534 L95.464295,91.6848534 L60.3774329,111.94206 C58.001241,113.314024 55.3492464,114 52.6972539,114 C50.0452614,114 47.3932668,113.314024 45.0170437,111.942042 L45.0170437,111.942042 L9.9309461,91.6848104 C7.5543918,90.3128408 5.634151,88.3591601 4.3080524,86.0624783 C2.9819538,83.7657967 2.25,81.1261184 2.25,78.3821778 L2.25,78.3821778 L2.25,37.8678222 C2.25,35.1238816 2.9819538,32.4842033 4.3080524,30.1875217 C5.634151,27.8908399 7.5543918,25.9371592 9.9310399,24.5651354 L9.9310399,24.5651354 L45.017075,4.3079395 C47.3932668,2.93597579 50.0452614,2.25 52.6972539,2.25 Z" id="Path" stroke="#F88419" stroke-width="4.5" fill="#FFFFFF"></path>
        </g>
    </g>
</svg>