<?xml version="1.0" encoding="UTF-8"?>
<svg width="121px" height="130px" viewBox="0 0 121 130" version="1.1" xmlns="http://www.w3.org/2000/svg" xmlns:xlink="http://www.w3.org/1999/xlink">
    <title>losange orange</title>
    <defs>
        <path d="M51.8920327,9.35940675 L16.8060289,29.6165846 C11.3566776,32.7624603 8,38.5760708 8,44.8678222 L8,85.3821778 C8,91.6739292 11.3566776,97.4875397 16.8060289,100.633415 L51.8920327,120.890593 C57.3405763,124.036469 64.0539315,124.036469 69.5024751,120.890593 L104.589287,100.633415 C110.03783,97.4875397 113.394508,91.6739292 113.394508,85.3821778 L113.394508,44.8678222 C113.394508,38.5760708 110.03783,32.7624603 104.589287,29.6165846 L69.5024751,9.35940675 C64.0539315,6.21353108 57.3405763,6.21353108 51.8920327,9.35940675 Z" id="path-1"></path>
        <filter x="-22.3%" y="-18.5%" width="144.6%" height="140.4%" filterUnits="objectBoundingBox" id="filter-2">
            <feOffset dx="0" dy="2" in="SourceAlpha" result="shadowOffsetOuter1"></feOffset>
            <feGaussianBlur stdDeviation="7.5" in="shadowOffsetOuter1" result="shadowBlurOuter1"></feGaussianBlur>
            <feComposite in="shadowBlurOuter1" in2="SourceAlpha" operator="out" result="shadowBlurOuter1"></feComposite>
            <feColorMatrix values="0 0 0 0 0.623188406   0 0 0 0 0.623188406   0 0 0 0 0.623188406  0 0 0 0.2948809 0" type="matrix" in="shadowBlurOuter1"></feColorMatrix>
        </filter>
    </defs>
    <g id="losange-orange" stroke="none" stroke-width="1" fill="none" fill-rule="evenodd">
        <g id="hexa" fill-rule="nonzero">
            <use fill="black" fill-opacity="1" filter="url(#filter-2)" xlink:href="#path-1"></use>
            <path stroke="#F88419" stroke-width="4.5" d="M60.6972539,9.25 C63.3492464,9.25 66.001241,9.93597579 68.3774835,11.3079688 L68.3774835,11.3079688 L103.464244,31.5651174 C108.21667,34.3090688 111.144508,39.3799131 111.144508,44.8678222 L111.144508,44.8678222 L111.144508,85.3821778 C111.144508,90.8700869 108.21667,95.9409312 103.464295,98.6848534 L103.464295,98.6848534 L68.3774329,118.94206 C66.001241,120.314024 63.3492464,121 60.6972539,121 C58.0452614,121 55.3932668,120.314024 53.0170437,118.942042 L53.0170437,118.942042 L17.9309461,98.6848104 C15.5543918,97.3128408 13.634151,95.3591601 12.3080524,93.0624783 C10.9819538,90.7657967 10.25,88.1261184 10.25,85.3821778 L10.25,85.3821778 L10.25,44.8678222 C10.25,42.1238816 10.9819538,39.4842033 12.3080524,37.1875217 C13.634151,34.8908399 15.5543918,32.9371592 17.9310399,31.5651354 L17.9310399,31.5651354 L53.017075,11.3079395 C55.3932668,9.93597579 58.0452614,9.25 60.6972539,9.25 Z" stroke-linejoin="square" fill="#FFFFFF" fill-rule="evenodd"></path>
        </g>
    </g>
</svg>