<?xml version="1.0" encoding="UTF-8"?>
<svg width="72px" height="73px" viewBox="0 0 72 73" version="1.1" xmlns="http://www.w3.org/2000/svg" xmlns:xlink="http://www.w3.org/1999/xlink">
    <title>picto-tuto</title>
    <g id="Page-1" stroke="none" stroke-width="1" fill="none" fill-rule="evenodd">
        <g id="picto-tuto" transform="translate(0, 0.9)" fill-rule="nonzero">
            <circle id="Oval" fill="#7FBBBF" cx="36" cy="36" r="36"></circle>
            <path d="M55.402454,34.5754601 L55.402454,50.5435583 C55.402454,51.8797546 54.3202454,52.9730061 52.9730061,52.9730061 L19.0269939,52.9730061 C17.6907975,52.9730061 16.597546,51.8907975 16.597546,50.5435583 L16.597546,34.5754601 C16.597546,33.9349693 16.8515337,33.3165644 17.3042945,32.8638037 L20.7386503,29.4294479 C21.191411,28.9766871 21.809816,28.7226994 22.4503067,28.7226994 L26.2932515,28.7226994 L26.2932515,22.6601227 C26.2932515,20.6503067 27.9276074,19.0269939 29.9263804,19.0269939 L42.0515337,19.0269939 C44.0613497,19.0269939 45.6846626,20.6613497 45.6846626,22.6601227 L45.6846626,28.7226994 L49.5276074,28.7226994 C50.1680982,28.7226994 50.7865031,28.9766871 51.2392638,29.4294479 L54.6736196,32.8638037 C55.1484663,33.3165644 55.402454,33.9349693 55.402454,34.5754601 Z M52.9730061,40.8478528 L52.9730061,34.5754601 L49.5386503,31.1411043 L22.4503067,31.1411043 L19.0269939,34.5754601 L19.0269939,40.8478528 L26.3042945,40.8478528 L26.3042945,39.0257669 C26.3042945,38.6944785 26.5803681,38.4184049 26.9116564,38.4184049 L28.1263804,38.4184049 C28.4576687,38.4184049 28.7337423,38.6944785 28.7337423,39.0257669 L28.7337423,40.8478528 L43.2883436,40.8478528 L43.2883436,39.0257669 C43.2883436,38.6944785 43.5644172,38.4184049 43.8957055,38.4184049 L45.1104294,38.4184049 C45.4417178,38.4184049 45.7177914,38.6944785 45.7177914,39.0257669 L45.7177914,40.8478528 L52.9730061,40.8478528 Z M52.9730061,43.2773006 L45.6957055,43.2773006 L45.6957055,45.0993865 C45.6957055,45.4306748 45.4196319,45.7067485 45.0883436,45.7067485 L43.8736196,45.7067485 C43.5423313,45.7067485 43.2662577,45.4306748 43.2662577,45.0993865 L43.2662577,43.2773006 L28.7226994,43.2773006 L28.7226994,45.0993865 C28.7226994,45.4306748 28.4466258,45.7067485 28.1153374,45.7067485 L26.9006135,45.7067485 C26.5693252,45.7067485 26.2932515,45.4306748 26.2932515,45.0993865 L26.2932515,43.2773006 L19.0159509,43.2773006 L19.0159509,50.5546012 L52.9730061,50.5546012 L52.9730061,43.2773006 Z M28.7226994,28.7226994 L43.2773006,28.7226994 L43.2773006,22.6601227 C43.2773006,21.9865031 42.7361963,21.4453988 42.0625767,21.4453988 L29.9374233,21.4453988 C29.2748466,21.4453988 28.7226994,21.9865031 28.7226994,22.6601227 L28.7226994,28.7226994 Z" id="Shape" fill="#FFFFFF"></path>
        </g>
    </g>
</svg>