<?xml version="1.0" encoding="UTF-8"?>
<svg width="83px" height="61px" viewBox="0 0 83 61" version="1.1" xmlns="http://www.w3.org/2000/svg" xmlns:xlink="http://www.w3.org/1999/xlink">
    <title>brix-logo</title>
    <g id="Page-1" stroke="none" stroke-width="1" fill="none" fill-rule="evenodd">
        <g id="brix-logo" fill-rule="nonzero">
            <rect id="Rectangle" fill="#2D69DE" x="0" y="0" width="40.2913" height="29.2105" rx="6.3888"></rect>
            <rect id="Rectangle" fill="#8E944D" x="0" y="31.5791" width="40.2913" height="29.2105" rx="6.3888"></rect>
            <rect id="Rectangle" fill="#F88419" x="42.7089" y="0" width="40.2913" height="28.6378" rx="6.3888"></rect>
            <rect id="Rectangle" fill="#7FBBBF" x="42.7089" y="31.5791" width="40.2913" height="29.2105" rx="6.3888"></rect>
            <path d="M23.894,14.5391 C24.7674,14.7575 25.4152,15.1869 25.8374,15.8275 C26.2669,16.4607 26.4816,17.1814 26.4816,17.9893 C26.4816,19.5397 25.983,20.7116 24.9858,21.505 C23.9886,22.2912 22.5364,22.6842 20.6294,22.6842 L14.4277,22.6842 L14.4277,6.78708 L20.0616,6.78708 C22.0051,6.78708 23.5009,7.15466 24.5491,7.88983 C25.6045,8.61772 26.1322,9.70956 26.1322,11.1653 C26.1322,11.9223 25.9466,12.5993 25.5754,13.1962 C25.2114,13.793 24.651,14.2407 23.894,14.5391 Z M17.9762,9.64769 L17.9762,13.4254 L20.0616,13.4254 C20.9278,13.4254 21.5647,13.2726 21.9723,12.9669 C22.3872,12.6539 22.5947,12.1917 22.5947,11.5802 C22.5947,10.9033 22.3909,10.412 21.9832,10.1063 C21.5829,9.80055 20.9424,9.64769 20.0616,9.64769 L17.9762,9.64769 Z M20.6294,19.8345 C21.4082,19.8345 21.9869,19.6598 22.3654,19.3104 C22.7512,18.9611 22.9441,18.5025 22.9441,17.9347 C22.9441,16.559 22.2198,15.8712 20.7713,15.8712 L17.9762,15.8712 L17.9762,19.8345 L20.6294,19.8345 Z" id="Shape" fill="#FFFFFF"></path>
            <polygon id="Path" fill="#FFFFFF" points="17.7054 54.2632 17.7054 38.366 21.2429 38.366 21.2429 54.2632"></polygon>
            <path d="M68.8757,22.5204 L68.8757,22.6842 L65.0762,22.6842 L62.2046,17.0067 L59.8353,17.0067 L59.8353,22.6842 L56.2869,22.6842 L56.2869,6.78708 L62.3684,6.78708 C63.5913,6.78708 64.6467,6.97269 65.5347,7.34392 C66.43,7.70786 67.1143,8.25014 67.5874,8.97075 C68.0678,9.68408 68.308,10.5576 68.308,11.5912 C68.308,12.7412 68.0678,13.6729 67.5874,14.3863 C67.107,15.0996 66.4118,15.6637 65.502,16.0786 L68.8757,22.5204 Z M59.8353,14.1461 L62.3684,14.1461 C63.1472,14.1461 63.7405,13.9495 64.1481,13.5565 C64.5557,13.1561 64.7595,12.6066 64.7595,11.9078 C64.7595,11.1945 64.5557,10.6413 64.1481,10.2482 C63.7478,9.84786 63.1545,9.64769 62.3684,9.64769 L59.8353,9.64769 L59.8353,14.1461 Z" id="Shape" fill="#FFFFFF"></path>
            <polygon id="Path" fill="#FFFFFF" points="65.7839 38.366 69.8346 38.366 65.3035 46.2491 69.9547 54.2632 65.8603 54.2632 62.9888 48.8258 60.1063 54.2632 56.012 54.2632 60.6741 46.2491 56.1321 38.366 60.1828 38.366 62.9888 43.7051"></polygon>
        </g>
    </g>
</svg>