<svg id="Calque_1" data-name="Calque 1" xmlns="http://www.w3.org/2000/svg" viewBox="0 0 898 220.25"><defs><style>.cls-1{fill:#ef8220;}.cls-2{fill:#2d69de;}</style></defs><title>lesreconstructeurs-couleur</title><path class="cls-1" d="M84,227.33a5.71,5.71,0,0,1-5.71-5.71c0-11.6,4.09-17.6,7.7-22.9,3.19-4.68,5.71-8.38,5.71-16.46S89.18,170.48,86,165.8c-3.61-5.3-7.7-11.3-7.7-22.9S82.38,125.31,86,120c2.88-4.22,5.15-7.55,5.62-14a5.72,5.72,0,1,1,11.4.84c-.71,9.49-4.36,14.85-7.58,19.57s-5.72,8.38-5.72,16.45,2.52,11.78,5.72,16.46c3.61,5.3,7.7,11.3,7.7,22.9s-4.09,17.6-7.7,22.9c-3.2,4.68-5.72,8.38-5.72,16.46A5.71,5.71,0,0,1,84,227.33Z" transform="translate(-11.14 -12.93)"/><path class="cls-1" d="M114.14,227.33a5.72,5.72,0,0,1-5.72-5.71c0-11.6,4.09-17.6,7.7-22.9,3.19-4.68,5.72-8.38,5.72-16.46s-2.53-11.78-5.72-16.46c-3.61-5.3-7.7-11.3-7.7-22.9s4.09-17.59,7.7-22.88c2.74-4,4.9-7.19,5.54-13,.09-1.13.18-9,.18-11.08a5.71,5.71,0,0,1,11.42,0c0,.1,0,10.48-.25,12.32-.94,8.62-4.4,13.69-7.45,18.16-3.19,4.68-5.71,8.38-5.71,16.45s2.52,11.78,5.71,16.46c3.61,5.3,7.7,11.3,7.7,22.9s-4.09,17.6-7.7,22.9c-3.19,4.68-5.71,8.38-5.71,16.46A5.71,5.71,0,0,1,114.14,227.33Z" transform="translate(-11.14 -12.93)"/><path class="cls-2" d="M193.1,60.15,65.49,13.28a5.7,5.7,0,0,0-7.67,5.35v93.74a5.39,5.39,0,0,0,.16,1.27L14.84,129.87a5.7,5.7,0,0,0-3.7,5.33v92.28a5.71,5.71,0,0,0,5.71,5.7H157a5.7,5.7,0,0,0,5.7-5.7v-145A5.71,5.71,0,0,0,155,77.14L69.23,109.4V26.8L185.44,69.48V225a5.7,5.7,0,0,0,11.4,0V65.5A5.69,5.69,0,0,0,193.1,60.15Zm-170.55,79,28.37-10.68a35.35,35.35,0,0,0-2.77,14.43c0,11.6,4.09,17.6,7.7,22.9,3.2,4.68,5.72,8.38,5.72,16.46S59.05,194,55.85,198.72c-3.61,5.3-7.7,11.3-7.7,22.9,0,0,0,.1,0,.16H22.55Zm128.72,82.63H59.56c0-.06,0-.11,0-.16,0-8.08,2.52-11.78,5.71-16.46,3.61-5.3,7.7-11.3,7.7-22.9s-4.09-17.6-7.7-22.9c-3.19-4.68-5.71-8.38-5.71-16.46s2.52-11.77,5.71-16.45c.7-1,1.4-2,2.07-3.12a5.3,5.3,0,0,0,.58-1.26l83.33-31.35Z" transform="translate(-11.14 -12.93)"/><path class="cls-2" d="M288.45,132.14v11.05H239.6V79.59h13.72v52.55Z" transform="translate(-11.14 -12.93)"/><path class="cls-2" d="M336.75,123.84H306.87a11.53,11.53,0,0,0,3.67,7,10.89,10.89,0,0,0,7.51,2.6,15.38,15.38,0,0,0,6.31-1.29,13,13,0,0,0,5-3.87l6.33,7.3a19.28,19.28,0,0,1-7.27,6,24.29,24.29,0,0,1-11.2,2.44A25.08,25.08,0,0,1,304.57,141a21,21,0,0,1-8.21-8.31,23.71,23.71,0,0,1-2.86-11.57v-1.66a28.92,28.92,0,0,1,2.66-12.63,20.38,20.38,0,0,1,7.69-8.67,22.06,22.06,0,0,1,11.88-3.12,21.72,21.72,0,0,1,11.4,2.84A18.1,18.1,0,0,1,334.3,106a28.75,28.75,0,0,1,2.45,12.3ZM323.82,114a9,9,0,0,0-2.12-6.07,7.82,7.82,0,0,0-6.05-2.23,7.3,7.3,0,0,0-5.88,2.49A13.43,13.43,0,0,0,307,115h16.82Z" transform="translate(-11.14 -12.93)"/><path class="cls-2" d="M345.45,109.81a12.83,12.83,0,0,1,2.29-7.38,15.9,15.9,0,0,1,6.62-5.37,23.72,23.72,0,0,1,10.09-2A27,27,0,0,1,375.07,97a16,16,0,0,1,7,5.42,13.42,13.42,0,0,1,2.44,7.93H371.31a5.82,5.82,0,0,0-1.7-4.44,7.41,7.41,0,0,0-5.2-1.59,7.28,7.28,0,0,0-4.61,1.35,4.26,4.26,0,0,0-1.73,3.5,3.81,3.81,0,0,0,1.95,3.32,19.44,19.44,0,0,0,6.62,2.14,45.36,45.36,0,0,1,9.48,2.73A15.29,15.29,0,0,1,382.3,122a13,13,0,0,1-.18,15,16.18,16.18,0,0,1-7,5.17,27.54,27.54,0,0,1-10.59,1.88,24.38,24.38,0,0,1-11-2.33,17.77,17.77,0,0,1-7.08-6,13.68,13.68,0,0,1-2.43-7.65h12.45a6.08,6.08,0,0,0,2.45,5.05,10,10,0,0,0,5.94,1.64,8.87,8.87,0,0,0,5.18-1.29,4,4,0,0,0,1.81-3.47,3.4,3.4,0,0,0-.81-2.3,7.68,7.68,0,0,0-2.88-1.77,40.19,40.19,0,0,0-5.87-1.66Q345.45,120.7,345.45,109.81Z" transform="translate(-11.14 -12.93)"/><path class="cls-2" d="M289.62,230.7v.65H274.94l-11.7-23h-9.92v23H239.6v-63.6h24a33,33,0,0,1,12.69,2.2,17.51,17.51,0,0,1,8.15,6.51A18.69,18.69,0,0,1,287.31,187q0,6.76-2.93,11.07a19.73,19.73,0,0,1-8.39,6.79Zm-36.3-33.42h10.31q4.89,0,7.43-2.45a8.94,8.94,0,0,0,2.53-6.73,9.08,9.08,0,0,0-2.51-6.81q-2.52-2.44-7.45-2.45H253.32Z" transform="translate(-11.14 -12.93)"/><path class="cls-2" d="M336.88,212H307a11.53,11.53,0,0,0,3.67,7,10.89,10.89,0,0,0,7.51,2.6,15.38,15.38,0,0,0,6.31-1.29,13,13,0,0,0,5-3.87l6.33,7.3a19.28,19.28,0,0,1-7.27,6,24.29,24.29,0,0,1-11.2,2.44,25.08,25.08,0,0,1-12.61-3.05,21.06,21.06,0,0,1-8.21-8.3,23.77,23.77,0,0,1-2.86-11.58v-1.66A28.84,28.84,0,0,1,296.29,195a20.41,20.41,0,0,1,7.69-8.68,22.06,22.06,0,0,1,11.88-3.12,21.72,21.72,0,0,1,11.4,2.84,18.1,18.1,0,0,1,7.17,8.06,28.75,28.75,0,0,1,2.45,12.3ZM324,202.13a9,9,0,0,0-2.12-6.08c-1.36-1.48-3.37-2.22-6.05-2.22a7.3,7.3,0,0,0-5.88,2.49,13.39,13.39,0,0,0-2.77,6.85H324Z" transform="translate(-11.14 -12.93)"/><path class="cls-2" d="M384.29,214.79a16,16,0,0,1-2.62,9,17.8,17.8,0,0,1-7.1,6.21,24.22,24.22,0,0,1-22-.88,19.33,19.33,0,0,1-7.41-8.52,29.44,29.44,0,0,1-2.46-12.31v-1.14a29.49,29.49,0,0,1,2.46-12.32,19.34,19.34,0,0,1,7.39-8.52,22,22,0,0,1,12-3.1,22.65,22.65,0,0,1,10.29,2.25,16.55,16.55,0,0,1,7,6.47,19.17,19.17,0,0,1,2.49,9.93H371.93a8.53,8.53,0,0,0-2.05-5.76,7.07,7.07,0,0,0-5.59-2.27q-4.82,0-6.6,3.6a22.1,22.1,0,0,0-1.79,9.72v1.14q0,6.24,1.77,9.78t6.7,3.54a7.89,7.89,0,0,0,5.47-1.84,6.49,6.49,0,0,0,2.09-5Z" transform="translate(-11.14 -12.93)"/><path class="cls-2" d="M392.9,194.87a20,20,0,0,1,7.71-8.56,25.28,25.28,0,0,1,24.26,0,20,20,0,0,1,7.74,8.56,28.17,28.17,0,0,1,2.64,12.41v.92a28,28,0,0,1-2.64,12.38,20.11,20.11,0,0,1-7.71,8.54,25.3,25.3,0,0,1-24.27,0,20,20,0,0,1-7.73-8.54,28,28,0,0,1-2.64-12.38v-.92A28.17,28.17,0,0,1,392.9,194.87ZM405.68,218c1.48,2.43,3.86,3.65,7.12,3.65a7.62,7.62,0,0,0,7-3.67c1.48-2.45,2.23-5.69,2.23-9.74v-.92a18.8,18.8,0,0,0-2.23-9.74c-1.49-2.48-3.86-3.71-7.12-3.71a7.58,7.58,0,0,0-7,3.73,18.75,18.75,0,0,0-2.23,9.72v.92Q403.45,214.32,405.68,218Z" transform="translate(-11.14 -12.93)"/><path class="cls-2" d="M480.7,187.47q3.89,4.26,3.89,13.91v30H471.4v-30q0-4.2-1.79-5.83c-1.2-1.1-3.05-1.64-5.55-1.64a8.82,8.82,0,0,0-4.48,1.09,8.4,8.4,0,0,0-3.08,3.1v33.29H443.31V184.08h12.36l.44,5.46a16.54,16.54,0,0,1,5.94-4.71,17.76,17.76,0,0,1,7.64-1.62Q476.82,183.21,480.7,187.47Z" transform="translate(-11.14 -12.93)"/><path class="cls-2" d="M493.74,198a12.86,12.86,0,0,1,2.29-7.39,15.9,15.9,0,0,1,6.62-5.37,23.72,23.72,0,0,1,10.09-2,27,27,0,0,1,10.62,1.94,16,16,0,0,1,7,5.42,13.44,13.44,0,0,1,2.44,7.93H519.6a5.79,5.79,0,0,0-1.7-4.43q-1.71-1.6-5.2-1.6a7.23,7.23,0,0,0-4.61,1.36,4.23,4.23,0,0,0-1.73,3.49,3.81,3.81,0,0,0,1.95,3.32,19.22,19.22,0,0,0,6.62,2.14,45.36,45.36,0,0,1,9.48,2.73,15.29,15.29,0,0,1,6.18,4.65,13,13,0,0,1-.18,15,16.27,16.27,0,0,1-7,5.18,27.73,27.73,0,0,1-10.59,1.87,24.38,24.38,0,0,1-11-2.33,17.77,17.77,0,0,1-7.08-6,13.64,13.64,0,0,1-2.43-7.64H504.7a6.08,6.08,0,0,0,2.45,5,10,10,0,0,0,5.94,1.64,8.87,8.87,0,0,0,5.18-1.29,4,4,0,0,0,1.81-3.47,3.42,3.42,0,0,0-.81-2.3,7.68,7.68,0,0,0-2.88-1.77,39.15,39.15,0,0,0-5.87-1.65Q493.74,208.86,493.74,198Z" transform="translate(-11.14 -12.93)"/><path class="cls-2" d="M565.75,221.08V231a22.79,22.79,0,0,1-7.77,1.22q-13.89,0-13.89-14.15V193.69H537.4v-9.61h6.69v-11.7h13.19v11.7h8v9.61h-8v22.85c0,1.87.36,3.14,1.09,3.82a5.34,5.34,0,0,0,3.71,1A18.48,18.48,0,0,0,565.75,221.08Z" transform="translate(-11.14 -12.93)"/><path class="cls-2" d="M598.32,183.36a12.92,12.92,0,0,1,1.83.37L600,196.49a34.91,34.91,0,0,0-4.67-.35q-7.08,0-9.22,4.67v30.54H572.9V184.08h12.4l.39,5.73a13.16,13.16,0,0,1,4.44-4.9,11.11,11.11,0,0,1,6-1.7A16.41,16.41,0,0,1,598.32,183.36Z" transform="translate(-11.14 -12.93)"/><path class="cls-2" d="M647.74,184.08v47.27H635.38l-.35-4.94a14.92,14.92,0,0,1-5.46,4.31,17.31,17.31,0,0,1-7.38,1.5q-7.38,0-11.55-4.28t-4.18-13.28V184.08h13.15v30.67q0,3.5,1.73,5.16a6.63,6.63,0,0,0,4.78,1.65q6.07,0,8.43-4.23V184.08Z" transform="translate(-11.14 -12.93)"/><path class="cls-2" d="M697.48,214.79a16,16,0,0,1-2.62,9,17.94,17.94,0,0,1-7.1,6.21,24.22,24.22,0,0,1-22-.88,19.26,19.26,0,0,1-7.41-8.52,29.29,29.29,0,0,1-2.47-12.31v-1.14a29.33,29.33,0,0,1,2.47-12.32,19.39,19.39,0,0,1,7.38-8.52,22,22,0,0,1,12-3.1A22.57,22.57,0,0,1,688,185.46a16.51,16.51,0,0,1,7,6.47,19.17,19.17,0,0,1,2.49,9.93H685.12a8.53,8.53,0,0,0-2.06-5.76,7.05,7.05,0,0,0-5.59-2.27q-4.8,0-6.59,3.6a22,22,0,0,0-1.8,9.72v1.14c0,4.16.6,7.42,1.77,9.78s3.42,3.54,6.71,3.54a7.86,7.86,0,0,0,5.46-1.84,6.46,6.46,0,0,0,2.1-5Z" transform="translate(-11.14 -12.93)"/><path class="cls-2" d="M729.52,221.08V231a22.81,22.81,0,0,1-7.78,1.22q-13.89,0-13.89-14.15V193.69h-6.68v-9.61h6.68v-11.7H721v11.7h8v9.61h-8v22.85c0,1.87.37,3.14,1.1,3.82a5.33,5.33,0,0,0,3.71,1A18.48,18.48,0,0,0,729.52,221.08Z" transform="translate(-11.14 -12.93)"/><path class="cls-2" d="M778.25,212H748.37a11.59,11.59,0,0,0,3.67,7,10.89,10.89,0,0,0,7.51,2.6,15.35,15.35,0,0,0,6.31-1.29,13,13,0,0,0,5-3.87l6.34,7.3a19.32,19.32,0,0,1-7.28,6,24.29,24.29,0,0,1-11.2,2.44,25,25,0,0,1-12.6-3.05,21.09,21.09,0,0,1-8.22-8.3A23.77,23.77,0,0,1,735,209.29v-1.66A28.7,28.7,0,0,1,737.67,195a20.32,20.32,0,0,1,7.68-8.68,22.07,22.07,0,0,1,11.89-3.12,21.77,21.77,0,0,1,11.4,2.84,18.14,18.14,0,0,1,7.16,8.06,28.75,28.75,0,0,1,2.45,12.3Zm-12.93-9.87a9,9,0,0,0-2.12-6.08c-1.36-1.48-3.37-2.22-6.05-2.22a7.31,7.31,0,0,0-5.88,2.49,13.48,13.48,0,0,0-2.77,6.85h16.82Z" transform="translate(-11.14 -12.93)"/><path class="cls-2" d="M827,184.08v47.27H814.66l-.35-4.94a15.08,15.08,0,0,1-5.46,4.31,17.38,17.38,0,0,1-7.38,1.5q-7.4,0-11.56-4.28t-4.17-13.28V184.08h13.15v30.67q0,3.5,1.72,5.16a6.65,6.65,0,0,0,4.79,1.65c4,0,6.86-1.41,8.43-4.23V184.08Z" transform="translate(-11.14 -12.93)"/><path class="cls-2" d="M862.56,183.36a13.22,13.22,0,0,1,1.83.37l-.17,12.76a34.94,34.94,0,0,0-4.68-.35q-7.08,0-9.22,4.67v30.54H837.13V184.08h12.41l.39,5.73a13.08,13.08,0,0,1,4.44-4.9,11.08,11.08,0,0,1,6-1.7A16.41,16.41,0,0,1,862.56,183.36Z" transform="translate(-11.14 -12.93)"/><path class="cls-2" d="M870,198a12.87,12.87,0,0,1,2.3-7.39,15.83,15.83,0,0,1,6.62-5.37,23.69,23.69,0,0,1,10.09-2,26.93,26.93,0,0,1,10.61,1.94,16,16,0,0,1,7,5.42,13.45,13.45,0,0,1,2.45,7.93h-13.2a5.75,5.75,0,0,0-1.7-4.43c-1.13-1.07-2.87-1.6-5.2-1.6a7.25,7.25,0,0,0-4.61,1.36,4.22,4.22,0,0,0-1.72,3.49,3.82,3.82,0,0,0,1.94,3.32,19.29,19.29,0,0,0,6.62,2.14,45,45,0,0,1,9.48,2.73,15.29,15.29,0,0,1,6.18,4.65,12,12,0,0,1,2.29,7.56,12.14,12.14,0,0,1-2.46,7.45,16.31,16.31,0,0,1-7,5.18,27.7,27.7,0,0,1-10.59,1.87,24.41,24.41,0,0,1-11-2.33,17.84,17.84,0,0,1-7.08-6,13.71,13.71,0,0,1-2.42-7.64H881a6.05,6.05,0,0,0,2.45,5,10,10,0,0,0,5.94,1.64,8.83,8.83,0,0,0,5.17-1.29,4,4,0,0,0,1.81-3.47,3.41,3.41,0,0,0-.8-2.3,7.65,7.65,0,0,0-2.89-1.77,39.15,39.15,0,0,0-5.87-1.65Q870,208.86,870,198Z" transform="translate(-11.14 -12.93)"/></svg>