<svg width="83" height="61" viewBox="0 0 83 61" fill="none" xmlns="http://www.w3.org/2000/svg">
<rect width="40.2913" height="29.2105" rx="6.3888" fill="#BF4C82"/>
<rect y="31.5791" width="40.2913" height="29.2105" rx="6.3888" fill="#8E944D"/>
<rect x="42.7089" width="40.2913" height="28.6378" rx="6.3888" fill="#F88419"/>
<rect x="42.7089" y="31.5791" width="40.2913" height="29.2105" rx="6.3888" fill="#7FBBBF"/>
<path d="M23.894 14.5391C24.7674 14.7575 25.4152 15.1869 25.8374 15.8275C26.2669 16.4607 26.4816 17.1814 26.4816 17.9893C26.4816 19.5397 25.983 20.7116 24.9858 21.505C23.9886 22.2912 22.5364 22.6842 20.6294 22.6842H14.4277V6.78708H20.0616C22.0051 6.78708 23.5009 7.15466 24.5491 7.88983C25.6045 8.61772 26.1322 9.70956 26.1322 11.1653C26.1322 11.9223 25.9466 12.5993 25.5754 13.1962C25.2114 13.793 24.651 14.2407 23.894 14.5391ZM17.9762 9.64769V13.4254H20.0616C20.9278 13.4254 21.5647 13.2726 21.9723 12.9669C22.3872 12.6539 22.5947 12.1917 22.5947 11.5802C22.5947 10.9033 22.3909 10.412 21.9832 10.1063C21.5829 9.80055 20.9424 9.64769 20.0616 9.64769H17.9762ZM20.6294 19.8345C21.4082 19.8345 21.9869 19.6598 22.3654 19.3104C22.7512 18.9611 22.9441 18.5025 22.9441 17.9347C22.9441 16.559 22.2198 15.8712 20.7713 15.8712H17.9762V19.8345H20.6294Z" fill="white"/>
<path d="M17.7054 54.2632V38.366H21.2429V54.2632H17.7054Z" fill="white"/>
<path d="M68.8757 22.5204V22.6842H65.0762L62.2046 17.0067H59.8353V22.6842H56.2869V6.78708H62.3684C63.5913 6.78708 64.6467 6.97269 65.5347 7.34392C66.43 7.70786 67.1143 8.25014 67.5874 8.97075C68.0678 9.68408 68.308 10.5576 68.308 11.5912C68.308 12.7412 68.0678 13.6729 67.5874 14.3863C67.107 15.0996 66.4118 15.6637 65.502 16.0786L68.8757 22.5204ZM59.8353 14.1461H62.3684C63.1472 14.1461 63.7405 13.9495 64.1481 13.5565C64.5557 13.1561 64.7595 12.6066 64.7595 11.9078C64.7595 11.1945 64.5557 10.6413 64.1481 10.2482C63.7478 9.84786 63.1545 9.64769 62.3684 9.64769H59.8353V14.1461Z" fill="white"/>
<path d="M65.7839 38.366H69.8346L65.3035 46.2491L69.9547 54.2632H65.8603L62.9888 48.8258L60.1063 54.2632H56.012L60.6741 46.2491L56.1321 38.366H60.1828L62.9888 43.7051L65.7839 38.366Z" fill="white"/>
</svg>
