<?xml version="1.0" encoding="UTF-8"?>
<svg width="192px" height="58px" viewBox="0 0 192 58" version="1.1" xmlns="http://www.w3.org/2000/svg" xmlns:xlink="http://www.w3.org/1999/xlink">
    <title>lesperformeurs-couleur</title>
    <g id="Page-1" stroke="none" stroke-width="1" fill="none" fill-rule="evenodd">
        <g id="lesperformeurs-couleur" transform="translate(0, 0.9676)" fill-rule="nonzero">
            <g id="Group" transform="translate(17.3925, 19.9891)" fill="#EF8220">
                <path d="M1.47525975,35.5097609 C0.647043748,35.5097609 0,34.8368354 0,34.0345012 C0,31.0322182 1.06115175,29.4793132 1.99289474,28.1075804 C2.82111074,26.8911382 3.46815449,25.9335134 3.46815449,23.8370917 C3.46815449,21.7406699 2.82111074,20.7830452 1.99289474,19.5666029 C1.06115175,18.1948702 0,16.6419652 0,13.6396822 C0,10.6373992 1.06115175,9.08449423 1.99289474,7.71276148 C2.74346549,6.62572798 3.33874574,5.74574849 3.44227274,4.08931649 C3.49403624,3.28698224 4.21872524,2.66582024 5.02105949,2.71758374 C5.82339373,2.76934724 6.44455573,3.49403624 6.39279223,4.29637049 C6.21161998,6.75513673 5.25399524,8.12686948 4.42577924,9.36919348 C3.59756324,10.5856357 2.95051949,11.5432605 2.95051949,13.6138005 C2.95051949,15.6843405 3.59756324,16.667847 4.42577924,17.8842892 C5.35752224,19.2560219 6.41867398,20.8089269 6.41867398,23.8112099 C6.41867398,26.8134929 5.35752224,28.3663979 4.42577924,29.7381307 C3.59756324,30.9545729 2.95051949,31.9121977 2.95051949,34.0086194 C2.95051949,36.1050412 2.27759399,35.4838792 1.47525975,35.4838792 L1.47525975,35.5097609 Z" id="Path"></path>
                <path d="M9.26566648,35.5097609 C8.43745048,35.5097609 7.79040673,34.8368354 7.79040673,34.0345012 C7.79040673,31.0322182 8.85155848,29.4793132 9.78330147,28.1075804 C10.6115175,26.8911382 11.2585612,25.9335134 11.2585612,23.8370917 C11.2585612,21.7406699 10.6115175,20.7830452 9.78330147,19.5666029 C8.85155848,18.1948702 7.79040673,16.6419652 7.79040673,13.6396822 C7.79040673,10.6373992 8.85155848,9.08449423 9.78330147,7.71276148 C10.4821087,6.67749148 11.0515072,5.84927548 11.2067977,4.34813399 C11.2067977,4.06343474 11.2585612,2.01877649 11.2585612,1.47525975 C11.2585612,0.647043748 11.9314867,-3.67801788e-15 12.733821,-3.67801788e-15 C13.5361552,-3.67801788e-15 14.2090807,0.672925498 14.2090807,1.47525975 C14.2090807,2.27759399 14.2090807,4.19284349 14.1573172,4.65871499 C13.9243815,6.88454548 13.0185202,8.20451473 12.216186,9.36919348 C11.38797,10.5856357 10.7409262,11.5432605 10.7409262,13.6138005 C10.7409262,15.6843405 11.38797,16.667847 12.216186,17.8842892 C13.147929,19.2560219 14.2090807,20.8089269 14.2090807,23.8112099 C14.2090807,26.8134929 13.147929,28.3663979 12.216186,29.7381307 C11.38797,30.9545729 10.7409262,31.9121977 10.7409262,34.0086194 C10.7409262,36.1050412 10.0680007,35.4838792 9.26566648,35.4838792 L9.26566648,35.5097609 Z" id="Path"></path>
            </g>
            <path d="M47.1047849,12.2245726 L14.0537902,0.0860318982 C13.6138005,-0.0692586014 13.0961655,-0.0174951015 12.7079392,0.267204148 C12.319713,0.551903397 12.0867772,0.991893146 12.0867772,1.48364639 L12.0867772,25.7348461 C12.0867772,25.8383731 12.0867772,25.9677818 12.1385407,26.0713088 L0.957624748,30.2641523 C0.388226249,30.4712063 0,31.0406048 0,31.6358851 L0,55.5247403 C0,56.3270745 0.672925498,57 1.47525975,57 L37.7355914,57 C38.5379256,57 39.2108511,56.3270745 39.2108511,55.5247403 L39.2108511,18.0220846 C39.2108511,17.5303314 38.9779154,17.0903416 38.5638074,16.8056424 C38.1755812,16.5209431 37.6579462,16.4691796 37.1920747,16.6503519 L15.011415,25.0101571 L15.011415,3.60594989 L45.0860084,14.6574571 L45.0860084,54.9035783 C45.0860084,55.7059125 45.7589339,56.378838 46.5612681,56.378838 C47.3636024,56.378838 48.0365279,55.7059125 48.0365279,54.9035783 L48.0365279,13.6221871 C48.0365279,13.0010251 47.6483016,12.4575084 47.0789031,12.2245726 L47.1047849,12.2245726 Z M2.95051949,32.6711551 L10.3009365,29.9018078 C9.88682847,30.8594326 9.57624748,32.0499931 9.57624748,33.6287798 C9.57624748,36.6310628 10.6373992,38.1839678 11.5691422,39.5557005 C12.3973582,40.7721428 13.044402,41.7297675 13.044402,43.8261893 C13.044402,45.922611 12.3973582,46.8802358 11.5691422,48.096678 C10.6373992,49.4684108 9.57624748,51.0213158 9.57624748,54.0235988 C9.57624748,57.0258817 9.57624748,54.0494805 9.57624748,54.0753623 L2.95051949,54.0753623 L2.95051949,32.6970368 L2.95051949,32.6711551 Z M36.2603317,54.0494805 L12.526767,54.0494805 C12.526767,54.0494805 12.526767,54.0235988 12.526767,53.997717 C12.526767,51.9012953 13.1738107,50.9436705 14.0020267,49.7272283 C14.9337697,48.3554955 15.9949215,46.8025905 15.9949215,43.8003075 C15.9949215,40.7980245 14.9337697,39.2451195 14.0020267,37.8733868 C13.1738107,36.6569446 12.526767,35.6993198 12.526767,33.6028981 C12.526767,31.5064763 13.1738107,30.5488516 14.0020267,29.3582911 C14.183199,29.0994736 14.3643712,28.8147743 14.5455435,28.5559568 C14.6231887,28.4524298 14.6490705,28.3489028 14.700834,28.2194941 L36.2603317,20.0926246 L36.2603317,54.0235988 L36.2603317,54.0494805 Z" id="Shape" fill="#2D69DE"></path>
            <g id="Group" transform="translate(58.6222, 38.4945)" fill="#2D69DE">
                <path d="M10.0162372,1.88936775 C10.973862,2.38112099 11.7244327,3.05404649 12.2420677,3.88226249 C12.7597027,4.73636024 13.0185202,5.69398499 13.0185202,6.80690023 C13.0185202,7.91981548 12.7597027,8.82567673 12.2420677,9.62801097 C11.7244327,10.4303452 10.9997437,11.0515072 10.042119,11.5173787 C9.08449423,11.9573685 7.94569723,12.1903042 6.62572798,12.1903042 L3.75285374,12.1903042 L3.75285374,17.9619345 L-7.35603576e-15,17.9619345 L-7.35603576e-15,1.1905605 L6.62572798,1.1905605 C7.91981548,1.1905605 9.05861248,1.42349625 10.0162372,1.9152495 L10.0162372,1.88936775 Z M8.56685923,8.51509573 C9.00684898,8.10098773 9.21390298,7.53158923 9.21390298,6.80690023 C9.21390298,6.08221123 9.11037598,5.87515723 8.92920373,5.48693099 C8.74803148,5.09870474 8.46333223,4.76224199 8.07510598,4.52930624 C7.68687973,4.29637049 7.19512648,4.16696174 6.59984623,4.16696174 L3.72697199,4.16696174 L3.72697199,9.13625773 L6.59984623,9.13625773 C7.47982573,9.13625773 8.12686948,8.92920373 8.56685923,8.51509573 Z" id="Shape"></path>
                <path d="M25.7782229,12.8632297 L17.9619345,12.8632297 C18.0913432,13.5879187 18.427806,14.183199 18.9195592,14.597307 C19.4113124,15.011415 20.0583562,15.2443507 20.8348087,15.2443507 C21.6112612,15.2443507 21.9994874,15.1408237 22.4912407,14.9337697 C23.0088757,14.7267157 23.4229837,14.390253 23.7853282,13.9243815 L25.4676419,15.943158 C25.0276522,16.56432 24.3806084,17.081955 23.5523924,17.5219447 C22.6982947,17.9360527 21.7147882,18.1689885 20.6018729,18.1689885 C19.4889577,18.1689885 18.1948702,17.910171 17.2372455,17.3666542 C16.2796207,16.8231375 15.5549317,16.0984485 15.0372967,15.1667055 C14.5196617,14.2349625 14.286726,13.2255742 14.286726,12.1385407 L14.286726,11.698551 C14.286726,10.456227 14.5196617,9.36919348 14.9855332,8.38568698 C15.4514047,7.40218048 16.1243302,6.65160973 17.0301915,6.08221123 C17.910171,5.51281274 18.9713227,5.25399524 20.2136467,5.25399524 C21.4559707,5.25399524 22.3877137,5.51281274 23.2418114,6.00456598 C24.0700274,6.49631923 24.7170712,7.19512648 25.1570609,8.12686948 C25.5970507,9.03273073 25.8041047,10.1197642 25.8041047,11.3620882 L25.8041047,12.8891115 L25.7782229,12.8632297 Z M22.2583049,10.1974095 C22.2583049,9.55036573 22.0771327,9.05861248 21.7406699,8.67038623 C21.3783254,8.30804173 20.8865722,8.12686948 20.1877649,8.12686948 C18.9713227,8.12686948 18.220752,8.90332198 17.9878162,10.4821087 L22.2841867,10.4821087 L22.2841867,10.1974095 L22.2583049,10.1974095 Z" id="Shape"></path>
                <path d="M34.8368354,5.35752224 L34.7850719,8.82567673 C34.1897917,8.77391323 33.7756837,8.72214973 33.5427479,8.72214973 C32.9215859,8.72214973 32.4039509,8.82567673 32.0157247,9.03273073 C31.6274984,9.23978473 31.3427992,9.52448398 31.1357452,9.93859197 L31.1357452,17.910171 L27.5381819,17.910171 L27.5381819,5.43516749 L30.9028094,5.43516749 L31.0063364,6.96219073 C31.3169174,6.39279223 31.7051437,5.95280248 32.1710152,5.64222149 C32.6368867,5.33164049 33.1545217,5.17634999 33.7498019,5.17634999 C34.3450822,5.17634999 34.5262544,5.22811349 34.7850719,5.30575874 L34.8368354,5.35752224 Z" id="Path"></path>
                <path d="M42.2390159,3.28698224 C41.9284349,3.54579974 41.7731444,3.93402599 41.7731444,4.42577924 L41.7731444,5.46104924 L44.2319106,5.46104924 L44.2319106,8.77391323 L41.7731444,8.77391323 L41.7731444,17.9360527 L38.1755812,17.9360527 L38.1755812,8.77391323 L36.3638587,8.77391323 L36.3638587,5.46104924 L38.1755812,5.46104924 L38.1755812,4.42577924 C38.1755812,3.49403624 38.3567534,2.66582024 38.7449796,2.01877649 C39.1332059,1.345851 39.6508409,0.854097748 40.3755299,0.517634999 C41.0743371,0.18117225 41.9025531,0 42.8601779,0 C43.8178026,0 43.9730931,0.0776452498 44.6201369,0.232935749 L44.6201369,3.00228299 C44.3354376,2.92463774 43.9989749,2.89875599 43.6107486,2.89875599 C43.0154684,2.89875599 42.5754786,3.02816474 42.2648976,3.28698224 L42.2390159,3.28698224 Z" id="Path"></path>
                <path d="M45.9918696,8.30804173 C46.4577411,7.35041698 47.1306666,6.59984623 48.0365279,6.05632948 C48.9423891,5.51281274 50.0035409,5.22811349 51.2458649,5.22811349 C52.4881889,5.22811349 53.5752224,5.51281274 54.4810836,6.05632948 C55.3869449,6.59984623 56.0598704,7.35041698 56.5257419,8.30804173 C56.9916134,9.26566648 57.2245491,10.3527 57.2245491,11.595024 L57.2245491,11.8279597 C57.2245491,13.044402 56.9916134,14.1314355 56.5257419,15.0890602 C56.0598704,16.046685 55.3869449,16.7972557 54.4810836,17.3407725 C53.5752224,17.8842892 52.5140706,18.1431067 51.2717466,18.1431067 C50.0294226,18.1431067 48.9423891,17.8842892 48.0365279,17.3407725 C47.1306666,16.7972557 46.4577411,16.046685 45.9918696,15.0890602 C45.5259981,14.1314355 45.2930624,13.044402 45.2930624,11.802078 L45.2930624,11.5691422 C45.2930624,10.3527 45.5259981,9.26566648 45.9918696,8.30804173 Z M49.4341424,14.3126077 C49.7964869,14.9337697 50.4176489,15.2443507 51.2458649,15.2443507 C52.0740809,15.2443507 52.6693611,14.9337697 53.0317056,14.3126077 C53.3940501,13.6914457 53.6011041,12.8632297 53.6011041,11.802078 L53.6011041,11.5691422 C53.6011041,10.5338722 53.4199319,9.70565622 53.0317056,9.08449423 C52.6693611,8.46333223 52.0481991,8.12686948 51.2199831,8.12686948 C50.3917671,8.12686948 49.7964869,8.43745048 49.4341424,9.08449423 C49.0717979,9.70565622 48.8647439,10.559754 48.8647439,11.5691422 L48.8647439,11.802078 C48.8647439,12.8632297 49.0459161,13.6914457 49.4341424,14.3126077 Z" id="Shape"></path>
                <path d="M66.4125703,5.35752224 L66.3608068,8.82567673 C65.7655266,8.77391323 65.3514186,8.72214973 65.1184828,8.72214973 C64.4973208,8.72214973 63.9796858,8.82567673 63.5914596,9.03273073 C63.2032333,9.23978473 62.9185341,9.52448398 62.7114801,9.93859197 L62.7114801,17.910171 L59.1139168,17.910171 L59.1139168,5.43516749 L62.4785443,5.43516749 L62.5820713,6.96219073 C62.8926523,6.39279223 63.2808786,5.95280248 63.7467501,5.64222149 C64.2126216,5.33164049 64.7302566,5.17634999 65.3255368,5.17634999 C65.9208171,5.17634999 66.1019893,5.22811349 66.3608068,5.30575874 L66.4125703,5.35752224 Z" id="Path"></path>
                <path d="M84.7886128,6.36691048 C85.48742,7.11748123 85.8238828,8.35980523 85.8238828,10.042119 L85.8238828,17.910171 L82.2263195,17.910171 L82.2263195,10.042119 C82.2263195,9.52448398 82.1486743,9.13625773 82.0192655,8.85155848 C81.8898568,8.56685923 81.7086845,8.38568698 81.449867,8.28215998 C81.1910495,8.17863298 80.9063503,8.12686948 80.518124,8.12686948 C80.1298978,8.12686948 79.689908,8.23039648 79.379327,8.43745048 C79.068746,8.64450448 78.8099285,8.95508548 78.6287563,9.34331173 L78.6287563,17.910171 L75.0311931,17.910171 L75.0311931,10.042119 C75.0311931,9.52448398 74.9535478,9.13625773 74.8241391,8.85155848 C74.6947303,8.56685923 74.5135581,8.38568698 74.2547406,8.28215998 C74.0218048,8.17863298 73.6853421,8.12686948 73.3229976,8.12686948 C72.9606531,8.12686948 72.5206633,8.23039648 72.2100823,8.41156873 C71.8995013,8.59274098 71.6406838,8.87744023 71.4336298,9.21390298 L71.4336298,17.910171 L67.8360666,17.910171 L67.8360666,5.43516749 L71.2006941,5.43516749 L71.3042211,6.85866373 C71.7183291,6.34102873 72.2359641,5.92692073 72.8312443,5.64222149 C73.4265246,5.35752224 74.0994501,5.22811349 74.8759026,5.22811349 C75.6523551,5.22811349 76.2993988,5.38340399 76.8687973,5.69398499 C77.4381958,6.00456598 77.8523038,6.47043748 78.137003,7.11748123 C78.551111,6.52220098 79.068746,6.05632948 79.689908,5.71986674 C80.31107,5.38340399 81.035759,5.22811349 81.8380933,5.22811349 C83.106299,5.22811349 84.0639238,5.61633974 84.762731,6.36691048 L84.7886128,6.36691048 Z" id="Path"></path>
                <path d="M99.2823927,12.8632297 L91.4661043,12.8632297 C91.595513,13.5879187 91.9319758,14.183199 92.423729,14.597307 C92.9154823,15.011415 93.562526,15.2443507 94.3389785,15.2443507 C95.115431,15.2443507 95.5036573,15.1408237 95.9954105,14.9337697 C96.5130455,14.7267157 96.9271535,14.390253 97.289498,13.9243815 L98.9718117,15.943158 C98.531822,16.56432 97.8847782,17.081955 97.0565622,17.5219447 C96.2024645,17.9360527 95.218958,18.1689885 94.1060428,18.1689885 C92.9931275,18.1689885 91.69904,17.910171 90.7414153,17.3666542 C89.7837905,16.8231375 89.0591015,16.0984485 88.5414665,15.1667055 C88.0238315,14.2349625 87.7908958,13.2255742 87.7908958,12.1385407 L87.7908958,11.698551 C87.7908958,10.456227 88.0238315,9.36919348 88.489703,8.38568698 C88.9555745,7.40218048 89.6285,6.65160973 90.5343613,6.08221123 C91.4143408,5.51281274 92.4754925,5.25399524 93.7178165,5.25399524 C94.9601405,5.25399524 95.8918835,5.51281274 96.7459812,6.00456598 C97.5741972,6.49631923 98.221241,7.19512648 98.6612307,8.12686948 C99.1012205,9.03273073 99.3082745,10.1197642 99.3082745,11.3620882 L99.3082745,12.8891115 L99.2823927,12.8632297 Z M95.7624748,10.1974095 C95.7624748,9.55036573 95.5813025,9.05861248 95.2448398,8.67038623 C94.8824953,8.30804173 94.390742,8.12686948 93.6919348,8.12686948 C92.4754925,8.12686948 91.7249218,8.90332198 91.491986,10.4821087 L95.7883565,10.4821087 L95.7883565,10.1974095 L95.7624748,10.1974095 Z" id="Shape"></path>
                <path d="M111.96445,5.46104924 L111.96445,17.9360527 L108.599823,17.9360527 L108.496296,16.6160835 C108.108069,17.1078367 107.616316,17.496063 107.046918,17.7548805 C106.477519,18.013698 105.856357,18.1431067 105.131668,18.1431067 C103.837581,18.1431067 102.828192,17.7548805 102.077622,17.0043097 C101.352933,16.253739 100.964706,15.0890602 100.964706,13.5102735 L100.964706,5.43516749 L104.56227,5.43516749 L104.56227,13.5102735 C104.56227,14.079672 104.71756,14.5196617 105.002259,14.804361 C105.286959,15.0890602 105.701067,15.218469 106.218702,15.218469 C107.22809,15.218469 107.952779,14.8561245 108.341005,14.1573172 L108.341005,5.43516749 L111.938568,5.43516749 L111.96445,5.46104924 Z" id="Path"></path>
                <path d="M121.592461,5.35752224 L121.540698,8.82567673 C120.945417,8.77391323 120.531309,8.72214973 120.298374,8.72214973 C119.677212,8.72214973 119.159577,8.82567673 118.77135,9.03273073 C118.383124,9.23978473 118.098425,9.52448398 117.891371,9.93859197 L117.891371,17.910171 L114.293808,17.910171 L114.293808,5.43516749 L117.658435,5.43516749 L117.761962,6.96219073 C118.072543,6.39279223 118.460769,5.95280248 118.926641,5.64222149 C119.392512,5.33164049 119.910147,5.17634999 120.505428,5.17634999 C121.100708,5.17634999 121.28188,5.22811349 121.540698,5.30575874 L121.592461,5.35752224 Z" id="Path"></path>
                <path d="M123.973582,11.6209057 C123.19713,10.9997437 122.783022,10.1974095 122.783022,9.16213948 C122.783022,8.12686948 122.990076,7.79040673 123.378302,7.19512648 C123.766528,6.59984623 124.361808,6.10809298 125.138261,5.77163023 C125.914713,5.40928574 126.794693,5.25399524 127.829963,5.25399524 C128.865233,5.25399524 129.848739,5.43516749 130.651074,5.77163023 C131.453408,6.10809298 132.07457,6.59984623 132.51456,7.19512648 C132.954549,7.81628848 133.161603,8.51509573 133.161603,9.29154823 L129.56404,9.29154823 C129.56404,8.79979498 129.434631,8.41156873 129.149932,8.15275123 C128.865233,7.89393373 128.425243,7.73864323 127.829963,7.73864323 C127.234683,7.73864323 126.949983,7.84217023 126.665284,8.07510598 C126.380585,8.30804173 126.225294,8.59274098 126.225294,8.95508548 C126.225294,9.31742998 126.406467,9.60212922 126.742929,9.80918322 C127.079392,10.0162372 127.648791,10.2232912 128.425243,10.3527 C129.40875,10.5338722 130.236966,10.766808 130.909891,11.0515072 C131.608698,11.3362065 132.152215,11.7503145 132.566323,12.2679495 C132.980431,12.7855845 133.187485,13.45851 133.187485,14.286726 C133.187485,15.114942 132.980431,15.6843405 132.540441,16.253739 C132.100452,16.8490192 131.47929,17.289009 130.676955,17.6254717 C129.874621,17.9619345 128.942878,18.117225 127.855845,18.117225 C126.768811,18.117225 125.759423,17.910171 124.931207,17.496063 C124.102991,17.081955 123.481829,16.56432 123.041839,15.9172762 C122.601849,15.2702325 122.394795,14.597307 122.394795,13.8984997 L125.785305,13.8984997 C125.785305,14.4678982 126.01824,14.8820062 126.406467,15.1667055 C126.794693,15.4514047 127.312328,15.5808135 127.93349,15.5808135 C128.554652,15.5808135 128.942878,15.4772865 129.253459,15.2443507 C129.56404,15.011415 129.719331,14.7267157 129.719331,14.3643712 C129.719331,14.0020267 129.641685,13.9502632 129.512277,13.769091 C129.382868,13.6138005 129.12405,13.45851 128.761706,13.3291012 C128.399361,13.1996925 127.881726,13.044402 127.208801,12.9149932 C125.837068,12.630294 124.775916,12.1644225 123.999464,11.5432605 L123.973582,11.6209057 Z" id="Path"></path>
            </g>
            <g id="Group" transform="translate(58.5963, 16.9609)" fill="#2D69DE">
                <polygon id="Path" points="11.9832502 13.769091 11.9832502 16.771374 -7.35603576e-15 16.771374 -7.35603576e-15 0 3.75285374 0 3.75285374 13.769091 11.9832502 13.769091"></polygon>
                <path d="M25.1052974,11.7244327 L17.289009,11.7244327 C17.4184177,12.4491217 17.7548805,13.044402 18.2466337,13.45851 C18.738387,13.872618 19.3854307,14.1055537 20.1618832,14.1055537 C20.9383357,14.1055537 21.3265619,14.0020267 21.8183152,13.7949727 C22.3359502,13.5879187 22.7500582,13.251456 23.1124027,12.7855845 L24.7947164,14.804361 C24.3547267,15.425523 23.7076829,15.943158 22.8794669,16.3831477 C22.0253692,16.7972557 21.0418627,17.0301915 19.9289474,17.0301915 C18.8160322,17.0301915 17.5219447,16.771374 16.56432,16.2278572 C15.6066952,15.6843405 14.8820062,14.9596515 14.3643712,14.0279085 C13.8467362,13.0961655 13.6138005,12.0867772 13.6138005,10.9997437 L13.6138005,10.559754 C13.6138005,9.31742998 13.8467362,8.23039648 14.3126077,7.24688998 C14.7784792,6.26338348 15.4514047,5.51281274 16.357266,4.94341424 C17.2372455,4.37401574 18.2983972,4.11519824 19.5407212,4.11519824 C20.7830452,4.11519824 21.7147882,4.37401574 22.5688859,4.86576899 C23.3971019,5.35752224 24.0441457,6.05632948 24.4841354,6.98807248 C24.9241252,7.89393373 25.1311792,8.98096723 25.1311792,10.2232912 L25.1311792,11.7503145 L25.1052974,11.7244327 Z M21.5853794,9.05861248 C21.5853794,8.41156873 21.4042072,7.91981548 21.0677444,7.53158923 C20.7053999,7.16924473 20.2136467,6.98807248 19.5148394,6.98807248 C18.2983972,6.98807248 17.5478265,7.76452498 17.3148907,9.34331173 L21.6112612,9.34331173 L21.6112612,9.05861248 L21.5853794,9.05861248 Z" id="Shape"></path>
                <path d="M28.0558169,10.4821087 C27.2793644,9.86094672 26.8652564,9.05861248 26.8652564,8.02334248 C26.8652564,6.98807248 27.0723104,6.65160973 27.4605367,6.05632948 C27.8487629,5.46104924 28.4440432,4.96929599 29.2204957,4.63283324 C29.9969482,4.27048874 30.8769277,4.11519824 31.9121977,4.11519824 C32.9474677,4.11519824 33.9309742,4.29637049 34.7333084,4.63283324 C35.5356427,4.96929599 36.1568047,5.46104924 36.5967944,6.05632948 C37.0367842,6.67749148 37.2438382,7.37629873 37.2438382,8.15275123 L33.6462749,8.15275123 C33.6462749,7.66099798 33.5168662,7.27277173 33.2321669,7.01395423 C32.9474677,6.75513673 32.5074779,6.59984623 31.9121977,6.59984623 C31.3169174,6.59984623 31.0322182,6.70337323 30.7475189,6.93630898 C30.4628197,7.16924473 30.3075292,7.45394398 30.3075292,7.81628848 C30.3075292,8.17863298 30.4887014,8.46333223 30.8251642,8.67038623 C31.1616269,8.87744023 31.7310254,9.08449423 32.5074779,9.21390298 C33.4909844,9.39507523 34.3192004,9.62801097 34.9921259,9.91271022 C35.6909332,10.1974095 36.2344499,10.6115175 36.6485579,11.1291525 C37.0626659,11.6467875 37.2697199,12.319713 37.2697199,13.147929 C37.2697199,13.976145 37.0626659,14.5455435 36.6226762,15.114942 C36.1826864,15.7102222 35.5615244,16.150212 34.7591902,16.4866747 C33.9568559,16.8231375 33.0251129,16.978428 31.9380794,16.978428 C30.8510459,16.978428 29.8416577,16.771374 29.0134417,16.357266 C28.1852257,15.943158 27.5640637,15.425523 27.1240739,14.7784792 C26.6840842,14.1314355 26.4770302,13.45851 26.4770302,12.7597027 L29.8675394,12.7597027 C29.8675394,13.3291012 30.1004752,13.7432092 30.4887014,14.0279085 C30.8769277,14.3126077 31.3945627,14.4420165 32.0157247,14.4420165 C32.6368867,14.4420165 33.0251129,14.3384895 33.3356939,14.1055537 C33.6462749,13.872618 33.8015654,13.5879187 33.8015654,13.2255742 C33.8015654,12.8632297 33.7239202,12.8114662 33.5945114,12.630294 C33.4651027,12.4750035 33.2062852,12.319713 32.8439407,12.1903042 C32.4815962,12.0608955 31.9639612,11.905605 31.2910357,11.7761962 C29.9193029,11.491497 28.8581512,11.0256255 28.0816987,10.4044635 L28.0558169,10.4821087 Z" id="Path"></path>
            </g>
        </g>
    </g>
</svg>