<svg width="230" height="57" viewBox="0 0 230 57" fill="none" xmlns="http://www.w3.org/2000/svg">
<path d="M18.6774 55.5093C17.8534 55.5093 17.201 54.8504 17.201 54.0182C17.201 51.0013 18.2654 49.4755 19.1581 48.0884C19.9821 46.8747 20.6344 45.9037 20.6344 43.8231C20.6344 41.7424 19.9821 40.7715 19.1581 39.5578C18.2311 38.1707 17.201 36.6449 17.201 33.6279C17.201 30.611 18.2654 29.0852 19.1581 27.6981C19.8791 26.6231 20.4627 25.7562 20.6001 24.0917C20.6687 23.2941 21.3554 22.6699 22.1794 22.7393C22.9691 22.8086 23.5871 23.5022 23.5184 24.3344C23.3467 26.7965 22.3854 28.1836 21.5614 29.3973C20.7374 30.611 20.0851 31.5473 20.0851 33.6626C20.0851 35.7432 20.7374 36.7142 21.5614 37.9279C22.4884 39.315 23.5184 40.8408 23.5184 43.8577C23.5184 46.8747 22.4541 48.4005 21.5614 49.7876C20.7374 51.0013 20.0851 51.9722 20.0851 54.0529C20.1194 54.8504 19.4671 55.5093 18.6774 55.5093Z" fill="#F88419"/>
<path d="M26.3678 55.5087C25.5438 55.5087 24.8915 54.8498 24.8915 54.0176C24.8915 51.0006 25.9558 49.4748 26.8485 48.0878C27.6725 46.8741 28.3248 45.9031 28.3248 43.8224C28.3248 41.7418 27.6725 40.7708 26.8485 39.5571C25.9215 38.17 24.8915 36.6442 24.8915 33.6273C24.8915 30.6104 25.9558 29.0846 26.8485 27.6975C27.5352 26.6572 28.1188 25.8249 28.2562 24.3338C28.2905 24.0564 28.2905 22.0104 28.2905 21.4556C28.2905 20.6233 28.9428 19.9645 29.7668 19.9645C30.5908 19.9645 31.2432 20.6233 31.2432 21.4556C31.2432 21.4903 31.2432 24.1604 31.1745 24.6459C30.9342 26.8652 30.0415 28.183 29.2518 29.362C28.4965 30.6104 27.8442 31.5814 27.8442 33.662C27.8442 35.7426 28.4965 36.7136 29.3205 37.9273C30.2475 39.3144 31.2775 40.8402 31.2775 43.8571C31.2775 46.8741 30.2132 48.3999 29.3205 49.7869C28.4965 51.0006 27.8442 51.9716 27.8442 54.0523C27.8442 54.8498 27.1918 55.5087 26.3678 55.5087Z" fill="#F88419"/>
<path d="M46.6248 12.2316L13.9394 0.0945291C13.493 -0.0788575 12.978 -0.00950287 12.6004 0.267916C12.2227 0.545334 11.9824 0.996139 11.9824 1.48162V25.7211C11.9824 25.8251 11.9824 25.9291 12.0167 26.0332L0.961336 30.2638C0.377668 30.4719 0 31.0267 0 31.6509V55.5089C0 56.3065 0.652335 57 1.47634 57H37.3548C38.1444 57 38.8311 56.3411 38.8311 55.5089V18.0227C38.8311 17.5372 38.5908 17.0864 38.2131 16.809C37.8354 16.5316 37.3204 16.4622 36.8741 16.6356L14.8664 24.9928V3.59694L44.6335 14.659V54.8847C44.6335 55.6823 45.2858 56.3758 46.1098 56.3758C46.8995 56.3758 47.5861 55.7169 47.5861 54.8847V13.6187C47.5518 12.9945 47.1741 12.4397 46.6248 12.2316ZM2.91834 32.6912L10.197 29.917C9.78503 30.888 9.47603 32.067 9.47603 33.6622C9.47603 36.6791 10.5404 38.2049 11.433 39.592C12.257 40.8057 12.9094 41.7767 12.9094 43.8573C12.9094 45.9379 12.257 46.9089 11.433 48.1226C10.506 49.5097 9.47603 51.0355 9.47603 54.0524V54.0871H2.91834V32.6912ZM35.8784 54.0524H12.3944V54.0177C12.3944 51.9371 13.0467 50.9661 13.8707 49.7524C14.7977 48.3653 15.8277 46.8395 15.8277 43.8226C15.8277 40.8057 14.7634 39.2799 13.8707 37.8928C13.0467 36.6791 12.3944 35.7081 12.3944 33.6275C12.3944 31.5469 13.0467 30.5759 13.8707 29.3622C14.0424 29.0848 14.214 28.842 14.3857 28.5646C14.4544 28.4606 14.4887 28.3565 14.523 28.2525L35.8784 20.138V54.0524Z" fill="#2D69DE"/>
<path d="M71.0361 30.8519V33.6954H60.9077H58.5387V17.2584H62.0407V30.8519H71.0361Z" fill="#2D69DE"/>
<path d="M83.3962 28.7022H75.7399C75.8772 29.4651 76.1862 30.0546 76.6669 30.5054C77.1819 30.9562 77.7999 31.1643 78.5895 31.1643C79.1732 31.1643 79.7225 31.0602 80.2032 30.8175C80.6839 30.6094 81.1302 30.2627 81.4735 29.8119L83.0872 31.6844C82.6752 32.3086 82.0572 32.8288 81.2332 33.2449C80.4092 33.661 79.4479 33.8691 78.3492 33.8691C77.1132 33.8691 76.0489 33.5917 75.1219 33.0715C74.1949 32.5514 73.5082 31.8231 73.0275 30.9215C72.5468 30.0199 72.3065 29.0143 72.3065 27.9393V27.5232C72.3065 26.3095 72.5469 25.1998 72.9932 24.2635C73.4395 23.3272 74.0919 22.5643 74.9502 22.0095C75.8085 21.4546 76.8385 21.2119 78.0059 21.2119C79.1389 21.2119 80.1345 21.4546 80.9242 21.9401C81.7139 22.4256 82.3319 23.1191 82.7439 24.0207C83.1559 24.9224 83.3619 25.9974 83.3619 27.2111V28.7022H83.3962ZM80.1002 26.1707C80.1002 25.5119 79.8942 24.9917 79.5509 24.6103C79.2075 24.2288 78.6925 24.0207 78.0059 24.0207C77.3535 24.0207 76.8729 24.2288 76.4952 24.6796C76.1175 25.0957 75.9115 25.6853 75.7742 26.4482H80.0659V26.1707H80.1002Z" fill="#2D69DE"/>
<path d="M85.6277 25.096C85.6277 24.4024 85.8337 23.7782 86.2113 23.1887C86.589 22.5992 87.1727 22.1484 87.8937 21.8016C88.649 21.4549 89.5073 21.2815 90.4687 21.2815C91.4987 21.2815 92.4257 21.4549 93.181 21.8016C93.9707 22.1484 94.5544 22.5992 94.9664 23.1887C95.3784 23.7782 95.5844 24.4718 95.5844 25.2347H92.2197C92.2197 24.7492 92.0823 24.3677 91.7733 24.0903C91.4987 23.8129 91.0523 23.6742 90.4343 23.6742C89.9537 23.6742 89.5417 23.7782 89.267 24.021C88.958 24.2637 88.8207 24.5411 88.8207 24.9226C88.8207 25.2694 88.9923 25.5468 89.3357 25.7895C89.679 25.9976 90.2284 26.2056 91.018 26.3444C91.9794 26.5177 92.769 26.7605 93.4557 27.0379C94.108 27.3153 94.6574 27.7314 95.035 28.2516C95.4127 28.7718 95.6187 29.4306 95.6187 30.1935C95.6187 30.9218 95.4127 31.5459 95.0007 32.1355C94.5887 32.6903 93.9707 33.1411 93.2154 33.4879C92.4257 33.8 91.533 33.9734 90.503 33.9734C89.4043 33.9734 88.4773 33.7653 87.6877 33.3838C86.898 32.9677 86.28 32.4476 85.868 31.8234C85.456 31.1992 85.25 30.5403 85.25 29.8468H88.443C88.4773 30.4363 88.6833 30.8524 89.061 31.1645C89.473 31.4419 89.9537 31.5806 90.5717 31.5806C91.1553 31.5806 91.6017 31.4766 91.9107 31.2339C92.2197 31.0258 92.3914 30.7137 92.3914 30.3322C92.3914 30.0895 92.3227 29.9161 92.1854 29.7427C92.048 29.5693 91.8077 29.4306 91.43 29.2919C91.0867 29.1532 90.5717 29.0145 89.9193 28.8758C87.0697 28.2169 85.6277 26.9685 85.6277 25.096Z" fill="#2D69DE"/>
<path d="M71.3452 56.3743V56.5477H67.5685L64.5815 50.6179H62.0408V56.5477H58.5388V40.076H64.6845C65.9548 40.076 67.0192 40.2494 67.9462 40.6308C68.8388 41.0123 69.5599 41.5671 70.0405 42.33C70.5212 43.0582 70.7615 43.9945 70.7615 45.0348C70.7615 46.2139 70.5212 47.1502 70.0062 47.9131C69.4912 48.6413 68.8045 49.2308 67.8432 49.6816L71.3452 56.3743ZM62.0408 47.705H64.6845C65.5085 47.705 66.1608 47.4969 66.5728 47.0808C67.0192 46.6647 67.2252 46.0752 67.2252 45.3469C67.2252 44.584 67.0192 43.9945 66.5728 43.5784C66.1608 43.1623 65.5085 42.9542 64.6502 42.9542H62.0065V47.705H62.0408Z" fill="#2D69DE"/>
<path d="M83.4304 51.5202H75.774C75.9114 52.2831 76.2204 52.8726 76.701 53.3234C77.216 53.7742 77.834 53.9823 78.6237 53.9823C79.2074 53.9823 79.7567 53.8782 80.2374 53.6355C80.7181 53.4274 81.1644 53.0807 81.5077 52.6298L83.1214 54.5024C82.7094 55.1266 82.0914 55.6468 81.2674 56.0629C80.4434 56.479 79.4821 56.6871 78.3834 56.6871C77.1474 56.6871 76.083 56.4097 75.156 55.8895C74.229 55.3694 73.5424 54.6411 73.0617 53.7395C72.581 52.8379 72.3407 51.8323 72.3407 50.7573V50.3411C72.3407 49.1274 72.581 48.0178 73.0274 47.0815C73.4737 46.1105 74.126 45.3823 74.9844 44.8275C75.8427 44.2726 76.8727 44.0299 78.0401 44.0299C79.1731 44.0299 80.1687 44.2726 80.9584 44.7581C81.7481 45.2436 82.3661 45.9371 82.7781 46.8387C83.1901 47.7403 83.3961 48.8153 83.3961 50.029V51.5202H83.4304ZM80.1344 48.9887C80.1344 48.3299 79.9284 47.8097 79.5851 47.4283C79.2417 47.0468 78.7267 46.8387 78.0401 46.8387C77.3877 46.8387 76.907 47.0468 76.5294 47.4976C76.1517 47.9137 75.9457 48.5032 75.8084 49.2661H80.1001V48.9887H80.1344Z" fill="#2D69DE"/>
<path d="M95.5847 52.2481C95.5847 53.115 95.3443 53.8779 94.898 54.5714C94.4516 55.265 93.8336 55.7851 93.0783 56.1666C92.323 56.548 91.4646 56.7561 90.5376 56.7561C89.336 56.7561 88.306 56.4787 87.4476 55.9585C86.5893 55.4384 85.9713 54.6755 85.5593 53.7392C85.1473 52.8029 84.9413 51.7279 84.9413 50.5489V50.2714C84.9413 49.0924 85.1473 48.0174 85.5593 47.0811C85.9713 46.1448 86.6236 45.4166 87.4476 44.8618C88.2716 44.3416 89.3016 44.0642 90.5033 44.0642C91.499 44.0642 92.3573 44.2723 93.147 44.6537C93.9023 45.0352 94.5203 45.59 94.9323 46.3182C95.3443 47.0465 95.5847 47.9134 95.5847 48.8844H92.426C92.426 48.2948 92.2543 47.7747 91.911 47.3932C91.5676 47.0118 91.087 46.8037 90.469 46.8037C89.645 46.8037 89.0956 47.1158 88.7866 47.74C88.4776 48.3642 88.3403 49.1964 88.3403 50.2714V50.5489C88.3403 51.6239 88.4776 52.4561 88.7866 53.0803C89.0956 53.7045 89.645 53.9819 90.5033 53.9819C91.087 53.9819 91.5676 53.8085 91.911 53.4964C92.2543 53.1843 92.426 52.7335 92.4603 52.2134H95.5847V52.2481Z" fill="#2D69DE"/>
<path d="M97.7819 47.1159C98.2282 46.1796 98.8806 45.4514 99.7732 44.8966C100.632 44.3764 101.662 44.099 102.863 44.099C104.065 44.099 105.095 44.3764 105.988 44.8966C106.846 45.4167 107.533 46.1796 107.979 47.1159C108.425 48.0522 108.666 49.1272 108.666 50.3409V50.5837C108.666 51.7974 108.425 52.8377 107.979 53.774C107.533 54.7103 106.88 55.4385 105.988 55.9933C105.129 56.5135 104.099 56.7909 102.898 56.7909C101.696 56.7909 100.666 56.5135 99.7732 55.9933C98.9149 55.4732 98.2282 54.7103 97.7819 53.774C97.3355 52.8377 97.0952 51.7627 97.0952 50.5837V50.3062C97.1295 49.1272 97.3355 48.0522 97.7819 47.1159ZM101.078 53.0804C101.456 53.7046 102.074 54.0167 102.898 54.0167C103.722 54.0167 104.305 53.7046 104.683 53.0804C105.061 52.4562 105.267 51.624 105.267 50.549V50.3062C105.267 49.2659 105.061 48.4337 104.683 47.7748C104.305 47.1506 103.687 46.8038 102.863 46.8038C102.039 46.8038 101.456 47.1159 101.078 47.7748C100.7 48.4337 100.494 49.2659 100.494 50.3062V50.549C100.494 51.5893 100.7 52.4562 101.078 53.0804Z" fill="#2D69DE"/>
<path d="M120.27 45.1741C120.923 45.9023 121.266 47.116 121.266 48.7805V56.5482H117.901V48.7805C117.901 48.0523 117.764 47.5668 117.455 47.2547C117.146 46.9773 116.665 46.8386 116.047 46.8386C115.601 46.8386 115.223 46.9426 114.914 47.116C114.605 47.2894 114.331 47.5668 114.125 47.9136V56.5482H110.76V44.3072H113.919L114.022 45.7289C114.434 45.2088 114.949 44.7926 115.532 44.5152C116.116 44.2378 116.768 44.0991 117.489 44.0991C118.691 44.0644 119.618 44.4459 120.27 45.1741Z" fill="#2D69DE"/>
<path d="M123.635 47.9135C123.635 47.22 123.841 46.5958 124.219 46.0063C124.596 45.4167 125.18 44.9659 125.901 44.6192C126.656 44.2724 127.515 44.099 128.476 44.099C129.506 44.099 130.433 44.2724 131.188 44.6192C131.978 44.9659 132.562 45.4167 132.974 46.0063C133.386 46.5958 133.592 47.2893 133.592 48.0522H130.227C130.227 47.5667 130.09 47.1853 129.781 46.9079C129.506 46.6304 129.06 46.4917 128.442 46.4917C127.961 46.4917 127.549 46.5958 127.274 46.8385C126.965 47.0812 126.828 47.3587 126.828 47.7401C126.828 48.0869 127 48.3643 127.343 48.6071C127.686 48.8151 128.236 49.0232 129.025 49.1619C129.987 49.3353 130.776 49.578 131.463 49.8554C132.115 50.1328 132.665 50.549 133.042 51.0691C133.42 51.5893 133.626 52.2482 133.626 53.0111C133.626 53.7393 133.42 54.3635 133.008 54.953C132.596 55.5078 131.978 55.9586 131.223 56.3054C130.467 56.6522 129.54 56.7909 128.51 56.7909C127.412 56.7909 126.485 56.5828 125.695 56.2014C124.905 55.7853 124.287 55.2651 123.875 54.6409C123.463 54.0167 123.257 53.3578 123.257 52.6643H126.45C126.485 53.2538 126.691 53.6699 127.068 53.982C127.48 54.2595 127.961 54.3982 128.579 54.3982C129.163 54.3982 129.609 54.2941 129.918 54.0514C130.227 53.8433 130.399 53.5312 130.399 53.1498C130.399 52.907 130.33 52.7336 130.193 52.5603C130.055 52.3869 129.815 52.2482 129.437 52.1095C129.094 51.9707 128.579 51.832 127.927 51.6933C125.043 51.0345 123.635 49.7861 123.635 47.9135Z" fill="#2D69DE"/>
<path d="M142.072 53.8784V56.4445C141.488 56.6526 140.836 56.7566 140.081 56.7566C137.712 56.7566 136.51 55.5429 136.51 53.0808V46.7695H134.793V44.2728H136.51V41.2905H139.875V44.3074H141.9V46.8042H139.875V52.6993C139.875 53.1848 139.978 53.4969 140.149 53.705C140.321 53.8784 140.664 53.9824 141.111 53.9824C141.488 53.9477 141.797 53.9477 142.072 53.8784Z" fill="#2D69DE"/>
<path d="M150.415 44.1336C150.621 44.1682 150.758 44.2029 150.896 44.2376L150.861 47.5319C150.415 47.4626 150.037 47.4279 149.66 47.4279C148.458 47.4279 147.668 47.844 147.291 48.6416V56.548H143.926V44.3069H147.119L147.222 45.7981C147.531 45.2432 147.909 44.8271 148.355 44.515C148.801 44.2376 149.316 44.0642 149.9 44.0642C150.037 44.0642 150.209 44.0989 150.415 44.1336Z" fill="#2D69DE"/>
<path d="M163.084 44.307V56.5481H159.925L159.822 55.2651C159.445 55.7505 158.964 56.132 158.415 56.3747C157.865 56.6175 157.247 56.7562 156.526 56.7562C155.256 56.7562 154.295 56.3747 153.574 55.6465C152.853 54.9183 152.509 53.7739 152.509 52.2135V44.307H155.874V52.2481C155.874 52.8377 156.011 53.2885 156.32 53.5659C156.629 53.8433 157.007 53.982 157.556 53.982C158.586 53.982 159.307 53.6005 159.719 52.8723V44.2724H163.084V44.307Z" fill="#2D69DE"/>
<path d="M175.822 52.2481C175.822 53.115 175.582 53.8779 175.135 54.5714C174.689 55.265 174.071 55.7851 173.316 56.1666C172.56 56.548 171.702 56.7561 170.775 56.7561C169.573 56.7561 168.543 56.4787 167.685 55.9585C166.827 55.4384 166.209 54.6755 165.797 53.7392C165.385 52.8029 165.179 51.7279 165.179 50.5489V50.2714C165.179 49.0924 165.385 48.0174 165.797 47.0811C166.209 46.1448 166.861 45.4166 167.685 44.8618C168.509 44.3416 169.539 44.0642 170.741 44.0642C171.736 44.0642 172.595 44.2723 173.384 44.6537C174.14 45.0352 174.758 45.59 175.17 46.3182C175.582 47.0465 175.822 47.9134 175.822 48.8844H172.663C172.663 48.2948 172.492 47.7747 172.148 47.3932C171.805 47.0118 171.324 46.8037 170.706 46.8037C169.882 46.8037 169.333 47.1158 169.024 47.74C168.715 48.3642 168.578 49.1964 168.578 50.2714V50.5489C168.578 51.6239 168.715 52.4561 169.024 53.0803C169.333 53.7045 169.882 53.9819 170.741 53.9819C171.324 53.9819 171.805 53.8085 172.148 53.4964C172.492 53.1843 172.663 52.7335 172.698 52.2134H175.822V52.2481Z" fill="#2D69DE"/>
<path d="M184.027 53.8784V56.4445C183.444 56.6526 182.791 56.7566 182.036 56.7566C179.667 56.7566 178.465 55.5429 178.465 53.0808V46.7695H176.749V44.2728H178.465V41.2905H181.83V44.3074H183.856V46.8042H181.83V52.6993C181.83 53.1848 181.933 53.4969 182.105 53.705C182.276 53.8784 182.62 53.9824 183.066 53.9824C183.444 53.9477 183.753 53.9477 184.027 53.8784Z" fill="#2D69DE"/>
<path d="M196.491 51.5202H188.834C188.972 52.2831 189.281 52.8726 189.761 53.3234C190.276 53.7742 190.894 53.9823 191.684 53.9823C192.268 53.9823 192.817 53.8782 193.298 53.6355C193.778 53.4274 194.225 53.0807 194.568 52.6298L196.182 54.5024C195.77 55.1266 195.152 55.6468 194.328 56.0629C193.504 56.479 192.542 56.6871 191.444 56.6871C190.208 56.6871 189.143 56.4097 188.216 55.8895C187.289 55.3694 186.603 54.6411 186.122 53.7395C185.641 52.8379 185.401 51.8323 185.401 50.7573V50.3411C185.401 49.1274 185.641 48.0178 186.088 47.0815C186.534 46.1105 187.186 45.3823 188.045 44.8275C188.903 44.2726 189.933 44.0299 191.1 44.0299C192.233 44.0299 193.229 44.2726 194.019 44.7581C194.808 45.2436 195.426 45.9371 195.838 46.8387C196.251 47.7403 196.456 48.8153 196.456 50.029V51.5202H196.491ZM193.195 48.9887C193.195 48.3299 192.989 47.8097 192.645 47.4283C192.302 47.0468 191.787 46.8387 191.1 46.8387C190.448 46.8387 189.967 47.0468 189.59 47.4976C189.212 47.9137 189.006 48.5032 188.869 49.2661H193.16V48.9887H193.195Z" fill="#2D69DE"/>
<path d="M208.988 44.307V56.5481H205.829L205.726 55.2651C205.348 55.7505 204.868 56.132 204.318 56.3747C203.769 56.6175 203.151 56.7562 202.43 56.7562C201.16 56.7562 200.198 56.3747 199.477 55.6465C198.756 54.9183 198.413 53.7739 198.413 52.2135V44.307H201.778V52.2481C201.778 52.8377 201.915 53.2885 202.224 53.5659C202.533 53.8433 202.911 53.982 203.46 53.982C204.49 53.982 205.211 53.6005 205.623 52.8723V44.2724H208.988V44.307Z" fill="#2D69DE"/>
<path d="M218.086 44.1336C218.292 44.1682 218.429 44.2029 218.567 44.2376L218.532 47.5319C218.086 47.4626 217.708 47.4279 217.331 47.4279C216.129 47.4279 215.339 47.844 214.962 48.6416V56.548H211.597V44.3069H214.79L214.893 45.7981C215.202 45.2432 215.58 44.8271 216.026 44.515C216.472 44.2376 216.987 44.0642 217.571 44.0642C217.708 44.0642 217.914 44.0989 218.086 44.1336Z" fill="#2D69DE"/>
<path d="M220.009 47.9135C220.009 47.22 220.215 46.5958 220.593 46.0063C220.97 45.4167 221.554 44.9659 222.275 44.6192C223.03 44.2724 223.889 44.099 224.85 44.099C225.88 44.099 226.807 44.2724 227.562 44.6192C228.352 44.9659 228.936 45.4167 229.348 46.0063C229.76 46.5958 229.966 47.2893 229.966 48.0522H226.601C226.601 47.5667 226.464 47.1853 226.155 46.9079C225.88 46.6304 225.434 46.4917 224.816 46.4917C224.335 46.4917 223.923 46.5958 223.648 46.8385C223.339 47.0812 223.202 47.3587 223.202 47.7401C223.202 48.0869 223.374 48.3643 223.717 48.6071C224.06 48.8151 224.61 49.0232 225.399 49.1619C226.361 49.3353 227.15 49.578 227.837 49.8554C228.489 50.1328 229.039 50.549 229.416 51.0691C229.794 51.5893 230 52.2482 230 53.0111C230 53.7393 229.794 54.3635 229.382 54.953C228.97 55.5078 228.352 55.9586 227.597 56.3054C226.807 56.6175 225.914 56.7909 224.884 56.7909C223.786 56.7909 222.859 56.5828 222.069 56.2014C221.279 55.7853 220.661 55.2651 220.249 54.6409C219.837 54.0167 219.631 53.3578 219.631 52.6643H222.824C222.859 53.2538 223.065 53.6699 223.442 53.982C223.854 54.2595 224.335 54.3982 224.953 54.3982C225.537 54.3982 225.983 54.2941 226.292 54.0514C226.601 53.8433 226.773 53.5312 226.773 53.1498C226.773 52.907 226.704 52.7336 226.567 52.5603C226.429 52.3869 226.189 52.2482 225.811 52.1095C225.468 51.9707 224.953 51.832 224.301 51.6933C221.451 51.0345 220.009 49.7861 220.009 47.9135Z" fill="#2D69DE"/>
</svg>
