<svg width="66" height="34" viewBox="0 0 66 34" fill="none" xmlns="http://www.w3.org/2000/svg">
<path d="M7.61905 10.0005H10.3115L17.8542 27.4901H14.2897L12.6602 23.4912H5.073L3.48809 27.4901H0L7.61905 10.0005ZM11.5718 20.8211L8.87298 13.707L6.13598 20.8211H11.5718Z" fill="white"/>
<path d="M19.3559 18.0045H17.1027V15.6331H19.3559V13.8784C19.3559 13.1727 19.4323 12.4925 19.5914 11.8376C19.7506 11.1892 20.0115 10.617 20.3807 10.1211C20.7499 9.62521 21.24 9.2374 21.851 8.94496C22.4621 8.65887 23.2259 8.51264 24.1489 8.51264C24.4798 8.51264 24.7535 8.52536 24.9763 8.55079C25.1991 8.57622 25.4282 8.62072 25.6574 8.6843L25.4601 11.2019C25.2946 11.151 25.1164 11.1129 24.9254 11.0811C24.7344 11.0493 24.5308 11.0302 24.3207 11.0302C23.8942 11.0302 23.5442 11.1129 23.2832 11.2782C23.0222 11.4435 22.8185 11.6596 22.6785 11.9203C22.5385 12.1809 22.443 12.4734 22.3921 12.7849C22.3412 13.0964 22.3157 13.4016 22.3157 13.7004V15.6267H25.0591V17.9981H22.3157V27.4836H19.3495V18.0045H19.3559Z" fill="white"/>
<path d="M29.4134 15.6332V17.2862H29.4898C29.6362 17.0573 29.8335 16.8221 30.0691 16.5805C30.3109 16.3389 30.6037 16.1291 30.9474 15.9384C31.2912 15.7477 31.6858 15.5951 32.125 15.4679C32.5642 15.3471 33.0543 15.2836 33.5953 15.2836C34.4355 15.2836 35.2121 15.4425 35.9186 15.7667C36.6251 16.0846 37.2362 16.5296 37.7518 17.0891C38.261 17.6486 38.6556 18.3098 38.9357 19.0663C39.2157 19.8229 39.3558 20.6366 39.3558 21.514C39.3558 22.385 39.2221 23.2051 38.9484 23.9743C38.6747 24.7373 38.2864 25.4048 37.7836 25.977C37.2807 26.5428 36.6697 27.0005 35.9504 27.3375C35.2312 27.6744 34.4228 27.8461 33.5126 27.8461C32.6724 27.8461 31.9022 27.6744 31.202 27.3248C30.5019 26.9815 29.9608 26.511 29.5789 25.9198H29.5344V34.0002H26.5682V15.6332H29.4134ZM36.3387 21.514C36.3387 21.0499 36.2687 20.5985 36.1286 20.1407C35.9886 19.6894 35.7786 19.2825 35.4985 18.9201C35.2184 18.5577 34.862 18.2653 34.4355 18.0427C34.0091 17.8202 33.5062 17.7122 32.927 17.7122C32.386 17.7122 31.8958 17.8266 31.4694 18.0555C31.0429 18.2843 30.6737 18.5831 30.3682 18.9455C30.0627 19.3079 29.8335 19.7211 29.6744 20.1789C29.5153 20.643 29.4389 21.1007 29.4389 21.5648C29.4389 22.0289 29.5153 22.4803 29.6744 22.9381C29.8335 23.3894 30.0627 23.7963 30.3682 24.1587C30.6737 24.5211 31.0429 24.8135 31.4694 25.0361C31.8958 25.2586 32.386 25.3666 32.927 25.3666C33.5062 25.3666 34.0091 25.2522 34.4355 25.0233C34.862 24.7945 35.2184 24.4957 35.4985 24.1333C35.7786 23.7709 35.9886 23.3577 36.1286 22.8999C36.2687 22.4358 36.3387 21.9781 36.3387 21.514Z" fill="white"/>
<path d="M48.3429 25.9833H48.2665C47.9674 26.5109 47.49 26.9432 46.8344 27.2802C46.1724 27.6171 45.4277 27.7888 44.5811 27.7888C44.1037 27.7888 43.6073 27.7252 43.0853 27.6044C42.5634 27.4836 42.086 27.2738 41.6532 26.9877C41.214 26.7017 40.8512 26.3202 40.5647 25.8497C40.2783 25.3793 40.1319 24.8007 40.1319 24.1078C40.1319 23.2177 40.3801 22.512 40.883 21.9843C41.3858 21.4567 42.0351 21.0561 42.8243 20.7764C43.6136 20.4967 44.492 20.3123 45.4595 20.2233C46.427 20.1343 47.369 20.0898 48.292 20.0898V19.791C48.292 19.0472 48.0246 18.5004 47.49 18.1507C46.9553 17.7947 46.3124 17.6167 45.5741 17.6167C44.9503 17.6167 44.3456 17.7502 43.7664 18.0109C43.1872 18.2715 42.7098 18.5958 42.3342 18.9772L40.8002 17.1653C41.4749 16.5423 42.2578 16.0718 43.1362 15.7603C44.021 15.4488 44.9121 15.2898 45.8223 15.2898C46.8789 15.2898 47.7446 15.4361 48.432 15.7349C49.1131 16.0337 49.6541 16.4215 50.0551 16.8983C50.4498 17.3751 50.7298 17.9092 50.8826 18.5068C51.0417 19.098 51.1181 19.6893 51.1181 20.2869V27.5027H48.3493V25.9833H48.3429ZM48.2983 22.0797H47.63C47.1526 22.0797 46.6498 22.0988 46.1215 22.1433C45.5932 22.1814 45.1094 22.2768 44.6639 22.4167C44.2183 22.5565 43.8491 22.7536 43.55 23.0079C43.2508 23.2622 43.1044 23.6119 43.1044 24.0569C43.1044 24.3366 43.1681 24.5719 43.289 24.7626C43.4099 24.9533 43.5754 25.1059 43.7727 25.2203C43.9701 25.3348 44.1928 25.4174 44.4411 25.4683C44.6893 25.5191 44.9376 25.5446 45.1858 25.5446C46.2106 25.5446 46.9808 25.2712 47.5091 24.7308C48.0374 24.1904 48.2983 23.4466 48.2983 22.5057V22.0797Z" fill="white"/>
<path d="M57.8081 0C53.2825 0 49.6161 3.66195 49.6161 8.18217C49.6161 12.7024 53.2825 16.3643 57.8081 16.3643C62.3337 16.3643 66 12.7024 66 8.18217V0H57.8081Z" fill="white"/>
</svg>
