<svg width="89" height="83" viewBox="0 0 89 83" fill="none" xmlns="http://www.w3.org/2000/svg">
<path d="M81.8016 14.4818C79.8431 13.245 79.0037 12.5234 77.7065 12.5234C76.5873 12.5234 75.9514 12.8842 74.8322 13.0646C72.8737 13.348 71.3475 13.5284 69.2872 13.348C67.99 13.245 66.6673 11.9308 66.413 11.57C65.7008 10.5135 65.014 8.63241 65.2683 6.98323C65.6499 6.10711 65.7516 4.84446 65.7516 4.84446C60.2066 0.773052 54.3309 0.206147 52.3724 0C61.9108 6.39056 60.9188 13.3738 60.8171 14.018C60.639 15.3064 59.7233 15.693 58.8076 16.1568C58.0446 16.5175 56.1114 17.3679 55.3229 17.7029C55.5519 17.8317 60.8679 17.6256 61.3258 17.5483C62.5467 17.3679 64.2255 17.2133 65.3447 16.7237C67.0489 15.9764 68.4224 14.8168 70.2283 14.3272C72.1869 13.7861 73.8148 13.5799 75.8751 13.6315C77.096 13.6572 78.2661 14.3015 79.665 14.2499C80.1738 14.2757 81.8271 14.688 81.8016 14.4818Z" fill="white"/>
<path d="M17.042 23.6038C16.8131 23.7069 13.0232 23.14 10.505 23.2689C8.21578 23.3719 6.96943 23.4492 4.80738 24.2996C3.30666 24.8923 1.60246 25.4849 0.203491 26.3095C1.47528 26.258 2.92513 25.6138 4.17148 25.8457C5.01087 26.0003 5.97743 26.4641 6.61332 26.9795C7.68163 27.8299 8.49558 29.144 9.25865 30.2521C10.7594 32.4424 12.6416 33.8597 14.7274 35.4058C13.9897 34.2204 13.1503 33.2155 12.3873 32.0816C11.5224 30.819 10.7848 29.2987 10.2506 27.8814C9.91998 26.9795 10.0726 25.923 10.6576 25.6138C12.2092 24.7892 13.6082 24.4027 15.2615 23.9388C15.6939 23.81 16.6605 23.6296 17.042 23.6038Z" fill="white"/>
<path d="M43.7751 19.0429C42.7831 20.0221 42.5542 20.0478 41.0281 21.2847C40.0615 22.0835 39.1967 22.5731 38.2301 23.372C36.3224 24.9181 33.9569 26.0003 31.1589 26.4384C29.8363 26.6446 26.2244 26.4642 25.4868 25.7942C26.6568 25.2788 28.7934 23.3204 29.76 22.4958C31.2098 21.2847 32.2527 19.9963 33.0666 18.2956C34.3639 15.6157 33.728 12.3173 32.0238 9.17358C33.0921 11.3381 35.2032 12.1369 36.4496 18.3214C36.6785 19.5067 36.0681 20.3571 35.2796 21.2847C34.5674 22.1093 33.3719 22.8824 33.1429 23.9389C37.1618 23.037 37.7723 22.2124 39.4765 21.3363C40.5193 20.7951 41.7148 20.0736 42.7323 19.5067C43.3936 19.1202 43.1392 19.3263 43.7751 19.0429Z" fill="white"/>
<path d="M65.8788 34.4523C64.3781 34.9935 54.7888 36.4365 52.7539 36.3592C50.7191 36.2819 43.4699 35.4573 41.842 35.4058C40.2141 35.3284 37.1618 34.375 31.2098 35.5346C29.938 35.7923 24.6982 38.7556 23.6299 39.8637C22.5362 40.9717 19.3567 42.1313 19.026 41.384C18.6954 40.6367 18.8989 40.0183 17.6016 40.1471C16.3044 40.276 15.7702 41.384 14.6256 40.6883C13.481 39.9925 9.61478 41.6417 10.8866 40.611C13.3284 38.6526 21.3916 35.1223 26.962 33.7308C32.5325 32.3651 39.9852 33.0351 41.9437 33.4474C43.9023 33.8596 49.8797 34.5554 52.4487 34.5554C54.9923 34.5812 63.9203 34.7873 65.8788 34.4523Z" fill="white"/>
<path d="M20.5013 24.1965C7.32552 19.3005 0 27.5464 0 27.5464C0 27.5464 7.65619 20.1251 20.5013 24.1965Z" fill="white"/>
<path d="M13.9897 34.8131C13.1758 34.1173 11.1918 32.8804 8.97888 29.3502C5.62135 23.9903 0.737671 26.258 0.737671 26.258C0.737671 26.258 5.7994 23.8357 9.25868 29.1183C11.5225 32.5712 13.2012 34.1173 13.9897 34.8131Z" fill="white"/>
<path d="M21.0863 24.1449C21.0863 24.1449 12.4381 23.0369 10.1235 26.1549C12.4636 22.2896 21.0863 24.1449 21.0863 24.1449Z" fill="white"/>
<path d="M13.9388 35.5604C9.79279 28.6029 11.3444 24.3511 11.3444 24.3511C11.3444 24.3511 10.505 28.5771 13.9388 35.5604Z" fill="white"/>
<path d="M81.9543 14.4561C81.9543 14.4561 80.9114 13.9407 80.2755 13.4511C79.6396 12.9615 78.7494 12.4461 77.7828 12.4461C76.3584 12.4461 69.6179 14.5591 67.2524 12.3688C64.8868 10.1785 65.0649 7.57591 65.5482 5.84943C65.5482 5.84943 56.6711 -0.128842 48.6079 0.541136C48.6079 0.541136 56.315 0.541136 65.1412 5.97827C65.1412 5.97827 63.3861 14.5849 71.8563 13.6057C76.0532 13.1161 77.4013 12.7811 78.1135 12.9357C78.3933 13.013 81.3693 14.3788 81.9543 14.4561Z" fill="white"/>
<path d="M50.134 18.9655C50.134 18.9655 56.6965 17.5998 59.7997 18.244C66.1332 19.6097 66.2095 18.3986 71.2966 15.6672C74.9594 13.7346 79.1818 14.1726 81.9543 14.3788C79.2072 14.1726 74.8577 13.2707 71.2203 15.2033C66.1332 17.909 66.2604 19.3263 59.9268 17.9863C56.8237 17.3421 50.134 18.9655 50.134 18.9655Z" fill="white"/>
<path d="M49.7017 0C54.1275 1.36572 54.5345 3.81372 56.1115 6.21018C58.4262 9.74045 61.1732 11.235 60.1558 14.4045C59.4436 16.6464 51.3296 18.579 51.3296 18.579C51.3296 18.579 60.0286 16.9298 60.4865 14.6364C61.2241 10.9516 58.7823 9.79199 56.4676 6.26172C54.8906 3.83949 54.2547 0.927662 49.7017 0Z" fill="white"/>
<path d="M72.6193 13.2707C65.4464 13.3223 69.6688 7.80782 69.6688 7.80782C67.99 6.69978 65.3956 6.88016 65.3956 6.88016C65.3956 6.88016 68.5496 6.62247 70.2284 7.73051C70.2029 7.70475 65.8788 12.8842 72.6193 13.2707Z" fill="white"/>
<path d="M23.0193 25.1757C23.0193 25.1757 36.9582 26.2322 33.8041 7.4213C37.7976 26.6187 23.0193 25.1757 23.0193 25.1757Z" fill="white"/>
<path d="M36.2461 22.4958C39.6545 17.5741 31.9983 7.7563 31.9983 7.7563C31.9983 7.7563 38.8405 17.6514 36.2461 22.4958Z" fill="white"/>
<path d="M48.5825 18.7336C47.4379 18.3729 45.9372 19.0944 45.1741 19.3778C41.0026 20.9755 38.6371 24.6861 34.7708 25.6653C30.8791 26.6445 25.6902 24.8923 22.9177 24.4284C25.7157 24.918 30.5485 26.2065 34.4402 25.2273C38.281 24.2481 40.8246 20.7951 44.996 19.1717C45.7591 18.8882 47.4379 18.3986 48.5825 18.7336Z" fill="white"/>
<path d="M34.6691 22.0578C34.6691 22.0578 37.3398 23.0627 45.7082 18.0121C36.6276 22.805 34.6691 22.0578 34.6691 22.0578Z" fill="white"/>
<path d="M47.8448 18.8109C46.5985 18.0379 45.2758 17.9606 45.2758 17.9606C45.2758 17.9606 47.2089 17.8317 47.8448 18.8109Z" fill="white"/>
<path d="M2.41638 41.1779C1.44982 41.1779 1.9331 41.1779 2.41638 41.1779V41.1779ZM80.1737 29.7367C77.4012 32.0816 72.8482 33.3443 67.5067 34.1173C69.6433 33.4216 71.2712 32.5455 73.0771 31.4374C70.966 32.7258 68.5241 33.6277 65.9805 34.375C62.4958 34.8131 58.8331 34.9935 55.4247 34.9935C50.3884 34.9935 45.8862 34.6069 43.3172 34.0658C40.6719 33.5247 38.1283 33.2928 35.6865 33.2928C26.5041 33.2928 19.0769 36.5396 15.2106 37.8795C7.47811 40.5594 3.94253 41.1779 2.41638 41.1779C4.01884 41.1779 7.55442 40.7656 15.2869 38.0599C19.1532 36.7199 26.555 33.5504 35.7119 33.5504C38.1283 33.5504 40.6464 33.7824 43.2918 34.2462C46.2169 34.7358 50.1086 35.1481 55.1703 35.1481C58.1972 35.1481 62.5721 34.8904 65.7007 34.5554C58.7568 36.2561 55.7808 36.3077 51.6856 36.3077C49.4727 36.3077 47.3869 36.1788 45.6064 35.9469C41.9945 35.4831 39.1712 35.38 36.9074 35.38C30.9045 35.38 28.9968 36.7199 27.4961 37.7507C25.563 39.0906 24.2658 41.6932 24.2658 41.6932C24.2658 41.6932 26.2752 38.6268 27.547 37.828C29.0223 36.7973 30.8791 35.4831 36.8819 35.4831C39.1203 35.4831 41.9691 35.6634 45.581 36.1273C47.3615 36.3592 49.4472 36.488 51.6856 36.488C56.1877 36.488 61.3258 35.9469 66.0314 34.5554C71.8308 33.8339 77.1469 32.2878 80.1737 29.7367Z" fill="white"/>
<path d="M33.5499 43.1105H34.1603V46.9242H36.1189V47.4911H33.5499V43.1105Z" fill="white"/>
<path d="M36.475 43.1105H38.9423V43.6774H37.1109V45.0174H38.8914V45.5843H37.1109V46.95H39.0186V47.5169H36.5004V43.1105H36.475Z" fill="white"/>
<path d="M40.6719 45.6358L40.214 45.3523C39.9343 45.172 39.7053 44.9916 39.6036 44.837C39.4764 44.6566 39.4255 44.4762 39.4255 44.2443C39.4255 43.9093 39.5527 43.6259 39.7816 43.4197C40.0106 43.2136 40.3158 43.1105 40.6719 43.1105C41.028 43.1105 41.3587 43.2136 41.6385 43.4197V44.1155C41.3332 43.8062 41.0026 43.6774 40.6465 43.6774C40.443 43.6774 40.2904 43.7289 40.1632 43.8062C40.036 43.9093 39.9597 44.0124 39.9597 44.167C39.9597 44.2958 40.0106 44.4247 40.1123 44.5278C40.214 44.6308 40.3667 44.7597 40.5701 44.8885L41.028 45.172C41.5367 45.4812 41.8165 45.8935 41.8165 46.3573C41.8165 46.6923 41.7148 46.9758 41.4858 47.2077C41.2569 47.4138 40.9517 47.5427 40.5956 47.5427C40.1886 47.5427 39.8071 47.4138 39.451 47.1561V46.3831C39.7816 46.7954 40.1632 47.0015 40.5956 47.0015C40.7991 47.0015 40.9517 46.95 41.0789 46.8469C41.206 46.7438 41.2824 46.615 41.2824 46.4346C41.2315 46.1254 41.0534 45.8677 40.6719 45.6358Z" fill="white"/>
<path d="M13.4301 55.9947V57.3604C12.5399 57.85 11.497 58.1077 10.327 58.1077C9.36041 58.1077 8.5719 57.9016 7.88513 57.515C7.2238 57.1285 6.68965 56.5874 6.30811 55.9174C5.92657 55.2216 5.72308 54.5001 5.72308 53.7013C5.72308 52.4387 6.15549 51.3822 7.04575 50.506C7.936 49.6557 9.02974 49.2176 10.327 49.2176C11.2172 49.2176 12.2347 49.4495 13.3284 49.9391V51.2791C12.3364 50.7122 11.3444 50.403 10.4033 50.403C9.41128 50.403 8.59733 50.7122 7.96144 51.3306C7.32554 51.9491 6.99488 52.7479 6.99488 53.6755C6.99488 54.629 7.32554 55.402 7.96144 56.0205C8.59733 56.6389 9.41128 56.9481 10.4033 56.9481C11.4207 56.9739 12.4381 56.6389 13.4301 55.9947Z" fill="white"/>
<path d="M18.4665 49.2176C19.7891 49.2176 20.8829 49.6299 21.7731 50.4803C22.6634 51.3306 23.0958 52.3871 23.0958 53.6755C23.0958 54.964 22.6634 56.0205 21.7731 56.8451C20.8829 57.6954 19.7637 58.1077 18.4156 58.1077C17.1184 58.1077 16.05 57.6954 15.1852 56.8451C14.3204 55.9947 13.888 54.964 13.888 53.7013C13.888 52.4129 14.3204 51.3306 15.1852 50.4803C16.05 49.6299 17.1438 49.2176 18.4665 49.2176ZM18.5173 50.403C17.5508 50.403 16.7368 50.7122 16.1009 51.3306C15.465 51.9491 15.1598 52.7479 15.1598 53.7013C15.1598 54.629 15.465 55.402 16.1009 56.0462C16.7368 56.6647 17.5253 56.9739 18.4665 56.9739C19.433 56.9739 20.2215 56.6647 20.8574 56.0205C21.4933 55.3763 21.824 54.6032 21.824 53.6498C21.824 52.7221 21.4933 51.9491 20.8574 51.3306C20.247 50.7122 19.4585 50.403 18.5173 50.403Z" fill="white"/>
<path d="M31.0826 49.2176H32.2527V58.1077H30.9809V51.176L28.2847 54.629H28.0557L25.3087 51.176V58.1077H24.0623V49.2176H25.2578L28.1829 52.8767L31.0826 49.2176Z" fill="white"/>
<path d="M33.5245 58.1077V49.2176H36.297C37.1364 49.2176 37.7977 49.4495 38.3064 49.9134C38.8151 50.3772 39.0441 50.9956 39.0441 51.7687C39.0441 52.284 38.9169 52.7479 38.6625 53.1344C38.4082 53.5209 38.0521 53.8302 37.6196 54.0105C37.1872 54.1909 36.5513 54.294 35.712 54.294H34.7963V58.1592H33.5245V58.1077ZM36.0935 50.3514H34.7963V53.1344H36.1698C36.6785 53.1344 37.0855 53.0056 37.3399 52.7737C37.6196 52.5417 37.7468 52.181 37.7468 51.7171C37.7723 50.7895 37.2127 50.3514 36.0935 50.3514Z" fill="white"/>
<path d="M41.5621 49.2176H42.4524L46.3695 58.1077H45.0977L43.9277 55.4793H40.214L39.1203 58.1077H37.8485L41.5621 49.2176ZM43.3935 54.3713L41.9946 51.176L40.6973 54.3713H43.3935Z" fill="white"/>
<path d="M50.948 53.7271H53.8223V57.412C52.754 57.8758 51.7111 58.1077 50.6682 58.1077C49.2438 58.1077 48.1246 57.6954 47.2598 56.8451C46.4204 55.9947 45.988 54.964 45.988 53.7529C45.988 52.4644 46.4204 51.3822 47.3107 50.506C48.201 49.6557 49.2947 49.2176 50.6174 49.2176C51.1006 49.2176 51.5585 49.2692 51.9909 49.3722C52.4233 49.4753 52.9829 49.6814 53.6442 49.9649V51.2275C52.6268 50.6349 51.6094 50.3257 50.5919 50.3257C49.6508 50.3257 48.8623 50.6606 48.2264 51.3049C47.5905 51.9491 47.2598 52.7479 47.2598 53.6755C47.2598 54.6547 47.5905 55.4793 48.2264 56.0978C48.8623 56.7162 49.7017 57.0254 50.7191 57.0254C51.2024 57.0254 51.7874 56.9224 52.4742 56.6904L52.6014 56.6389V54.8351H50.948V53.7271Z" fill="white"/>
<path d="M62.038 49.2176H63.2335V58.1077H62.1398L56.2641 51.2533V58.1077H55.0941V49.2176H56.1115L62.038 56.1235V49.2176Z" fill="white"/>
<path d="M68.9566 49.2176C70.2792 49.2176 71.373 49.6557 72.2632 50.4803C73.1535 51.3306 73.5859 52.3871 73.5859 53.6755C73.5859 54.964 73.1535 56.0205 72.2632 56.8451C71.373 57.6954 70.2538 58.1077 68.9057 58.1077C67.6085 58.1077 66.5402 57.6954 65.6753 56.8451C64.8105 55.9947 64.3781 54.964 64.3781 53.7013C64.3781 52.4129 64.8105 51.3306 65.6753 50.4803C66.5402 49.6299 67.6339 49.2176 68.9566 49.2176ZM69.0074 50.3772C68.0154 50.3772 67.2269 50.6864 66.591 51.3049C65.9551 51.9233 65.6499 52.7221 65.6499 53.6755C65.6499 54.6032 65.9551 55.402 66.591 56.0205C67.2269 56.6389 68.0154 56.9481 68.9566 56.9481C69.9231 56.9481 70.7116 56.6389 71.3475 55.9947C71.9834 55.3505 72.3141 54.5774 72.3141 53.624C72.3141 52.6963 71.9834 51.9233 71.3475 51.3049C70.7116 50.7122 69.9231 50.3772 69.0074 50.3772Z" fill="white"/>
<path d="M81.6236 49.2176H82.8191V58.1077H81.7253L75.8751 51.2533V58.1077H74.6796V49.2176H75.6971L81.6236 56.1235V49.2176Z" fill="white"/>
<path d="M86.7108 54.3713L85.7697 53.8044C85.1847 53.4436 84.7777 53.0829 84.5233 52.7479C84.269 52.3871 84.1418 52.0006 84.1418 51.5368C84.1418 50.841 84.3707 50.2999 84.854 49.8618C85.3118 49.4495 85.9223 49.2176 86.6854 49.2176C87.3976 49.2176 88.0589 49.4238 88.6439 49.8361V51.2533C88.0335 50.6606 87.3721 50.3514 86.6599 50.3514C86.253 50.3514 85.9223 50.4545 85.6679 50.6349C85.4136 50.8153 85.2864 51.0729 85.2864 51.3564C85.2864 51.6141 85.3881 51.8718 85.5662 52.0779C85.7697 52.3098 86.0495 52.5417 86.4819 52.7994L87.423 53.3663C88.4659 54.0105 89 54.8094 89 55.7886C89 56.4843 88.7711 57.0512 88.3133 57.4893C87.8554 57.9273 87.245 58.1335 86.5073 58.1335C85.6679 58.1335 84.8794 57.8758 84.1927 57.3347V55.7628C84.854 56.6131 85.6171 57.0254 86.4819 57.0254C86.8634 57.0254 87.1941 56.9224 87.4484 56.6904C87.7028 56.4843 87.83 56.2008 87.83 55.8916C87.8554 55.3505 87.4739 54.8609 86.7108 54.3713Z" fill="white"/>
<path d="M33.5499 64.163V59.8081H34.9997C35.5847 59.8081 36.0426 59.8854 36.3987 60.0658C36.7293 60.2462 37.0091 60.5039 37.2126 60.8388C37.4161 61.1996 37.5179 61.5604 37.5179 61.9726C37.5179 62.2561 37.467 62.5396 37.3398 62.823C37.2381 63.0807 37.06 63.3126 36.8565 63.5188C36.653 63.7249 36.3987 63.8795 36.1189 63.9826C35.9663 64.0341 35.8137 64.0857 35.661 64.1114C35.5339 64.1372 35.2541 64.1372 34.8725 64.1372H33.5499V64.163ZM34.9234 60.375H34.1603V63.6218H34.9488C35.2541 63.6218 35.5084 63.5961 35.661 63.5703C35.8391 63.5188 35.9663 63.4672 36.0934 63.4157C36.1952 63.3384 36.3224 63.2611 36.3987 63.1838C36.7039 62.8745 36.8565 62.4622 36.8565 61.9984C36.8565 61.5346 36.7039 61.1481 36.3987 60.8388C36.2715 60.7358 36.1443 60.6327 35.9917 60.5554C35.8391 60.4781 35.7119 60.4265 35.5593 60.4008C35.4321 60.375 35.2286 60.375 34.9234 60.375Z" fill="white"/>
<path d="M41.1043 59.8084H41.7148V62.2564C41.7148 62.5914 41.6893 62.8491 41.6385 63.0037C41.5876 63.1841 41.5367 63.3129 41.4604 63.416C41.3841 63.5191 41.3078 63.6222 41.206 63.7252C40.8754 64.0087 40.443 64.1633 39.8834 64.1633C39.3238 64.1633 38.8914 64.0087 38.5607 63.7252C38.459 63.6222 38.3827 63.5449 38.3064 63.416C38.2301 63.3129 38.1792 63.1583 38.1283 63.0037C38.0774 62.8491 38.052 62.5914 38.052 62.2307V59.7827H38.6625V62.2307C38.6625 62.643 38.7133 62.9264 38.7896 63.081C38.8914 63.2356 39.0186 63.3645 39.1966 63.4676C39.3747 63.5706 39.6036 63.6222 39.8579 63.6222C40.214 63.6222 40.5193 63.5191 40.7482 63.3387C40.8754 63.2356 40.9517 63.1068 41.0026 62.978C41.0534 62.8491 41.0789 62.5914 41.0789 62.2564L41.1043 59.8084Z" fill="white"/>
<path d="M33.5499 74.7539V65.8638H36.5004C37.6959 65.8638 38.637 66.0442 39.3238 66.405C40.0106 66.7657 40.5702 67.3069 40.9771 68.0026C41.3841 68.6983 41.5876 69.4714 41.5876 70.296C41.5876 70.8887 41.4858 71.4556 41.2569 71.9967C41.028 72.5378 40.6973 73.0274 40.2904 73.4397C39.858 73.852 39.3747 74.187 38.7896 74.3932C38.459 74.522 38.1538 74.5993 37.874 74.6509C37.5942 74.7024 37.06 74.7282 36.2969 74.7282L33.5499 74.7539ZM36.3732 66.9976H34.7962V73.6201H36.3987C37.0346 73.6201 37.5179 73.5686 37.874 73.4913C38.2301 73.414 38.5099 73.2851 38.7388 73.1563C38.9677 73.0274 39.1712 72.8471 39.3747 72.6667C39.9851 72.0225 40.3158 71.2237 40.3158 70.2445C40.3158 69.291 39.9851 68.518 39.3492 67.8995C39.1203 67.6676 38.8405 67.4872 38.5353 67.3326C38.2301 67.178 37.9503 67.1007 37.6705 67.0492C37.4161 67.0234 36.9837 66.9976 36.3732 66.9976Z" fill="white"/>
<path d="M42.4778 65.8641H47.4378V66.9979H43.7242V69.7035H47.3107V70.8373H43.7242V73.5946H47.565V74.7284H42.4778V65.8641Z" fill="white"/>
<path d="M54.4327 65.8641H55.679L51.9908 74.7541H51.711L47.9465 65.8641H49.1929L51.8128 72.0742L54.4327 65.8641Z" fill="white"/>
<path d="M60.1303 65.7352C61.4784 65.7352 62.623 66.1732 63.5133 67.0494C64.429 67.9255 64.8614 69.0078 64.8614 70.3219C64.8614 71.6361 64.4035 72.7184 63.4878 73.5945C62.5722 74.4449 61.4275 74.883 60.054 74.883C58.7313 74.883 57.6376 74.4449 56.7473 73.5945C55.8571 72.7442 55.4247 71.6619 55.4247 70.3735C55.4247 69.0335 55.8571 67.9513 56.7473 67.0751C57.6376 66.1732 58.7568 65.7352 60.1303 65.7352ZM60.1812 66.9463C59.1892 66.9463 58.3498 67.2555 57.7139 67.8997C57.078 68.5439 56.7473 69.3428 56.7473 70.3477C56.7473 71.3011 57.078 72.1 57.7139 72.7442C58.3752 73.3884 59.1638 73.6976 60.1557 73.6976C61.1223 73.6976 61.9617 73.3626 62.623 72.7184C63.2844 72.0742 63.615 71.2496 63.615 70.2962C63.615 69.3685 63.2844 68.5697 62.623 67.9255C61.9363 67.2813 61.1223 66.9463 60.1812 66.9463Z" fill="white"/>
<path d="M65.7007 65.8383H66.9725V74.7541H65.7007V65.8383Z" fill="white"/>
<path d="M68.2443 74.7541V65.8641H70.4318C71.3221 65.8641 72.0343 66.096 72.543 66.534C73.0771 66.9721 73.3315 67.5905 73.3315 68.3378C73.3315 68.8532 73.2043 69.2912 72.95 69.6778C72.6956 70.0643 72.3395 70.3478 71.8562 70.5281C72.136 70.7085 72.4158 70.9662 72.6702 71.3012C72.95 71.6362 73.3061 72.1773 73.7893 72.9761C74.0946 73.4915 74.3489 73.8523 74.527 74.1099L74.9848 74.7541H73.4841L73.1026 74.1615C73.1026 74.1357 73.0771 74.1099 73.0263 74.0584L72.7719 73.6976L72.3904 73.0534L71.958 72.3577C71.7036 71.9969 71.4492 71.7135 71.2458 71.4816C71.0423 71.2754 70.8388 71.1208 70.6607 71.0177C70.4827 70.9147 70.2029 70.8631 69.7959 70.8631H69.4652V74.7284L68.2443 74.7541ZM69.8722 66.9463H69.4907V69.7551H69.974C70.6099 69.7551 71.0423 69.7035 71.2966 69.6005C71.5255 69.4974 71.7036 69.317 71.8562 69.0851C71.9834 68.8532 72.0597 68.6213 72.0597 68.3378C72.0597 68.0544 71.9834 67.7967 71.8308 67.5648C71.6782 67.3329 71.4747 67.1782 71.2203 67.0752C70.9405 66.9979 70.4827 66.9463 69.8722 66.9463Z" fill="white"/>
<path d="M36.2969 82.0981V82.6393C35.9663 82.8712 35.5847 83 35.1015 83C34.6182 83 34.2621 82.8712 33.9823 82.6135C33.7025 82.3558 33.5499 82.0208 33.5499 81.5828C33.5499 81.1705 33.677 80.8355 33.9568 80.552C34.2112 80.2943 34.5673 80.1397 34.9743 80.1397C35.3812 80.1397 35.7373 80.2686 35.9917 80.552C36.2461 80.8355 36.3732 81.1962 36.3732 81.6858H34.4401C34.4656 81.9435 34.5419 82.1239 34.6945 82.2527C34.8471 82.3816 35.0506 82.4589 35.3304 82.4589C35.6102 82.4847 35.9408 82.3558 36.2969 82.0981ZM34.4401 81.2735H35.6102C35.5593 80.887 35.3812 80.6809 35.0251 80.6809C34.669 80.6809 34.4656 80.8612 34.4401 81.2735Z" fill="white"/>
<path d="M38.8151 80.217V80.8097H37.8485V81.9178C37.8485 82.0466 37.874 82.1497 37.9503 82.227C38.0266 82.3043 38.1283 82.3558 38.2555 82.3558C38.4336 82.3558 38.6116 82.3043 38.8151 82.2012V82.8196C38.5353 82.9227 38.2809 83 38.0266 83C37.6959 83 37.4416 82.9227 37.2635 82.7423C37.0855 82.562 36.9837 82.3301 36.9837 81.9951V80.8355H36.6022V80.6293L37.7214 79.3667H37.8231V80.217H38.8151Z" fill="white"/>
<path d="M43.5716 78.9286V82.9485H42.7322V82.7423C42.5033 82.9227 42.2744 83 41.9946 83C41.6385 83 41.3333 82.8712 41.1043 82.5877C40.8754 82.33 40.7482 81.995 40.7482 81.5827C40.7482 81.1705 40.8754 80.8355 41.1043 80.5778C41.3587 80.3201 41.6639 80.1913 42.0455 80.1913C42.2744 80.1913 42.5033 80.2428 42.7322 80.3716V78.9544H43.5716V78.9286ZM42.7068 82.2012V80.9128C42.5542 80.8097 42.4016 80.7582 42.2235 80.7582C42.02 80.7582 41.842 80.8355 41.7402 80.9901C41.6131 81.1447 41.5622 81.3508 41.5622 81.6085C41.5622 81.8662 41.6131 82.0466 41.7402 82.2012C41.8674 82.3558 42.02 82.4331 42.1981 82.4331C42.4016 82.4073 42.5542 82.33 42.7068 82.2012Z" fill="white"/>
<path d="M46.0897 82.9485V82.5619C45.8354 82.8454 45.5556 83 45.2249 83C44.9451 83 44.6908 82.8969 44.5127 82.7166C44.3347 82.5362 44.2329 82.2785 44.2329 81.9693V80.2428H45.0723V81.9177C45.0723 82.2527 45.2249 82.4331 45.5047 82.4331C45.6573 82.4331 45.8099 82.3816 45.9117 82.2527C46.0134 82.1239 46.0897 82.0466 46.0897 81.9693V80.2428H46.9291V82.9485H46.0897Z" fill="white"/>
<path d="M52.0672 78.9286V79.6759H50.6428V82.9485H49.6508V79.6759H48.2009V78.9286H52.0672Z" fill="white"/>
<path d="M52.9829 80.1655C53.4153 80.1655 53.7714 80.2943 54.0512 80.552C54.3564 80.8097 54.4836 81.1447 54.4836 81.5827C54.4836 82.0208 54.331 82.3816 54.0257 82.6135C53.7205 82.8712 53.3644 82.9742 52.9574 82.9742C52.4996 82.9742 52.1435 82.8454 51.8637 82.5877C51.5839 82.33 51.4313 81.995 51.4313 81.557C51.4313 81.1189 51.5839 80.7839 51.8637 80.5262C52.1943 80.2943 52.5505 80.1655 52.9829 80.1655ZM52.9829 82.4846C53.3898 82.4846 53.5933 82.1754 53.5933 81.557C53.5933 80.9643 53.3898 80.6808 52.9829 80.6808C52.7794 80.6808 52.6268 80.7582 52.525 80.9128C52.4233 81.0674 52.3724 81.2993 52.3724 81.5827C52.3724 82.1754 52.5759 82.4846 52.9829 82.4846Z" fill="white"/>
<path d="M56.9254 82.9485V82.5619C56.6711 82.8454 56.3913 83 56.0606 83C55.7808 83 55.5265 82.8969 55.3484 82.7166C55.1703 82.5362 55.0686 82.2785 55.0686 81.9693V80.2428H55.908V81.9177C55.908 82.2527 56.0352 82.4331 56.3404 82.4331C56.493 82.4331 56.6456 82.3816 56.7474 82.2527C56.8491 82.1239 56.9254 82.0466 56.9254 81.9693V80.2428H57.7648V82.9485H56.9254Z" fill="white"/>
<path d="M59.3164 80.217V80.9901C59.5707 80.4232 59.8505 80.1655 60.1812 80.1655C60.3338 80.1655 60.5119 80.2428 60.7408 80.4232L60.5119 81.1704C60.3084 81.0416 60.1303 80.9643 60.0031 80.9643C59.7997 80.9643 59.647 81.0931 59.5199 81.3251C59.3927 81.5827 59.3164 81.7116 59.3164 81.7631V82.9485H58.477V80.2428H59.3164V80.217Z" fill="white"/>
<path d="M65.3701 78.9286V82.9485H64.5307V82.7423C64.3272 82.9227 64.0728 83 63.7931 83C63.4369 83 63.1317 82.8712 62.9028 82.5877C62.6739 82.33 62.5467 81.995 62.5467 81.5827C62.5467 81.1705 62.6739 80.8355 62.9028 80.5778C63.1572 80.3201 63.4624 80.1913 63.8439 80.1913C64.0728 80.1913 64.3018 80.2428 64.5307 80.3716V78.9544H65.3701V78.9286ZM64.5307 82.2012V80.9128C64.3781 80.8097 64.2255 80.7582 64.0474 80.7582C63.8439 80.7582 63.6659 80.8355 63.5641 80.9901C63.4369 81.1447 63.3861 81.3508 63.3861 81.6085C63.3861 81.8662 63.4369 82.0466 63.5641 82.2012C63.6913 82.3558 63.8439 82.4331 64.022 82.4331C64.2 82.4073 64.3781 82.33 64.5307 82.2012Z" fill="white"/>
<path d="M68.6768 82.0981V82.6393C68.3461 82.8712 67.9645 83 67.4813 83C66.998 83 66.6419 82.8712 66.3621 82.6135C66.0823 82.3558 65.9297 82.0208 65.9297 81.5828C65.9297 81.1705 66.0569 80.8355 66.3367 80.552C66.591 80.2943 66.9471 80.1397 67.3541 80.1397C67.7611 80.1397 68.0917 80.2686 68.3715 80.552C68.6259 80.8355 68.7531 81.1962 68.7531 81.6858H66.8199C66.8454 81.9435 66.9217 82.1239 67.0743 82.2527C67.2269 82.3816 67.4304 82.4589 67.7102 82.4589C68.0154 82.4847 68.3461 82.3558 68.6768 82.0981ZM66.8199 81.2735H67.99C67.9391 80.887 67.7611 80.6809 67.405 80.6809C67.0489 80.6809 66.8708 80.8612 66.8199 81.2735Z" fill="white"/>
<path d="M73.7131 78.9286V79.6759H71.958V80.5778H73.7131V81.3251H71.958V82.9742H70.966V78.9544L73.7131 78.9286Z" fill="white"/>
<path d="M75.1629 80.217V80.9901C75.4172 80.4232 75.697 80.1655 76.0277 80.1655C76.1803 80.1655 76.3584 80.2428 76.5873 80.4232L76.3584 81.1704C76.1549 81.0416 75.9768 80.9643 75.8496 80.9643C75.6461 80.9643 75.4935 81.0931 75.3663 81.3251C75.2392 81.5827 75.1629 81.7116 75.1629 81.7631V82.9485H74.3235V80.2428H75.1629V80.217Z" fill="white"/>
<path d="M79.6396 82.2785V82.7423C79.3598 82.8969 79.1054 83 78.8511 83C78.5967 83 78.4187 82.8969 78.3678 82.6908C78.0626 82.8969 77.7828 83 77.4776 83C77.2741 83 77.096 82.9227 76.9434 82.7939C76.7908 82.665 76.7145 82.5104 76.7145 82.33C76.7145 82.0981 76.7908 81.892 76.9434 81.7631C77.096 81.6085 77.5539 81.4281 78.3169 81.1962C78.3424 80.887 78.1898 80.7324 77.8591 80.7324C77.503 80.7324 77.1723 80.887 76.8671 81.1962V80.5005C77.2232 80.2686 77.6047 80.1655 78.0371 80.1655C78.8002 80.1655 79.1817 80.4489 79.1817 80.9901V82.227C79.1817 82.3558 79.2326 82.4073 79.3089 82.4073C79.3852 82.4073 79.487 82.3816 79.6396 82.2785ZM78.3169 82.2785V81.6085C78.0371 81.7116 77.8337 81.7889 77.7319 81.8662C77.6302 81.9435 77.5793 82.0466 77.5793 82.1754C77.5793 82.2527 77.6047 82.33 77.6556 82.3816C77.7065 82.4331 77.7828 82.4589 77.8591 82.4589C78.0117 82.4846 78.1643 82.4073 78.3169 82.2785Z" fill="white"/>
<path d="M80.8097 80.217V80.6035C81.064 80.3201 81.3438 80.1655 81.6745 80.1655C81.9543 80.1655 82.1832 80.2428 82.3612 80.4232C82.5393 80.6035 82.641 80.8612 82.641 81.1962V82.9227H81.8017V81.2735C81.8017 80.9128 81.6745 80.7324 81.3947 80.7324C81.1912 80.7324 80.9877 80.887 80.8097 81.1704V82.9227H79.9703V80.217H80.8097Z" fill="white"/>
<path d="M85.7187 82.2012V82.8196C85.3881 82.9485 85.0828 83 84.8031 83C84.3198 83 83.9637 82.8712 83.6839 82.6135C83.4041 82.3558 83.2515 82.0208 83.2515 81.5828C83.2515 81.1705 83.4041 80.8355 83.6839 80.552C83.9637 80.2943 84.3198 80.1397 84.7776 80.1397C85.0574 80.1397 85.3626 80.1913 85.6679 80.3201V80.9643C85.4389 80.8355 85.21 80.7839 84.9811 80.7839C84.7267 80.7839 84.5233 80.8612 84.3706 80.9901C84.218 81.1189 84.1417 81.3251 84.1417 81.557C84.1417 81.7889 84.218 81.9951 84.3706 82.1497C84.5233 82.3043 84.7013 82.3816 84.9557 82.3816C85.1337 82.3816 85.3881 82.33 85.7187 82.2012Z" fill="white"/>
<path d="M88.8983 82.0981V82.6393C88.5676 82.8712 88.186 83 87.7028 83C87.2195 83 86.8634 82.8712 86.5836 82.6135C86.3038 82.3558 86.1512 82.0208 86.1512 81.5828C86.1512 81.1705 86.2784 80.8355 86.5582 80.552C86.8125 80.2943 87.1686 80.1397 87.5756 80.1397C87.9826 80.1397 88.3387 80.2686 88.593 80.552C88.8474 80.8355 88.9746 81.1962 88.9746 81.6858H87.0414C87.0669 81.9435 87.1432 82.1239 87.2958 82.2527C87.4484 82.3816 87.6519 82.4589 87.9317 82.4589C88.2115 82.4847 88.5421 82.3558 88.8983 82.0981ZM87.0414 81.2735H88.2115C88.1606 80.887 87.9826 80.6809 87.6265 80.6809C87.2704 80.6809 87.0669 80.8612 87.0414 81.2735Z" fill="white"/>
</svg>
