<svg width="59" height="19" viewBox="0 0 59 19" fill="none" xmlns="http://www.w3.org/2000/svg">
<path d="M2.95232 17.31C2.95232 18.18 2.29194 18.8761 1.48393 18.8761H0V1.5661C0 0.704331 0.660389 0 1.4684 0H2.94456V6.65387C3.90795 6.01582 5.04226 5.64294 6.2543 5.64294C9.69605 5.64294 12.4853 8.60114 12.5163 12.2554V17.31C12.5163 18.18 11.8559 18.8761 11.0479 18.8761H9.57177V12.3217C9.57177 9.62035 7.87028 8.53484 6.26207 8.53484C4.62272 8.53484 2.95232 9.62035 2.95232 12.3217V17.31Z" fill="white"/>
<path d="M21.0158 16.1081C19.4775 16.1081 18.1723 15.0641 17.675 13.6056H26.0659C26.7262 13.6056 27.2701 13.0422 27.2701 12.3296C27.2701 12.3213 27.2701 12.3213 27.2701 12.313C27.2701 8.59248 24.4188 5.58457 20.9148 5.63429C17.543 5.68401 14.7849 8.61732 14.7382 12.2219C14.6916 15.9507 17.5119 19 21.0003 19C23.3 19 25.3122 17.6742 26.3999 15.7021L25.3511 15.0558C24.4188 14.542 23.603 14.9812 23.0902 15.3789C22.5153 15.8346 21.7928 16.1081 21.0158 16.1081ZM21.0158 8.5345C22.5541 8.5345 23.8594 9.57854 24.3566 11.0369H17.6828C18.1723 9.57854 19.4775 8.5345 21.0158 8.5345Z" fill="white"/>
<path d="M30.9762 18.8761H29.5V1.5661C29.5 0.696043 30.1604 0 30.9684 0H32.4446V17.31C32.4524 18.1718 31.7919 18.8761 30.9762 18.8761Z" fill="white"/>
<path d="M36.8809 18.8761H35.4047V1.5661C35.4047 0.696043 36.0651 0 36.8731 0H38.3493V17.31C38.3493 18.1718 37.6889 18.8761 36.8809 18.8761Z" fill="white"/>
<path d="M42.7776 18.8766H41.3014V7.49128C41.3014 6.62119 41.9618 5.92517 42.7698 5.92517H44.246V17.3105C44.2537 18.1723 43.5933 18.8766 42.7776 18.8766Z" fill="white"/>
<path d="M42.7776 3.14911H41.3014V1.57472C41.3014 0.704667 41.9618 0.00862122 42.7698 0.00862122H44.246V1.58301C44.2537 2.44478 43.5933 3.14911 42.7776 3.14911Z" fill="white"/>
<path d="M52.738 5.62657C49.2806 5.62657 46.4759 8.61789 46.4759 12.3053C46.4759 15.9927 49.2806 18.984 52.738 18.984C56.1953 18.984 59 15.9927 59 12.3053C59 8.60963 56.1953 5.62657 52.738 5.62657ZM52.738 16.0839C50.7801 16.0839 49.1874 14.3934 49.1874 12.297C49.1874 10.2006 50.7723 8.51017 52.738 8.51017C54.6958 8.51017 56.2885 10.2006 56.2885 12.297C56.2885 14.3934 54.6958 16.0839 52.738 16.0839Z" fill="white"/>
</svg>
