<svg width="143" height="48" viewBox="0 0 143 48" fill="none" xmlns="http://www.w3.org/2000/svg">
<path d="M61.9849 22.2103V11.7042H63.5944V16.1117H68.4589V11.7042H70.0685V22.1923H68.4589V17.5869H63.5944V22.2103H61.9849Z" fill="white"/>
<path d="M83.4994 16.9753C83.4994 18.5584 82.9987 19.8537 82.0151 20.8971C81.0314 21.9226 79.7974 22.4263 78.2952 22.4263C76.8108 22.4263 75.5768 21.9226 74.5753 20.8971C73.5738 19.8537 73.0909 18.5584 73.0909 16.9753C73.0909 15.3922 73.5916 14.079 74.5753 13.0535C75.5768 12.0101 76.8108 11.5064 78.2952 11.5064C79.7795 11.5064 81.0314 12.0281 82.0151 13.0715C82.9987 14.079 83.4994 15.3742 83.4994 16.9753ZM78.2952 20.9511C79.3324 20.9511 80.173 20.5913 80.8526 19.8537C81.5322 19.1161 81.872 18.1627 81.872 16.9753C81.872 15.77 81.5322 14.8165 80.8526 14.079C80.173 13.3414 79.3324 12.9636 78.2952 12.9636C77.2579 12.9636 76.4173 13.3414 75.7377 14.079C75.0581 14.8165 74.7183 15.77 74.7183 16.9753C74.7183 18.1627 75.0581 19.1161 75.7377 19.8537C76.4173 20.5913 77.2758 20.9511 78.2952 20.9511Z" fill="white"/>
<path d="M94.5877 11.7042V18.4684C94.5877 19.7097 94.2121 20.6812 93.461 21.3828C92.7099 22.0664 91.7263 22.4262 90.528 22.4262C89.3298 22.4262 88.3283 22.0844 87.5771 21.3828C86.826 20.6812 86.4504 19.7097 86.4504 18.4684V11.7042H88.06V18.4144C88.06 19.9076 89.0079 20.933 90.528 20.933C92.0303 20.933 92.996 19.8896 92.996 18.4144V11.7042H94.5877Z" fill="white"/>
<path d="M102.081 16.1118C104.37 16.5435 105.443 17.515 105.443 19.242C105.443 20.1235 105.086 20.8791 104.388 21.4907C103.691 22.1024 102.779 22.4082 101.634 22.4082C99.2556 22.4082 97.7175 21.077 97.3599 19.0981L98.7727 18.3605C99.0767 20.1235 100.025 21.005 101.616 21.005C102.94 21.005 103.834 20.2494 103.834 19.314C103.834 18.2526 103.047 17.7488 101.187 17.389C99.0946 16.9753 97.8248 15.9858 97.8248 14.2948C97.8248 13.4672 98.1468 12.8016 98.8264 12.2619C99.506 11.7402 100.347 11.4883 101.402 11.4883C103.297 11.4883 104.674 12.4418 105.265 14.0969L103.977 14.8525C103.548 13.5392 102.671 12.9095 101.384 12.9095C100.239 12.9095 99.345 13.4133 99.345 14.2768C99.3629 15.2123 100.186 15.734 102.081 16.1118Z" fill="white"/>
<path d="M108.591 22.2103V11.7042H115.44V13.1434H110.2V16.0577H115.029V17.4969H110.2V20.7711H115.494V22.2103H108.591Z" fill="white"/>
<path d="M133.003 16.9753C133.003 18.5584 132.502 19.8537 131.518 20.8971C130.535 21.9226 129.301 22.4263 127.798 22.4263C126.314 22.4263 125.08 21.9226 124.078 20.8971C123.077 19.8537 122.594 18.5584 122.594 16.9753C122.594 15.3922 123.095 14.079 124.078 13.0535C125.08 12.0101 126.314 11.5064 127.798 11.5064C129.283 11.5064 130.535 12.0281 131.518 13.0715C132.502 14.079 133.003 15.3742 133.003 16.9753ZM127.798 20.9511C128.836 20.9511 129.676 20.5913 130.356 19.8537C131.035 19.1161 131.375 18.1627 131.375 16.9753C131.375 15.77 131.035 14.8165 130.356 14.079C129.676 13.3414 128.836 12.9636 127.798 12.9636C126.761 12.9636 125.921 13.3414 125.241 14.079C124.561 14.8165 124.222 15.77 124.222 16.9753C124.222 18.1627 124.561 19.1161 125.241 19.8537C125.921 20.5913 126.779 20.9511 127.798 20.9511Z" fill="white"/>
<path d="M135.971 22.2103V11.7042H143V13.1434H137.581V16.3456H142.553V17.7848H137.581V22.1923H135.971V22.2103Z" fill="white"/>
<path opacity="0.4" d="M71.2667 37.6458C70.6766 38.5992 70.0506 39.3008 69.3531 39.7506C68.6735 40.1824 67.7793 40.4162 66.7063 40.4162C65.2219 40.4162 63.97 39.9125 62.9864 38.8871C62.0207 37.8617 61.5199 36.5664 61.5199 34.9653C61.5199 33.3822 62.0207 32.0869 63.04 31.0435C64.0594 30.0001 65.2935 29.4963 66.7599 29.4963C68.8524 29.4963 70.4798 30.5757 71.2131 32.2128L69.9612 33.1303C69.2101 31.6731 68.137 30.9535 66.7599 30.9535C65.7584 30.9535 64.9179 31.3313 64.2204 32.0869C63.5229 32.8605 63.1831 33.7959 63.1831 34.9473C63.1831 36.0807 63.5229 37.0341 64.2025 37.7897C64.8821 38.5453 65.7227 38.9231 66.7599 38.9231C68.2086 38.9231 69.2995 38.2035 70.0506 36.7463L71.2667 37.6458Z" fill="white"/>
<path opacity="0.4" d="M83.5351 34.9653C83.5351 36.5484 83.0343 37.8437 82.0507 38.8871C81.0671 39.9125 79.8331 40.4162 78.3308 40.4162C76.8464 40.4162 75.6124 39.9125 74.6109 38.8871C73.6094 37.8437 73.1265 36.5484 73.1265 34.9653C73.1265 33.3822 73.6273 32.0689 74.6109 31.0435C75.6124 30.0001 76.8464 29.4963 78.3308 29.4963C79.8152 29.4963 81.0671 30.018 82.0507 31.0615C83.0343 32.0689 83.5351 33.3822 83.5351 34.9653ZM78.3308 38.941C79.3681 38.941 80.2086 38.5812 80.8882 37.8437C81.5678 37.1061 81.9076 36.1526 81.9076 34.9653C81.9076 33.7599 81.5678 32.8065 80.8882 32.0689C80.2086 31.3313 79.3681 30.9535 78.3308 30.9535C77.2935 30.9535 76.453 31.3313 75.7734 32.0689C75.0938 32.8065 74.754 33.7599 74.754 34.9653C74.754 36.1526 75.0938 37.1061 75.7734 37.8437C76.453 38.5812 77.2935 38.941 78.3308 38.941Z" fill="white"/>
<path d="M86.4146 40.2007V29.7125H89.4191C91.0644 29.7125 92.3878 30.1803 93.4072 31.0978C94.4266 32.0152 94.9274 33.3105 94.9274 34.9656C94.9274 36.6387 94.4266 37.9339 93.4072 38.8514C92.3878 39.7689 91.0644 40.2186 89.4191 40.2186H86.4146V40.2007ZM89.4549 38.7255C91.7977 38.7255 93.2821 37.4122 93.2821 34.9476C93.2821 32.483 91.7977 31.1697 89.4549 31.1697H88.0241V38.7255H89.4549Z" fill="white"/>
<path d="M97.6637 40.2007V29.7125H104.513V31.1517H99.2733V34.0661H104.102V35.5053H99.2733V38.7795H104.567V40.2186H97.6637V40.2007Z" fill="white"/>
<path d="M111.381 34.1197C113.67 34.5515 114.743 35.523 114.743 37.25C114.743 38.1315 114.385 38.8871 113.688 39.4987C112.99 40.1104 112.078 40.4162 110.934 40.4162C108.555 40.4162 107.017 39.085 106.659 37.1061L108.072 36.3685C108.376 38.1315 109.324 39.013 110.916 39.013C112.239 39.013 113.133 38.2574 113.133 37.322C113.133 36.2606 112.346 35.7568 110.486 35.397C108.394 34.9833 107.124 33.9938 107.124 32.3028C107.124 31.4752 107.446 30.8096 108.126 30.2699C108.805 29.7482 109.646 29.4963 110.701 29.4963C112.597 29.4963 113.974 30.4498 114.564 32.1049L113.276 32.8605C112.847 31.5472 111.971 30.9175 110.683 30.9175C109.539 30.9175 108.644 31.4213 108.644 32.2848C108.644 33.2023 109.485 33.742 111.381 34.1197Z" fill="white"/>
<path d="M117.569 40.2007V29.7125H119.178V40.2007H117.569Z" fill="white"/>
<path d="M130.642 40.2003L130.249 38.5813C129.515 39.8046 128.424 40.4162 126.994 40.4162C125.509 40.4162 124.293 39.9125 123.345 38.8871C122.397 37.8437 121.915 36.5484 121.915 34.9653C121.915 33.4002 122.415 32.1049 123.453 31.0615C124.49 30.018 125.724 29.4963 127.172 29.4963C129.158 29.4963 130.839 30.5038 131.608 32.0689L130.392 32.9324C129.658 31.6191 128.567 30.9535 127.137 30.9535C126.135 30.9535 125.295 31.3313 124.579 32.0869C123.882 32.8245 123.542 33.7959 123.542 35.0013C123.542 36.1886 123.864 37.1421 124.49 37.8796C125.134 38.6172 125.974 38.977 127.012 38.977C128.8 38.977 129.837 37.8617 130.088 36.1346H126.564V34.7494H131.697V40.2003H130.642Z" fill="white"/>
<path d="M134.666 40.2007V29.7125H136.311L140.997 37.0344C141.229 37.4122 141.39 37.6821 141.444 37.826V29.7125H143V40.2007H141.355L136.669 32.8788C136.419 32.501 136.258 32.2311 136.222 32.0872V40.2007H134.666Z" fill="white"/>
<path d="M16.2909 14.6723L1 7.83617L16.2909 1L31.5997 7.83617L16.2909 14.6723Z" stroke="white" stroke-width="0.61965" stroke-miterlimit="10" stroke-linecap="round" stroke-linejoin="round"/>
<path d="M16.2909 38.5091L1 31.6549L16.2909 24.8188L31.5997 31.6549L16.2909 38.5091Z" stroke="white" stroke-width="0.61965" stroke-miterlimit="10" stroke-linecap="round" stroke-linejoin="round"/>
<path d="M1 7.83618V31.6548" stroke="white" stroke-width="0.61965" stroke-miterlimit="10" stroke-linecap="round" stroke-linejoin="round"/>
<path d="M16.3625 1.00006V24.8187" stroke="white" stroke-width="0.61965" stroke-miterlimit="10" stroke-linecap="round" stroke-linejoin="round"/>
<path d="M34.9442 33.3098L50.2351 40.146L34.9442 47.0002L19.6354 40.146L34.9442 33.3098Z" stroke="white" stroke-width="0.61965" stroke-miterlimit="10" stroke-linecap="round" stroke-linejoin="round"/>
<path d="M34.9442 9.49099L50.2351 16.3272L34.9442 23.1633L19.6354 16.3272L34.9442 9.49099Z" stroke="white" stroke-width="0.61965" stroke-miterlimit="10" stroke-linecap="round" stroke-linejoin="round"/>
<path d="M50.2351 40.1463V16.3276" stroke="white" stroke-width="0.61965" stroke-miterlimit="10" stroke-linecap="round" stroke-linejoin="round"/>
<path d="M34.8724 47.0001V23.1634" stroke="white" stroke-width="0.61965" stroke-miterlimit="10" stroke-linecap="round" stroke-linejoin="round"/>
</svg>
