<svg width="69" height="61" viewBox="0 0 69 61" fill="none" xmlns="http://www.w3.org/2000/svg">
<path d="M0.0255127 16.1238H2.48162C4.25052 16.1238 5.34495 17.0331 5.34495 18.5444C5.34495 19.5177 4.87409 20.2477 4.05963 20.6319L6.57937 24.2179H4.6323L2.49434 20.9521H1.65443V24.2179H0.0255127V16.1238ZM1.65443 17.5198V19.5433H2.5707C3.2579 19.5433 3.66513 19.1719 3.66513 18.5187C3.66513 17.904 3.2579 17.5198 2.5707 17.5198H1.65443Z" fill="white"/>
<path d="M7.59729 16.1237H12.2804V17.5196H9.22621V19.3895H11.8223V20.7854H9.22621V22.809H12.2804V24.2049H7.59729V16.1237ZM9.17531 15.4321L10.4734 13.8696H12.1532L10.6642 15.4321H9.17531Z" fill="white"/>
<path d="M14.1766 16.1238H16.8236C18.5925 16.1238 19.6742 17.0331 19.6742 18.5444C19.6742 20.03 18.5925 20.9521 16.8236 20.9521H15.8056V24.2179H14.1766V16.1238ZM15.8056 17.5198V19.5433H16.9C17.5872 19.5433 18.0071 19.1719 18.0071 18.5187C18.0071 17.904 17.5999 17.5198 16.9 17.5198H15.8056Z" fill="white"/>
<path d="M25.7575 16.1238H27.3864V21.0417C27.3864 23.1677 26.152 24.4356 24.1285 24.4356C22.1178 24.4356 20.8834 23.1677 20.8834 21.0417V16.1238H22.5123V21.1826C22.5123 22.2712 23.1232 22.8988 24.1413 22.8988C25.1339 22.8988 25.7575 22.2584 25.7575 21.1826V16.1238Z" fill="white"/>
<path d="M29.4095 16.1238H31.7002C33.38 16.1238 34.3854 16.9563 34.3854 18.3138C34.3854 18.967 34.0927 19.5305 33.5327 19.9147C34.3854 20.2989 34.8562 20.9905 34.8562 21.8358C34.8562 23.3086 33.7236 24.2179 31.8656 24.2179H29.4095V16.1238ZM31.0385 17.5198V19.2872H31.7257C32.3492 19.2872 32.7056 18.9798 32.7056 18.4035C32.7056 17.8656 32.3492 17.5198 31.7257 17.5198H31.0385ZM31.0385 20.6959V22.8091H31.9547C32.7183 22.8091 33.1764 22.3993 33.1764 21.7333C33.1764 21.0674 32.7183 20.6959 31.9547 20.6959H31.0385Z" fill="white"/>
<path d="M36.5236 16.1238H38.1525V22.7195H41.2067V24.2051H36.5236V16.1238Z" fill="white"/>
<path d="M42.6445 16.1238H44.2734V24.2179H42.6445V16.1238Z" fill="white"/>
<path d="M54.9507 24.7812C55.1289 24.7812 55.3579 24.7556 55.5234 24.6916V26.0747C55.2561 26.1772 55.0271 26.2284 54.6707 26.2284C53.7799 26.2284 52.9527 25.857 52.151 25.1654L51.1965 24.3074C50.8529 24.397 50.4839 24.4482 50.0894 24.4482C47.5569 24.4482 45.8135 22.4888 45.8135 20.1707C45.8135 17.8654 47.5442 15.8931 50.0894 15.8931C52.6091 15.8931 54.3526 17.8526 54.3526 20.1707C54.3526 21.5282 53.7545 22.7577 52.7618 23.5389L53.2454 24C53.8817 24.5635 54.4289 24.7812 54.9507 24.7812ZM52.6855 20.1707C52.6855 18.621 51.6038 17.43 50.1021 17.43C48.5877 17.43 47.506 18.621 47.506 20.1707C47.506 21.7203 48.5877 22.9114 50.1021 22.9114C51.6038 22.9114 52.6855 21.7203 52.6855 20.1707Z" fill="white"/>
<path d="M60.6646 16.1238H62.2935V21.0417C62.2935 23.1677 61.0591 24.4356 59.0356 24.4356C57.0249 24.4356 55.7905 23.1677 55.7905 21.0417V16.1238H57.4194V21.1826C57.4194 22.2712 58.0303 22.8988 59.0484 22.8988C60.041 22.8988 60.6646 22.2584 60.6646 21.1826V16.1238Z" fill="white"/>
<path d="M64.3169 16.1238H69V17.5198H65.9458V19.3896H68.5419V20.7856H65.9458V22.8091H69V24.2051H64.3169V16.1238Z" fill="white"/>
<path d="M0.0255127 27.7912H4.70866V29.1872H1.65443V31.057H4.25052V32.453H1.65443V35.8725H0.0255127V27.7912Z" fill="white"/>
<path d="M6.14661 27.7912H8.60271C10.3716 27.7912 11.466 28.7005 11.466 30.2118C11.466 31.1851 10.9952 31.9151 10.1807 32.2993L12.7005 35.8853H10.7534L8.61544 32.6195H7.77553V35.8725H6.14661V27.7912ZM7.77553 29.1872V31.2107H8.69179C9.37899 31.2107 9.78622 30.8393 9.78622 30.1862C9.78622 29.5714 9.37899 29.1872 8.69179 29.1872H7.77553Z" fill="white"/>
<path d="M16.0855 27.7912H18.2235L21.265 35.8853H19.5343L18.7707 33.7849H15.551L14.7875 35.8853H13.0568L16.0855 27.7912ZM18.2617 32.3762L17.1545 29.3409L16.0474 32.3762H18.2617Z" fill="white"/>
<path d="M22.512 27.7912H24.599L28.1877 33.58V27.7912H29.8166V35.8725H27.7296L24.1409 30.0581V35.8725H22.512V27.7912Z" fill="white"/>
<path d="M37.758 33.4641L39.0433 34.4631C38.4198 35.3212 37.4526 35.9231 36.2818 36.064L35.2892 37.7417H33.8384L34.8438 36.0383C32.7567 35.6669 31.3823 33.8868 31.3823 31.8376C31.3823 29.5324 33.1131 27.5601 35.6582 27.5601C37.1217 27.5601 38.3052 28.2132 39.0433 29.1994L37.758 30.1983C37.2999 29.5452 36.5745 29.0841 35.6582 29.0841C34.1439 29.0841 33.0621 30.2752 33.0621 31.8248C33.0621 33.3745 34.1439 34.5655 35.6582 34.5655C36.5745 34.5655 37.2999 34.1173 37.758 33.4641Z" fill="white"/>
<path d="M42.4283 27.7912H44.5663L47.6078 35.8853H45.877L45.1135 33.7849H41.8938L41.1303 35.8853H39.3995L42.4283 27.7912ZM44.6044 32.3762L43.4973 29.3409L42.3901 32.3762H44.6044Z" fill="white"/>
<path d="M48.8549 27.7912H50.4838V35.8725H48.8549V27.7912Z" fill="white"/>
<path d="M53.1944 33.6562C53.678 34.2838 54.3143 34.6552 54.976 34.6552C55.625 34.6552 56.0068 34.3094 56.0068 33.7203C56.0068 32.2731 52.329 32.5932 52.329 29.9038C52.329 28.6231 53.3725 27.5601 54.8996 27.5601C56.1086 27.5601 57.0376 28.098 57.7121 28.9176L56.5158 29.9934C56.045 29.3787 55.5232 28.9945 54.9124 28.9945C54.3524 28.9945 53.9834 29.3659 53.9834 29.8397C53.9834 31.2869 57.6612 30.9539 57.6612 33.6818C57.6357 35.1803 56.4649 36.1024 55.0015 36.1024C53.6525 36.1024 52.7235 35.6029 52.0109 34.7448L53.1944 33.6562Z" fill="white"/>
<path d="M59.3665 27.7912H64.0496V29.1872H60.9954V31.057H63.5915V32.453H60.9954V34.4765H64.0496V35.8725H59.3665V27.7912Z" fill="white"/>
<path d="M26.1772 58.2079C26.3935 58.2079 26.5844 58.3744 26.4826 58.7971L25.4646 59.0404C25.6554 58.5537 25.9481 58.2079 26.1772 58.2079ZM26.7371 59.8472H26.5335C26.279 60.1546 26.0118 60.3851 25.7318 60.3851C25.4518 60.3851 25.3118 60.2186 25.3118 59.8472C25.3118 59.6936 25.3246 59.5399 25.3627 59.399L26.9917 58.8611C27.3098 58.1055 26.928 57.7725 26.4826 57.7725C25.7063 57.7725 24.8283 59.066 24.8283 60.2058C24.8283 60.7181 25.07 60.9999 25.4518 60.9999C25.91 60.9999 26.3681 60.5644 26.7371 59.8472ZM26.419 57.4651L27.5643 56.3893V56.2613H26.9408L26.2281 57.4651H26.419ZM22.8939 58.2336H23.4411L22.5758 60.6029C22.4994 60.8078 22.6012 60.9999 22.8176 60.9999C23.3011 60.9999 24.0902 60.5132 24.3701 59.8472H24.2174C24.0011 60.0778 23.5811 60.3851 23.2248 60.4492L24.0138 58.2207H24.8155L24.9173 57.8878H24.1283L24.4338 57.0297H24.1156L23.5557 57.8878L22.8939 57.9774V58.2336ZM22.1685 58.1183C22.2322 57.9006 22.0922 57.7725 21.9776 57.7725C21.5068 57.7725 20.9468 58.1951 20.7178 58.7971H20.8705C21.0232 58.5793 21.2777 58.336 21.5195 58.2976L20.616 60.6541C20.5396 60.8718 20.6923 60.9999 20.8069 60.9999C21.2523 60.9999 21.774 60.5644 22.0031 59.9753H21.8504C21.6977 60.193 21.4432 60.4364 21.2014 60.4748L22.1685 58.1183ZM22.334 56.9272C22.5503 56.9272 22.7285 56.7607 22.7285 56.5302C22.7285 56.3125 22.5503 56.1332 22.334 56.1332C22.1176 56.1332 21.9395 56.3125 21.9395 56.5302C21.9395 56.7607 22.1049 56.9272 22.334 56.9272ZM17.1418 60.5644C17.0273 60.8334 17.1418 60.9999 17.409 60.9999C17.5745 60.9999 17.6381 60.9615 17.7017 60.7822L18.3253 59.1172C18.618 58.7586 19.2034 58.3872 19.4452 58.3872C19.6106 58.3872 19.5979 58.5281 19.4834 58.7458L18.5289 60.6029C18.4398 60.7822 18.5544 60.9999 18.7707 60.9999C19.2416 60.9999 19.8015 60.5772 20.0306 59.9753H19.8524C19.6997 60.193 19.4452 60.4364 19.2034 60.4748L20.0306 58.7971C20.1324 58.5793 20.196 58.3872 20.196 58.2207C20.196 57.9518 20.0433 57.7725 19.7633 57.7725C19.3561 57.7725 18.9489 58.2336 18.4526 58.8099V58.3744C18.4526 58.0543 18.3508 57.7853 18.0708 57.7853C17.8926 57.7853 17.7272 57.939 17.5618 58.1567V58.2207C17.8672 58.2079 18.0072 58.669 17.7908 59.1557L17.1418 60.5644ZM17.1291 58.4897C17.2436 58.1055 17.18 57.7725 16.8873 57.7725C16.5437 57.7725 16.4546 58.0414 16.0983 58.8099V58.3744C16.0983 58.0543 15.9965 57.7853 15.7165 57.7853C15.3856 57.7853 15.0802 58.2976 14.8511 58.8099H15.0038C15.1693 58.5793 15.3093 58.4385 15.4238 58.4385C15.5638 58.4385 15.6401 58.6562 15.4238 59.1429L14.7875 60.5644C14.673 60.8334 14.7875 60.9999 15.0547 60.9999C15.2202 60.9999 15.2838 60.9615 15.3474 60.7822L15.971 59.1172C16.1492 58.8995 16.3019 58.7074 16.5055 58.4897H17.1291ZM13.5022 58.2079C13.7185 58.2079 13.9094 58.3744 13.8076 58.7971L12.7895 59.0404C12.9804 58.5537 13.2731 58.2079 13.5022 58.2079ZM14.0621 59.8472H13.8712C13.6167 60.1546 13.3495 60.3851 13.0695 60.3851C12.7895 60.3851 12.6495 60.2186 12.6495 59.8472C12.6495 59.6936 12.6623 59.5399 12.7004 59.399L14.3294 58.8611C14.6475 58.1055 14.2657 57.7725 13.8203 57.7725C13.044 57.7725 12.166 59.066 12.166 60.2058C12.166 60.7181 12.4078 60.9999 12.7895 60.9999C13.2349 60.9999 13.6931 60.5644 14.0621 59.8472ZM10.2189 58.2336H10.7661L9.90074 60.59C9.82439 60.795 9.92619 60.9871 10.1425 60.9871C10.6261 60.9871 11.4151 60.5004 11.6951 59.8344H11.5424C11.326 60.065 10.9061 60.3723 10.5498 60.4364L11.3388 58.2079H12.1405L12.2423 57.875H11.4533L11.7587 57.0169H11.4406L10.8806 57.875L10.2189 57.9646V58.2336ZM7.24102 60.0778C7.24102 59.3478 8.04276 58.3616 8.50089 58.3616C8.6027 58.3616 8.69178 58.3744 8.78086 58.4L8.31 59.6679C8.04276 60.0009 7.6228 60.3979 7.43191 60.3979C7.31738 60.3851 7.24102 60.2955 7.24102 60.0778ZM9.72258 57.6316L9.48079 57.6188L9.20082 57.8878H9.13719C7.78824 57.8878 6.63018 59.4118 6.63018 60.5132C6.63018 60.8206 6.82107 60.9999 7.11376 60.9999C7.45736 60.9999 7.80096 60.5004 8.18274 59.9625L8.17002 60.1546C8.11911 60.7053 8.28455 60.9999 8.56452 60.9999C8.89539 60.9999 9.20082 60.4876 9.42988 59.9753H9.27717C9.11173 60.2058 8.97175 60.3467 8.85722 60.3467C8.72996 60.3467 8.64087 60.1162 8.85722 59.6423L9.72258 57.6316ZM6.85925 58.4897C6.97378 58.1055 6.91015 57.7725 6.61745 57.7725C6.27385 57.7725 6.18477 58.0414 5.82844 58.8099V58.3744C5.82844 58.0543 5.72664 57.7853 5.44667 57.7853C5.11579 57.7853 4.81037 58.2976 4.5813 58.8099H4.73401C4.89945 58.5793 5.03944 58.4385 5.15397 58.4385C5.29396 58.4385 5.37031 58.6562 5.15397 59.1429L4.51767 60.5644C4.40314 60.8334 4.51767 60.9999 4.78492 60.9999C4.95036 60.9999 5.01399 60.9615 5.07762 60.7822L5.70119 59.1172C5.87935 58.8995 6.03206 58.7074 6.23567 58.4897H6.85925ZM2.34154 60.8846L2.40517 60.7053C1.61616 60.5516 1.52708 60.5516 1.8325 59.6936L2.15065 58.8099H3.01601C3.41052 58.8099 3.41052 58.9764 3.34689 59.399H3.57596L4.09772 57.9646H3.86865C3.67776 58.2976 3.52505 58.5537 3.09237 58.5537H2.23973L2.69787 57.2986C2.83785 56.9016 2.92693 56.812 3.4487 56.812H3.83047C4.37769 56.812 4.44132 56.9657 4.44132 57.5164H4.65766L4.83582 56.543H1.59071L1.52708 56.7223C2.16338 56.8504 2.21428 56.9144 1.92158 57.7341L1.20893 59.6807C0.916236 60.4876 0.788977 60.5644 0.063599 60.6925L0.0126953 60.8718H2.34154V60.8846Z" fill="white"/>
<path d="M18.2871 50.7925C18.5035 50.7925 18.6944 50.959 18.5926 51.3816L17.5745 51.625C17.7654 51.1511 18.0581 50.7925 18.2871 50.7925ZM18.8471 52.4446H18.6435C18.3889 52.752 18.1217 52.9825 17.8417 52.9825C17.5618 52.9825 17.4218 52.816 17.4218 52.4446C17.4218 52.2909 17.4345 52.1373 17.4727 51.9964L19.1016 51.4585C19.4197 50.7029 19.038 50.3699 18.5926 50.3699C17.8163 50.3699 16.9382 51.6634 16.9382 52.8032C16.9382 53.3155 17.18 53.5973 17.5618 53.5973C18.0199 53.5845 18.478 53.149 18.8471 52.4446ZM18.5289 50.0497L19.6743 48.9739V48.8458H19.0507L18.338 50.0497H18.5289ZM15.0038 50.8181H15.5511L14.6857 53.1874C14.6093 53.3924 14.7111 53.5845 14.9275 53.5845C15.4111 53.5845 16.2001 53.0978 16.48 52.4318H16.3273C16.111 52.6624 15.691 52.9697 15.3347 53.0338L16.1237 50.8053H16.9255L17.0273 50.4723H16.2383L16.5437 49.6143H16.2255L15.6656 50.4723L15.0038 50.562V50.8181ZM14.2785 50.7029C14.3421 50.4852 14.2021 50.3571 14.0876 50.3571C13.6167 50.3571 13.0568 50.7797 12.8277 51.3816H12.9804C13.1331 51.1639 13.3876 50.9206 13.6294 50.8822L12.7259 53.2387C12.6495 53.4564 12.8023 53.5845 12.9168 53.5845C13.3622 53.5845 13.884 53.149 14.113 52.5599H13.9603C13.8076 52.7776 13.5531 53.021 13.3113 53.0594L14.2785 50.7029ZM14.4312 49.5118C14.6475 49.5118 14.8257 49.3453 14.8257 49.1148C14.8257 48.8971 14.6475 48.7178 14.4312 48.7178C14.2148 48.7178 14.0367 48.8971 14.0367 49.1148C14.0494 49.3453 14.2148 49.5118 14.4312 49.5118ZM11.3006 53.0594L12.9422 48.7178L12.8913 48.6537L11.8605 48.769V48.8971L12.0642 49.0508C12.2423 49.1916 12.1914 49.3325 12.026 49.768L10.7407 53.1746C10.6516 53.3539 10.7661 53.5717 10.9824 53.5717C11.4533 53.5717 11.9496 53.149 12.1787 52.5471H12.026C11.8605 52.7776 11.5424 53.021 11.3006 53.0594ZM8.18274 52.6624C8.18274 51.9324 8.98448 50.9462 9.44261 50.9462C9.54442 50.9462 9.6335 50.959 9.72258 50.9846L9.25172 52.2525C8.98448 52.5855 8.56452 52.9825 8.37363 52.9825C8.24637 52.9697 8.18274 52.8801 8.18274 52.6624ZM10.6643 50.2162L10.4225 50.2034L10.1425 50.4723H10.0789C8.72996 50.4723 7.5719 51.9964 7.5719 53.0978C7.5719 53.4052 7.76279 53.5845 8.05548 53.5845C8.39908 53.5845 8.74268 53.085 9.12446 52.5471L9.11174 52.7392C9.06083 53.2899 9.22627 53.5845 9.50624 53.5845C9.83711 53.5845 10.1425 53.0722 10.3716 52.5599H10.2189C10.0535 52.7904 9.91347 52.9313 9.79894 52.9313C9.67168 52.9313 9.5826 52.7008 9.79894 52.2269L10.6643 50.2162ZM4.65766 54.1608C4.65766 53.8406 4.96308 53.6485 5.38304 53.482C5.52302 53.5588 5.73936 53.6357 6.01934 53.7253C6.46474 53.879 6.64291 53.9303 6.64291 54.0711C6.64291 54.3657 6.15932 54.5834 5.48485 54.5834C4.93763 54.5706 4.65766 54.4553 4.65766 54.1608ZM5.87935 52.2397C5.68846 52.2397 5.61211 52.0732 5.61211 51.8811C5.61211 51.356 5.89208 50.5748 6.33748 50.5748C6.52837 50.5748 6.60473 50.7413 6.60473 50.9334C6.60473 51.4713 6.32476 52.2397 5.87935 52.2397ZM7.16467 53.8662C7.16467 53.482 6.8338 53.3539 6.28658 53.1874C5.81572 53.0466 5.59938 53.0081 5.59938 52.8545C5.59938 52.7264 5.70119 52.5855 5.9048 52.4702C6.68108 52.4318 7.17739 51.7274 7.17739 51.1383C7.17739 51.0102 7.15194 50.9078 7.11377 50.8181H7.76279L7.86459 50.4852H6.82107C6.69381 50.4083 6.55382 50.3699 6.40111 50.3699C5.58665 50.3699 5.05216 51.0871 5.05216 51.6762C5.05216 52.1245 5.33213 52.3934 5.67573 52.4702C5.29396 52.6367 5.07762 52.8417 5.07762 53.085C5.07762 53.2259 5.12852 53.3155 5.24305 53.4052C4.36496 53.6613 4.00864 53.9687 4.00864 54.3785C4.00864 54.7883 4.54313 54.9548 5.17942 54.9548C6.26113 54.942 7.16467 54.3657 7.16467 53.8662ZM3.04147 51.3304C3.43597 51.3304 3.43597 51.4969 3.37234 51.9195H3.60141L4.12317 50.4852H3.8941C3.70322 50.8181 3.5505 51.0743 3.11782 51.0743H2.26519L2.69787 49.8832C2.83785 49.4862 2.92693 49.4094 3.4487 49.4094H3.83047C4.37769 49.4094 4.44132 49.563 4.44132 50.1138H4.65766L4.83582 49.1404H1.59071L1.52708 49.3197C2.16338 49.4478 2.21428 49.5118 1.92159 50.3315L1.20893 52.2781C0.916236 53.085 0.788977 53.1618 0.063599 53.2899L0.0126953 53.4692H3.62686L4.27588 52.4318H4.03409C3.62686 52.8288 3.1051 53.2002 2.37972 53.2002C1.42527 53.2002 1.50163 53.1618 1.81978 52.2781L2.16338 51.3304H3.04147ZM3.51233 48.8458L4.65766 48.0518V47.9237H3.95773L3.32144 48.8458H3.51233Z" fill="white"/>
<path d="M17.9054 43.3775C18.1217 43.3775 18.3126 43.544 18.2108 43.9666L17.1927 44.21C17.3836 43.7361 17.6763 43.3775 17.9054 43.3775ZM18.4653 45.0296H18.2617C18.0072 45.337 17.7399 45.5675 17.4599 45.5675C17.18 45.5675 17.04 45.401 17.04 45.0296C17.04 44.8759 17.0527 44.7223 17.0909 44.5814L18.7198 44.0435C19.038 43.2879 18.6562 42.9549 18.2108 42.9549C17.4345 42.9549 16.5564 44.2484 16.5564 45.3882C16.5564 45.9005 16.7982 46.1823 17.18 46.1823C17.6254 46.1695 18.0962 45.734 18.4653 45.0296ZM18.1471 42.6475L19.2925 41.5717V41.4436H18.6689L17.9563 42.6475H18.1471ZM14.762 43.4031H15.1947L14.3294 45.7724C14.253 45.9773 14.3548 46.1695 14.5712 46.1695C15.0547 46.1695 15.8438 45.6828 16.1237 45.0168H15.971C15.7547 45.2473 15.3347 45.5547 14.9784 45.6188L15.7674 43.3903H16.5691L16.6709 43.0573H15.8819L16.1874 42.1993H15.8692L15.3093 43.0573L14.7493 43.147V43.4031H14.762ZM14.3421 43.6721C14.4566 43.2879 14.393 42.9549 14.1003 42.9549C13.7567 42.9549 13.6676 43.2238 13.3113 43.9923V43.5568C13.3113 43.2366 13.2095 42.9677 12.9295 42.9677C12.5986 42.9677 12.2932 43.48 12.0642 43.9923H12.2169C12.3823 43.7617 12.5223 43.6208 12.6368 43.6208C12.7768 43.6208 12.8532 43.8386 12.6368 44.3252L12.0005 45.7468C11.886 46.0158 12.0005 46.1823 12.2678 46.1823C12.4332 46.1823 12.4968 46.1438 12.5605 45.9645L13.184 44.2996C13.3622 44.0819 13.5149 43.8898 13.7185 43.6721H14.3421ZM10.7279 43.3775C10.9443 43.3775 11.1352 43.544 11.0333 43.9666L10.0153 44.21C10.1934 43.7361 10.4861 43.3775 10.7279 43.3775ZM11.2879 45.0296H11.0843C10.8297 45.337 10.5625 45.5675 10.2825 45.5675C10.0026 45.5675 9.86257 45.401 9.86257 45.0296C9.86257 44.8759 9.87529 44.7223 9.91347 44.5814L11.5424 44.0435C11.8605 43.2879 11.4788 42.9549 11.0333 42.9549C10.2571 42.9549 9.37898 44.2484 9.37898 45.3882C9.37898 45.9005 9.62077 46.1823 10.0026 46.1823C10.448 46.1695 10.9061 45.734 11.2879 45.0296ZM7.2792 45.6956C7.11376 45.6956 6.8847 45.5419 6.8847 45.4138C6.8847 45.3754 6.96105 45.1833 7.05014 44.9528L7.31738 44.2484C7.59735 43.9154 8.03003 43.544 8.27182 43.544C8.42453 43.544 8.52634 43.6337 8.52634 43.8642C8.52634 44.5045 7.92822 45.6956 7.2792 45.6956ZM9.13719 43.608C9.13719 43.1214 8.95902 42.9549 8.62815 42.9549C8.22092 42.9549 7.82642 43.3903 7.43191 43.9282L8.41181 41.3284L8.3609 41.2644L7.3301 41.3796V41.5077L7.53372 41.6614C7.71188 41.8022 7.66098 41.9559 7.49554 42.3786L6.43929 45.1321C6.36293 45.337 6.27385 45.5675 6.27385 45.6316C6.27385 45.9133 6.65563 46.1823 6.99923 46.1823C7.80096 46.1695 9.13719 44.7223 9.13719 43.608ZM5.93025 43.2879C5.99388 43.0701 5.8539 42.9421 5.73936 42.9421C5.2685 42.9421 4.70856 43.3647 4.4795 43.9666H4.63221C4.78492 43.7489 5.03944 43.5056 5.28123 43.4672L4.37769 45.8237C4.30133 46.0414 4.45405 46.1695 4.56858 46.1695C5.01399 46.1695 5.53575 45.734 5.76482 45.1449H5.6121C5.45939 45.3626 5.20487 45.6059 4.96308 45.6444L5.93025 43.2879ZM6.09569 42.0968C6.31203 42.0968 6.49019 41.9303 6.49019 41.6998C6.49019 41.4821 6.31203 41.3028 6.09569 41.3028C5.87935 41.3028 5.70119 41.4821 5.70119 41.6998C5.71391 41.9303 5.87935 42.0968 6.09569 42.0968ZM3.72867 41.7254H1.57798L1.51435 41.9047C2.15065 42.0328 2.20156 42.0968 1.90886 42.9165L1.20893 44.8631C0.916236 45.67 0.788977 45.7468 0.063599 45.8749L0.0126953 46.0542H3.28326L3.99591 44.7863H3.75412C3.35961 45.2345 2.87603 45.7852 2.16338 45.7852C1.61616 45.7852 1.55253 45.6956 1.84523 44.8631L2.54516 42.9165C2.83785 42.1096 2.96511 42.0328 3.69049 41.9047L3.72867 41.7254Z" fill="white"/>
<path d="M12.1278 9.49003C12.2423 9.37477 12.3569 9.2467 12.4714 9.13143C12.6878 8.8881 12.8914 8.65757 13.1459 8.43985C13.2222 8.37582 13.2986 8.31178 13.3622 8.26055C13.3877 8.23494 13.3877 8.19652 13.4004 8.18371C13.2986 8.22213 13.235 8.31178 13.1332 8.3502C13.1077 8.3502 13.095 8.32459 13.1077 8.31178C13.1841 8.26055 13.2477 8.20933 13.324 8.14529H13.3113C13.2859 8.14529 13.2859 8.11968 13.2859 8.10687C13.0186 8.06845 12.8277 8.24775 12.6368 8.41424C12.5987 8.43985 12.5605 8.38863 12.535 8.38863C12.2296 8.49108 12.0133 8.76003 11.7079 8.87529C11.7079 8.84968 11.7079 8.84968 11.7079 8.83687C11.5806 8.87529 11.4661 8.95214 11.3388 8.97775C11.1606 9.01617 10.9952 9.00336 10.8298 9.00336C10.588 9.02898 10.3462 9.08021 10.0917 9.13143C10.0789 9.13143 10.0789 9.13143 10.0662 9.13143C9.93895 9.16986 9.81169 9.22108 9.68443 9.28512C9.68443 9.28512 9.67171 9.28512 9.67171 9.29793C9.65898 9.31073 9.64625 9.32354 9.64625 9.33635C9.60808 9.38758 9.5699 9.426 9.50627 9.45161C9.37901 9.51565 9.2772 9.63091 9.17539 9.72056C9.16267 9.73337 9.14994 9.73337 9.13722 9.73337C9.02268 9.83582 8.92088 9.93828 8.80634 10.0407C8.79362 10.0535 8.76816 10.0535 8.74271 10.0535C8.74271 10.0407 8.75544 10.0407 8.75544 10.0279C8.76816 10.0023 8.79362 9.9767 8.80634 9.93828C8.83179 9.91266 8.84452 9.87424 8.86997 9.84863C8.89542 9.81021 8.92088 9.75898 8.95905 9.72056C8.97178 9.70775 8.95905 9.69494 8.95905 9.69494C8.94633 9.68214 8.94633 9.68214 8.9336 9.68214C9.03541 9.57968 9.14994 9.50284 9.2772 9.426C9.26448 9.426 9.23902 9.426 9.25175 9.40038C9.26448 9.38758 9.2772 9.36196 9.28993 9.34915C9.28993 9.34915 9.28993 9.33635 9.30265 9.33635L9.28993 9.32354C9.25175 9.34915 9.2263 9.36196 9.20085 9.38758C9.14994 9.426 9.11176 9.51565 9.03541 9.51565C9.03541 9.51565 9.02268 9.51565 9.00996 9.51565C8.99723 9.51565 8.99723 9.51565 8.98451 9.50284C8.98451 9.50284 8.9845 9.49003 8.99723 9.49003L9.00996 9.47723C9.00996 9.47723 9.00996 9.46442 9.02268 9.46442C9.02268 9.45161 9.03541 9.45161 9.03541 9.4388L9.04813 9.426C9.06086 9.41319 9.06086 9.40038 9.07359 9.38758C9.07359 9.37477 9.08631 9.37477 9.08631 9.36196C9.09904 9.34915 9.09904 9.33635 9.11176 9.32354C9.12449 9.31073 9.11176 9.29793 9.09904 9.28512C9.13722 9.23389 9.18812 9.19547 9.23902 9.16986C9.31538 9.13143 9.39174 9.08021 9.46809 9.04178C9.48082 9.02898 9.49354 9.01617 9.50627 9.01617C9.39174 9.05459 9.28993 9.10582 9.18812 9.16986C9.18812 9.16986 9.16267 9.18266 9.14994 9.18266C9.14994 9.18266 9.12449 9.19547 9.09904 9.16986V9.15705C9.12449 9.11863 9.17539 9.09301 9.2263 9.05459C9.25175 9.05459 9.26448 9.05459 9.26448 9.08021C9.9135 8.56792 10.7916 8.69599 11.5424 8.42705C11.606 8.38862 11.6697 8.3502 11.7206 8.29897C11.8224 8.26055 11.8987 8.1581 12.026 8.09406C12.1914 7.96599 12.306 7.82511 12.3696 7.63301C12.3696 7.60739 12.3442 7.59459 12.3442 7.59459C12.0769 7.87634 11.7842 8.10687 11.4533 8.26055C11.0334 8.47827 10.5625 8.43985 10.1171 8.50389C10.1426 8.46547 10.1807 8.46547 10.2189 8.46547C10.2189 8.40143 10.2571 8.38862 10.2953 8.3374C10.3207 8.3374 10.3335 8.3374 10.3589 8.3374C10.3844 8.3374 10.3844 8.29897 10.3971 8.29897C10.4353 8.29897 10.4989 8.27336 10.4734 8.27336C10.4098 8.19652 10.2953 8.3374 10.1935 8.27336C10.2316 8.23494 10.2189 8.1709 10.2571 8.14529C10.2825 8.14529 10.3207 8.14529 10.3335 8.14529C10.3335 8.10687 10.3716 8.06845 10.3716 8.06845C10.6771 7.88915 10.957 7.74827 11.237 7.58178C11.1734 7.58178 11.1352 7.64581 11.0716 7.60739C11.1097 7.60739 11.0716 7.54336 11.1097 7.54336C11.3261 7.47932 11.517 7.36406 11.7333 7.27441C11.6569 7.27441 11.5933 7.33845 11.517 7.27441C11.5551 7.2488 11.5806 7.21038 11.6442 7.21038C11.6442 7.18476 11.6442 7.17195 11.6442 7.14634C11.6442 7.12073 11.6697 7.12073 11.6824 7.12073C11.657 7.12073 11.6442 7.09511 11.6442 7.09511C11.6697 7.05669 11.7206 7.0695 11.7715 7.03108C11.746 7.03108 11.7079 7.03108 11.7079 7.00546C11.7715 6.92862 11.8733 6.90301 11.9751 6.87739C11.9496 6.83897 11.8987 6.87739 11.8987 6.83897C11.8987 6.81336 11.9242 6.81336 11.9369 6.81336C11.9115 6.81336 11.9115 6.81336 11.8987 6.81336C11.8606 6.78774 11.8733 6.74932 11.8733 6.73651C12.0006 6.59564 12.0006 6.41634 12.0515 6.24985C12.026 6.24985 12.0133 6.24985 12.0133 6.22423C11.8097 6.44195 11.4915 6.5316 11.1861 6.60844C11.1606 6.60844 11.1097 6.60844 11.0843 6.60844C10.9825 6.64686 10.8425 6.64686 10.7407 6.58283C10.6643 6.54441 10.6134 6.48037 10.5371 6.41634C10.3716 6.31388 10.2189 6.23704 10.028 6.173C9.519 6.00651 8.99723 5.92967 8.47547 5.95528C8.69181 5.82721 8.94633 5.82721 9.17539 5.75037C9.51899 5.64791 9.83714 5.53265 10.2062 5.54546C10.1426 5.51984 10.0662 5.54546 10.0026 5.54546C9.72261 5.51984 9.44264 5.60949 9.13722 5.67353C8.9336 5.71195 8.75544 5.8016 8.55182 5.84002C8.42456 5.87844 8.37366 6.00651 8.23368 5.9809C8.23368 5.9809 8.23368 5.94248 8.23368 5.91686C8.43729 5.67353 8.67908 5.43019 8.99723 5.40458C9.36628 5.34054 9.69716 5.40458 10.0662 5.443C10.3335 5.46862 10.5752 5.51984 10.8298 5.58388C10.9316 5.58388 10.957 5.75037 11.0334 5.76318C11.1606 5.8016 11.2752 5.76318 11.4024 5.84002C11.4024 5.8016 11.377 5.76318 11.4024 5.71195C11.4788 5.63511 11.5806 5.73756 11.6697 5.68633C11.8351 5.58388 11.5297 5.40458 11.4533 5.2637C11.4533 5.23809 11.4788 5.22528 11.4788 5.22528C11.6442 5.36616 11.7588 5.53265 11.9624 5.63511C12.0642 5.67353 12.306 5.73756 12.2678 5.60949C12.166 5.39177 11.9624 5.19967 11.8097 4.99475C11.8097 4.96914 11.8097 4.93072 11.8097 4.91791C11.7715 4.91791 11.7715 4.8923 11.746 4.87949C11.746 4.85388 11.746 4.81545 11.746 4.80265C11.6697 4.76423 11.6824 4.67458 11.6442 4.62335C11.5806 4.52089 11.6188 4.38001 11.5806 4.25194C11.5424 4.12387 11.517 4.03422 11.5042 3.90615C11.4533 3.58598 11.377 3.27861 11.3261 2.95843C11.2879 2.57422 11.5424 2.26685 11.7333 1.92106C11.8733 1.67772 12.0387 1.43439 12.2932 1.2679C12.3569 1.02456 12.5096 0.819652 12.675 0.614739C12.8405 0.422633 13.1077 0.294562 13.2986 0.204913C13.5786 0.0768424 13.8331 0 13.8331 0H0V10.7451H9.79896C10.1807 10.4634 10.5625 10.3353 11.097 10.0663C11.3643 9.95109 11.9369 9.68214 12.1278 9.49003ZM9.03541 8.03003C8.99723 8.03003 8.90815 8.05564 8.9336 8.00441C8.95905 7.90196 9.09904 7.90196 9.17539 7.86353C9.21357 7.83792 9.2772 7.7995 9.31538 7.82511C9.35356 7.88915 9.41719 7.86353 9.45537 7.90196C9.34083 8.03003 9.17539 7.96599 9.03541 8.03003ZM5.94301 7.58178C5.94301 7.58178 5.91756 7.55617 5.91756 7.54336C6.1848 7.19757 6.37569 6.87739 6.56658 6.50599C6.83382 6.36511 7.05016 6.1602 7.25378 5.94248C7.59738 5.57107 7.95371 5.25089 8.38639 5.04598C8.55182 4.98195 8.75544 5.00756 8.90815 5.0716C8.84452 5.14844 8.74271 5.13563 8.66636 5.19967C8.64091 5.19967 8.62818 5.19967 8.60273 5.17405C8.62818 5.14844 8.62818 5.13563 8.62818 5.11002C8.42457 5.32774 8.14459 5.43019 7.97916 5.69914C7.8519 5.90406 7.77554 6.1602 7.52102 6.22423C7.44467 6.24985 7.54648 6.1602 7.49557 6.18581C6.872 6.57002 6.42659 7.04388 5.94301 7.58178ZM7.62283 6.24985C7.59738 6.28827 7.58465 6.30107 7.5592 6.32669C7.53375 6.36511 7.52102 6.39072 7.48285 6.40353C7.45739 6.40353 7.44467 6.40353 7.44467 6.37792C7.47012 6.30107 7.52102 6.21142 7.61011 6.19862C7.62283 6.21142 7.62283 6.22423 7.62283 6.24985ZM8.55182 9.28512C8.5391 9.31073 8.52637 9.32354 8.50092 9.34915C8.52637 9.34915 8.5391 9.36196 8.52637 9.37477C8.47547 9.41319 8.43729 9.46442 8.37366 9.47723C8.37366 9.47723 8.36094 9.47723 8.34821 9.47723C8.32276 9.50284 8.29731 9.52845 8.27185 9.55407C8.2464 9.57968 8.13187 9.55407 8.17005 9.52845C8.22095 9.47723 8.27185 9.4388 8.32276 9.38758C8.34821 9.36196 8.38639 9.33635 8.41184 9.31073C8.42456 9.29793 8.43729 9.27231 8.45002 9.2595C8.46274 9.2595 8.57728 9.2467 8.55182 9.28512ZM8.1955 9.11863C8.11914 9.16986 8.04279 9.23389 7.96643 9.27231C7.87735 9.32354 7.78827 9.36196 7.69919 9.40038C7.68646 9.38758 7.67374 9.38758 7.66101 9.38758C7.58465 9.426 7.52102 9.49003 7.45739 9.54126C7.44467 9.55407 7.44467 9.55407 7.43194 9.56687C7.41922 9.57968 7.40649 9.57968 7.40649 9.59249C7.39376 9.6053 7.38104 9.6181 7.36831 9.64372C7.35559 9.65652 7.35559 9.66933 7.34286 9.66933C7.33013 9.68214 7.29196 9.68214 7.30468 9.65652C7.29196 9.65652 7.27923 9.66933 7.2665 9.66933C7.25378 9.66933 7.24105 9.68214 7.24105 9.68214H7.22833H7.2156C7.19015 9.70775 7.1647 9.72056 7.13925 9.74617C7.10107 9.78459 7.06289 9.82302 7.02471 9.87424C7.02471 9.87424 7.02471 9.87424 7.02471 9.88705C7.02471 9.88705 7.02471 9.88705 7.01199 9.89986C7.01199 9.91266 6.99926 9.91267 6.99926 9.92547L6.98654 9.93828C6.98654 9.93828 6.98653 9.92547 6.97381 9.92547V9.91267C6.97381 9.89986 6.96108 9.88705 6.96108 9.87424V9.86144C6.98653 9.83582 6.99926 9.81021 7.02471 9.78459C7.03744 9.77179 7.03744 9.77179 7.05016 9.75898C7.06289 9.74617 7.07562 9.73337 7.08834 9.72056L7.10107 9.70775C7.12652 9.68214 7.13925 9.65652 7.1647 9.6181C7.1647 9.6181 7.1647 9.6053 7.17742 9.6053C7.19015 9.59249 7.19015 9.57968 7.20288 9.56687C7.2156 9.55407 7.2156 9.54126 7.22833 9.52845C7.22833 9.52845 7.22833 9.52845 7.22833 9.51565C7.24105 9.50284 7.24105 9.49003 7.25378 9.46442V9.45161C7.25378 9.4388 7.25378 9.4388 7.25378 9.426C7.25378 9.41319 7.25378 9.40038 7.2665 9.40038V9.38758C7.29196 9.34915 7.31741 9.31073 7.34286 9.27231C7.34286 9.27231 7.34286 9.27231 7.33013 9.27231C7.30468 9.28512 7.27923 9.31073 7.25378 9.33635C7.22833 9.34915 7.19015 9.32354 7.2156 9.31073C7.22833 9.29793 7.24105 9.28512 7.2665 9.27231C7.30468 9.23389 7.33013 9.19547 7.36831 9.16986C7.39376 9.15705 7.40649 9.14424 7.43194 9.11863C7.43194 9.11863 7.43194 9.11863 7.44467 9.10582C7.45739 9.09301 7.47012 9.0674 7.49557 9.05459C7.68646 8.86249 8.01733 8.87529 8.27185 8.76003C8.37366 8.72161 8.48819 8.78564 8.59 8.76003C8.65363 8.76003 8.71726 8.76003 8.76816 8.79845C8.52637 8.90091 8.36094 9.01617 8.1955 9.11863ZM8.60273 7.70985C8.57728 7.68424 8.66636 7.70985 8.67908 7.67143C8.61545 7.67143 8.57728 7.67143 8.51365 7.67143C8.48819 7.67143 8.48819 7.64581 8.48819 7.63301C8.38639 7.65862 8.27185 7.69704 8.17005 7.70985C8.03006 7.74827 7.9028 7.85073 7.75009 7.88915C7.53375 7.96599 7.34286 8.1581 7.10107 8.23494C7.07562 8.23494 7.07562 8.20933 7.07562 8.19652C7.10107 8.13248 7.17742 8.11968 7.2156 8.05564C7.2156 8.03003 7.2156 8.01722 7.19015 8.01722C7.35559 7.7995 7.57193 7.67143 7.77554 7.49213C7.77554 7.46652 7.77554 7.45371 7.77554 7.4281C7.83917 7.35125 7.94098 7.30002 7.97916 7.21038C8.00461 7.14634 8.08097 7.0695 8.18277 7.03108C8.15732 7.00546 8.11914 7.00546 8.11914 6.96704C8.04279 6.96704 7.95371 7.00546 7.87735 6.94143C7.91553 6.90301 7.95371 6.87739 8.00461 6.86458C7.99188 6.86458 7.96643 6.85178 7.95371 6.83897C7.92825 6.80055 7.99188 6.74932 8.05551 6.73651C8.13187 6.7109 8.23368 6.7109 8.29731 6.65967C8.15732 6.63406 7.99188 6.69809 7.8519 6.62125C7.95371 6.3523 8.11914 6.13458 8.36093 6.00651C8.38639 6.00651 8.42456 6.00651 8.42456 6.03213C8.42456 6.13458 8.36094 6.21142 8.25913 6.23704C8.42456 6.27546 8.57728 6.27546 8.74271 6.36511C8.71726 6.40353 8.67908 6.39072 8.66636 6.39072C8.76816 6.45476 8.8827 6.41634 8.98451 6.49318C8.92088 6.55721 8.85725 6.49318 8.80634 6.49318C9.42991 6.67248 10.0917 6.81336 10.6262 7.22318C10.1807 7.4409 9.72261 7.54336 9.23902 7.64581C9.17539 7.64581 9.13722 7.64582 9.07359 7.6202C9.07359 7.64582 9.07359 7.68424 9.04813 7.68424C8.97178 7.68424 8.90815 7.68424 8.84452 7.72266C8.79362 7.74827 8.66636 7.77389 8.60273 7.70985Z" fill="white"/>
<path d="M29.346 0.0124664H17.8672C17.8672 0.0124664 17.8927 0.0124664 17.9817 0.0636947C18.0708 0.114923 18.1981 0.178958 18.2744 0.217379C18.4272 0.294222 18.5671 0.396678 18.6562 0.537556C18.6944 0.601591 18.758 0.716855 18.7198 0.806504C18.6817 0.908961 18.6562 1.07545 18.5544 1.11387C18.4272 1.17791 18.2744 1.17791 18.1345 1.15229C18.0581 1.15229 17.969 1.12668 17.8927 1.11387C18.1981 1.24194 18.4781 1.38282 18.6817 1.66458C18.7071 1.703 18.7835 1.72861 18.8598 1.72861C18.8853 1.72861 18.8853 1.76703 18.8853 1.79265C18.8471 1.83107 18.8089 1.85668 18.8217 1.92072C18.8471 1.92072 18.8598 1.92072 18.8853 1.92072C18.9871 1.8823 18.9616 1.67738 19.1016 1.74142C19.2034 1.80545 19.2416 1.94633 19.178 2.04879C19.1016 2.12563 19.0125 2.18967 18.9362 2.2537C18.9107 2.29212 18.9107 2.35616 18.9362 2.39458C18.9998 2.47142 19.0125 2.56107 19.038 2.63791C19.1016 2.77879 19.1144 2.94528 19.178 3.08616C19.2543 3.39353 19.3434 3.7009 19.318 3.99546C19.318 4.16195 19.2416 4.30283 19.2925 4.45652C19.3307 4.62301 19.4325 4.73827 19.5089 4.87915C19.5852 5.00722 19.6743 5.08406 19.7252 5.19933C19.8525 5.40424 20.0688 5.60915 19.967 5.85249C19.9034 5.99336 19.687 5.98056 19.547 6.0574C19.4198 6.15985 19.5216 6.32635 19.5852 6.4288C19.687 6.6081 19.458 6.73617 19.318 6.80021C19.3561 6.86424 19.4452 6.83863 19.4579 6.87705C19.4834 6.97951 19.5852 7.04354 19.5216 7.146C19.4452 7.27407 19.2034 7.3253 19.318 7.5174C19.3943 7.65828 19.3434 7.81197 19.2925 7.96565C19.2289 8.14495 19.0762 8.2346 18.9235 8.27302C18.7962 8.31144 18.6562 8.31144 18.5417 8.29863C18.5035 8.27302 18.4653 8.26021 18.4144 8.26021C18.0708 8.22179 17.7272 8.11934 17.3836 8.11934C17.2818 8.14495 17.18 8.15776 17.1037 8.19618C17.0146 8.26021 16.9255 8.33706 16.8619 8.4139C16.8491 8.4267 16.8364 8.45232 16.8237 8.46513C16.811 8.47793 16.811 8.49074 16.7982 8.49074C16.7982 8.50355 16.7855 8.50355 16.7855 8.51635C16.7219 8.5932 16.671 8.67004 16.6328 8.74688C16.6328 8.74688 16.6328 8.75969 16.6201 8.75969C16.6201 8.7725 16.6073 8.7725 16.6073 8.7853C16.5437 8.91337 16.4928 9.02864 16.4546 9.15671C16.3146 9.61776 16.3783 10.0148 16.4674 10.1172C16.4928 10.1429 17.1291 10.3478 17.5745 10.5399C17.7781 10.6295 17.9308 10.7064 18.0454 10.7832H29.3205V0.0124664H29.346Z" fill="white"/>
<path d="M18.5544 3.93156C18.6307 3.95717 18.758 3.95717 18.758 3.9956C18.7198 4.16209 18.478 4.20051 18.3508 4.367H18.2871C18.2235 4.40542 18.249 4.50788 18.1853 4.50788C18.1217 4.48226 18.0581 4.50788 18.0072 4.53349C18.0835 4.61033 18.1853 4.67437 18.3126 4.66156C18.338 4.66156 18.3762 4.69998 18.3762 4.73841C18.3762 4.73841 18.4017 4.73841 18.4144 4.71279C18.4399 4.71279 18.4526 4.71279 18.4526 4.73841V4.81525C18.389 4.89209 18.2871 4.85367 18.2108 4.87928C18.3762 4.9177 18.5289 4.9177 18.6689 4.87928C18.7962 4.84086 18.6689 4.63595 18.7453 4.53349C18.7071 4.53349 18.7453 4.46946 18.7071 4.46946C18.7453 4.43104 18.7835 4.367 18.8344 4.34139C18.8725 4.34139 18.9362 4.31577 18.9616 4.27735C18.9616 4.23893 18.8853 4.21332 18.898 4.17489C19.0252 4.09805 19.1143 3.96998 19.0761 3.85472C19.0507 3.79068 18.898 3.79068 18.7962 3.75226C18.6944 3.71384 18.5798 3.75226 18.4526 3.77788C18.3508 3.77788 18.249 3.84191 18.1472 3.85472C18.0072 3.89314 17.8799 3.98279 17.7654 4.05963C17.9054 3.9956 18.0454 3.98279 18.2108 3.93156C18.3253 3.93156 18.4271 3.90595 18.5544 3.93156Z" fill="white"/>
</svg>
