<svg width="71" height="66" viewBox="0 0 71 66" fill="none" xmlns="http://www.w3.org/2000/svg">
<path d="M6.17866 52.0504H3.90806V58.8085H2.24877V52.0504H0V50.4692H6.20049L6.17866 52.0504ZM12.3355 57.2489V58.8085H7.2048V50.4692H12.3355V52.0287H8.84225V53.8049H12.0298V55.3428H8.84225V57.2056H12.3355V57.2489ZM16.6147 55.906H15.3484V58.8085H13.6891V50.4692H17.0514C18.6015 50.4692 19.8459 51.7255 19.8459 53.2417C19.8459 54.3031 19.191 55.2345 18.2303 55.6677L20.0861 58.8085H18.2958L16.6147 55.906ZM15.3484 54.4764H17.0514C17.6845 54.4764 18.2085 53.9132 18.2085 53.2201C18.2085 52.5269 17.6845 51.9854 17.0514 51.9854H15.3484V54.4764ZM24.1033 55.906H22.837V58.8085H21.1777V50.4692H24.54C26.0901 50.4692 27.3346 51.7255 27.3346 53.2417C27.3346 54.3031 26.6796 55.2345 25.7189 55.6677L27.5747 58.8085H25.7844L24.1033 55.906ZM22.837 54.4764H24.54C25.1731 54.4764 25.6971 53.9132 25.6971 53.2201C25.6971 52.5269 25.1731 51.9854 24.54 51.9854H22.837V54.4764ZM30.3475 50.4692V58.8085H28.6882V50.4692H30.3475ZM37.5741 52.0504H35.3035V58.8085H33.6442V52.0504H31.3954V50.4692H37.5959V52.0504H37.5741ZM37.7488 54.6497C37.7488 52.202 39.67 50.3176 42.0935 50.3176C44.5169 50.3176 46.46 52.202 46.46 54.6497C46.46 57.0756 44.5169 58.9818 42.0935 58.9818C39.6919 58.9818 37.7488 57.0756 37.7488 54.6497ZM44.8226 54.6497C44.8226 53.0468 43.6218 51.8988 42.1153 51.8988C40.6089 51.8988 39.4081 53.0468 39.4081 54.6497C39.4081 56.2309 40.6089 57.3789 42.1153 57.3789C43.6218 57.3789 44.8226 56.2309 44.8226 54.6497ZM49.4074 50.4692V58.8085H47.7482V50.4692H49.4074ZM54.036 55.906H52.7697V58.8085H51.1104V50.4692H54.4726C56.0228 50.4692 57.2672 51.7255 57.2672 53.2417C57.2672 54.3031 56.6122 55.2345 55.6516 55.6677L57.5074 58.8085H55.7171L54.036 55.906ZM52.7478 54.4764H54.4508C55.0839 54.4764 55.6079 53.9132 55.6079 53.2201C55.6079 52.5269 55.0839 51.9854 54.4508 51.9854H52.7478V54.4764ZM63.7297 57.2489V58.8085H58.599V50.4692H63.7297V52.0287H60.2365V53.8049H63.424V55.3428H60.2365V57.2056H63.7297V57.2489ZM64.6467 56.924L66.044 56.1009C66.3496 56.8807 66.9391 57.3789 67.9652 57.3789C68.9696 57.3789 69.297 56.9673 69.297 56.4908C69.297 55.8626 68.7294 55.6244 67.4849 55.2561C66.1968 54.8879 64.9523 54.3464 64.9523 52.7652C64.9523 51.2056 66.2841 50.2959 67.7251 50.2959C69.1006 50.2959 70.1704 51.0107 70.738 52.1587L69.3625 52.9601C69.0569 52.332 68.5984 51.8771 67.7688 51.8771C67.0701 51.8771 66.6553 52.2453 66.6553 52.7219C66.6553 53.2417 66.9828 53.5233 68.2491 53.8915C69.5809 54.3031 71 54.758 71 56.4475C71 58.007 69.7337 58.9601 67.9434 58.9601C66.2186 58.9818 65.1052 58.137 64.6467 56.924Z" fill="white"/>
<path d="M57.3547 38.5557V46.765H56.7652V45.422C56.2849 46.3318 55.3897 46.895 54.2326 46.895C52.5515 46.895 51.176 45.5737 51.176 43.8192C51.176 42.0647 52.5297 40.7434 54.2326 40.7434C55.3897 40.7434 56.2849 41.3282 56.7652 42.2163V38.534H57.3547V38.5557ZM56.787 43.8408C56.787 42.4545 55.6736 41.3499 54.2763 41.3499C52.879 41.3499 51.7655 42.4545 51.7655 43.8408C51.7655 45.2271 52.879 46.3318 54.2763 46.3318C55.6736 46.3318 56.787 45.2271 56.787 43.8408ZM65.1926 43.8625C65.1926 43.9491 65.1708 44.0574 65.1708 44.1441H59.8218C59.9746 45.4654 61.0008 46.3318 62.3326 46.3318C63.315 46.3318 64.0355 45.8769 64.363 45.2488L64.887 45.552C64.4067 46.3534 63.4897 46.8733 62.3107 46.8733C60.4986 46.8733 59.1886 45.5737 59.1886 43.7975C59.1886 42.0863 60.4549 40.7217 62.2452 40.7217C64.0573 40.7867 65.1926 42.2379 65.1926 43.8625ZM59.8218 43.5809H64.5813C64.4503 42.1513 63.4242 41.3499 62.2889 41.3499C60.9134 41.3499 59.931 42.2596 59.8218 43.5809ZM70.891 45.2271C70.891 46.2018 70.0395 46.895 68.7732 46.895C67.5724 46.895 66.8083 46.3318 66.5244 45.5737L67.0266 45.2704C67.2449 45.8986 67.8781 46.3101 68.7514 46.3101C69.581 46.3101 70.2578 45.9419 70.2578 45.2054C70.2578 43.6242 66.6773 44.5123 66.6773 42.4112C66.6773 41.4798 67.4851 40.7434 68.6859 40.7434C69.6465 40.7434 70.367 41.1982 70.6945 41.9347L70.1923 42.2163C69.9522 41.6098 69.319 41.3065 68.6859 41.3065C67.9217 41.3065 67.2668 41.7181 67.2668 42.4112C67.3323 44.0141 70.891 43.0827 70.891 45.2271ZM6.59362 44.5556C6.59362 45.8119 5.58931 46.7867 4.34485 46.7867H0.764282V38.5773H4.08286C5.30549 38.5773 6.2443 39.552 6.2443 40.7217C6.2443 41.5231 5.80764 42.173 5.17449 42.4979C6.02597 42.8444 6.59362 43.6026 6.59362 44.5556ZM1.41926 39.1838V42.3246H4.08286C4.93433 42.3246 5.61115 41.6098 5.61115 40.765C5.61115 39.9203 4.9125 39.2055 4.08286 39.2055L1.41926 39.1838ZM5.9823 44.5556C5.9823 43.6459 5.23999 42.9094 4.36668 42.9094H1.41926V46.2235H4.36668C5.26182 46.1802 5.9823 45.4437 5.9823 44.5556ZM13.1434 44.7072H9.01705L8.20924 46.7867H7.53243L10.7418 38.599H11.4186L14.6281 46.7867H13.9512L13.1434 44.7072ZM12.9033 44.1008L11.0693 39.3354L9.23538 44.1008H12.9033ZM22.0949 38.5773V46.765H21.5272L16.6585 39.7253V46.765H16.0254V38.5773H16.5712L21.4617 45.617V38.5773H22.0949ZM34.1247 44.0358V38.5773H34.7578V44.0358C34.7578 45.3571 35.6093 46.3101 37.1594 46.3101C38.7095 46.3101 39.561 45.3571 39.561 44.0358V38.5773H40.1942V44.0358C40.1942 45.7686 38.9715 46.895 37.1594 46.895C35.3473 46.895 34.1247 45.7686 34.1247 44.0358ZM47.0278 46.1802V46.765H42.3338V38.5773H47.0278V39.1622H42.9669V42.3462H46.7658V42.9527H42.9888V46.2018H47.0278V46.1802ZM32.4217 42.6712C32.4217 40.3318 30.5223 38.4474 28.1643 38.4474C25.8064 38.4474 23.907 40.3318 23.907 42.6712C23.907 45.0105 25.8064 46.895 28.1643 46.895C28.9067 46.895 29.5616 46.7217 30.173 46.3968L29.7145 45.9419C29.2342 46.1585 28.7102 46.2885 28.1643 46.2885C26.1557 46.2885 24.5183 44.6856 24.5183 42.6495C24.5183 40.6134 26.1339 39.0105 28.1643 39.0105C30.173 39.0105 31.8104 40.6134 31.8104 42.6495C31.8104 43.6892 31.3738 44.5989 30.6969 45.2704L28.7975 43.4293L28.3608 43.8192L32.2034 47.6098L32.6401 47.2199L31.1336 45.7036C31.9414 44.9455 32.4217 43.8841 32.4217 42.6712Z" fill="white"/>
<path d="M2.64181 64.7001V64.137H4.08277V65.4582C3.95178 65.5882 3.73345 65.7182 3.47146 65.8048C3.20946 65.9131 2.92564 65.9564 2.66365 65.9564C2.31432 65.9564 2.00866 65.8915 1.74667 65.7398C1.48468 65.5882 1.28818 65.3933 1.15719 65.1117C1.02619 64.8518 0.960693 64.5485 0.960693 64.2236C0.960693 63.877 1.02619 63.5738 1.17902 63.3139C1.33185 63.0539 1.52834 62.8373 1.81217 62.7074C2.0305 62.5991 2.29249 62.5341 2.61998 62.5341C3.0348 62.5341 3.36229 62.6207 3.58062 62.794C3.79895 62.9673 3.95178 63.2056 4.03911 63.5088L3.36229 63.6388C3.31863 63.4871 3.2313 63.3572 3.1003 63.2489C2.9693 63.1406 2.81647 63.0972 2.61998 63.0972C2.33615 63.0972 2.09599 63.1839 1.92133 63.3788C1.74667 63.5738 1.65934 63.8337 1.65934 64.2019C1.65934 64.5918 1.74667 64.8951 1.92133 65.09C2.09599 65.285 2.33615 65.3933 2.61998 65.3933C2.75098 65.3933 2.90381 65.3716 3.0348 65.3066C3.1658 65.2416 3.29679 65.1767 3.40596 65.1117V64.7001H2.64181Z" fill="white"/>
<path d="M4.7157 65.9349V62.6425H6.13483C6.48415 62.6425 6.74614 62.6642 6.9208 62.7292C7.07363 62.7941 7.20463 62.9024 7.31379 63.0541C7.40112 63.2057 7.46662 63.379 7.46662 63.5739C7.46662 63.8122 7.40112 64.0288 7.24829 64.1804C7.09546 64.332 6.87714 64.4403 6.59331 64.4837C6.74614 64.5703 6.8553 64.6569 6.94264 64.7653C7.02997 64.8736 7.16096 65.0468 7.33562 65.3068L7.75045 65.9566H6.94264L6.46232 65.2418C6.28765 64.9819 6.17849 64.8302 6.11299 64.7653C6.04749 64.7003 5.982 64.6569 5.9165 64.6353C5.851 64.6136 5.74184 64.592 5.58901 64.592H5.45801V65.9782H4.7157V65.9349ZM5.39251 64.0288H5.89467C6.22216 64.0288 6.41865 64.0071 6.50598 63.9855C6.59331 63.9638 6.65881 63.9205 6.70248 63.8555C6.74614 63.7905 6.76797 63.7039 6.76797 63.6172C6.76797 63.5089 6.74614 63.4223 6.68064 63.3573C6.61514 63.2923 6.52781 63.249 6.41865 63.2274C6.37498 63.2274 6.20032 63.2057 5.93833 63.2057H5.41435V64.0288H5.39251Z" fill="white"/>
<path d="M7.94714 64.2885C7.94714 63.942 7.99081 63.6604 8.09997 63.4438C8.16547 63.2705 8.27463 63.1189 8.40563 62.9889C8.53663 62.8589 8.68946 62.7506 8.84228 62.6857C9.03878 62.599 9.27894 62.5557 9.56276 62.5557C10.0431 62.5557 10.4361 62.7073 10.7417 63.0106C11.0256 63.3138 11.1784 63.7254 11.1784 64.2669C11.1784 64.8084 11.0256 65.2199 10.7417 65.5232C10.4579 65.8264 10.0649 65.9781 9.56276 65.9781C9.06061 65.9781 8.66762 65.8264 8.3838 65.5232C8.07814 65.2416 7.94714 64.8084 7.94714 64.2885ZM8.62396 64.2669C8.62396 64.6351 8.71129 64.9167 8.88595 65.1116C9.06061 65.3066 9.27894 65.3932 9.54093 65.3932C9.80292 65.3932 10.0213 65.3066 10.1959 65.1116C10.3706 64.9167 10.4579 64.6351 10.4579 64.2452C10.4579 63.877 10.3706 63.5737 10.2177 63.4005C10.0649 63.2272 9.82476 63.1189 9.54093 63.1189C9.25711 63.1189 9.03878 63.2055 8.86412 63.4005C8.71129 63.6171 8.62396 63.8986 8.62396 64.2669Z" fill="white"/>
<path d="M11.6807 62.6209H12.3575V64.4187C12.3575 64.7003 12.3575 64.8952 12.3793 64.9602C12.4011 65.0902 12.4666 65.1985 12.5758 65.2851C12.685 65.3718 12.8378 65.4151 13.0125 65.4151C13.209 65.4151 13.34 65.3718 13.4491 65.3068C13.5364 65.2201 13.6019 65.1335 13.6238 65.0252C13.6456 64.9169 13.6456 64.722 13.6456 64.462V62.6425H14.3224V64.3754C14.3224 64.7653 14.3006 65.0469 14.2788 65.2201C14.2351 65.3934 14.1696 65.5234 14.0823 65.6317C13.9949 65.74 13.8639 65.8266 13.6893 65.8916C13.5364 65.9566 13.3181 65.9999 13.0561 65.9999C12.7286 65.9999 12.4885 65.9566 12.3356 65.8916C12.161 65.8266 12.0518 65.7183 11.9427 65.61C11.8553 65.5017 11.7898 65.3718 11.7462 65.2418C11.7025 65.0469 11.6807 64.7653 11.6807 64.397V62.6209Z" fill="white"/>
<path d="M15.0428 65.9349V62.6425H16.1127C16.5275 62.6425 16.7895 62.6642 16.9205 62.6858C17.117 62.7292 17.2698 62.8375 17.4008 63.0107C17.5318 63.184 17.5973 63.4006 17.5973 63.6606C17.5973 63.8555 17.5536 64.0288 17.4881 64.1804C17.4226 64.3104 17.3134 64.4187 17.2043 64.5053C17.0951 64.592 16.9641 64.6353 16.855 64.6569C16.7021 64.6786 16.462 64.7003 16.1563 64.7003H15.7197V65.9566H15.0428V65.9349ZM15.7197 63.184V64.1154H16.0908C16.3528 64.1154 16.5275 64.0938 16.6148 64.0721C16.7021 64.0505 16.7676 63.9855 16.8331 63.9205C16.8768 63.8555 16.8986 63.7689 16.8986 63.6606C16.8986 63.5306 16.855 63.444 16.7895 63.3573C16.724 63.2707 16.6366 63.2274 16.5275 63.2057C16.4401 63.184 16.2873 63.184 16.0472 63.184H15.7197Z" fill="white"/>
<path d="M18.1648 65.9349V62.6425H20.6319V63.2057H18.8416V63.9422H20.5227V64.5053H18.8416V65.3934H20.6974V65.9566H18.1648V65.9349Z" fill="white"/>
<path d="M24.671 64.7001L25.326 64.8951C25.2168 65.2633 25.064 65.5232 24.8238 65.6965C24.5837 65.8698 24.2998 65.9564 23.9287 65.9564C23.492 65.9564 23.1209 65.8048 22.837 65.5016C22.5532 65.1983 22.4004 64.7868 22.4004 64.2669C22.4004 63.7254 22.5532 63.2922 22.837 62.9889C23.1209 62.6857 23.492 62.5341 23.9723 62.5341C24.3872 62.5341 24.7147 62.664 24.9548 62.9023C25.1076 63.0539 25.2168 63.2489 25.3041 63.5088L24.6492 63.6604C24.6055 63.4871 24.5182 63.3572 24.409 63.2489C24.278 63.1406 24.1252 63.0972 23.9505 63.0972C23.7104 63.0972 23.5139 63.1839 23.3392 63.3572C23.1864 63.5305 23.099 63.812 23.099 64.2019C23.099 64.6135 23.1645 64.9167 23.3174 65.09C23.4702 65.2633 23.6667 65.3499 23.9068 65.3499C24.0815 65.3499 24.2343 65.285 24.3653 65.1767C24.54 65.1333 24.6273 64.9601 24.671 64.7001Z" fill="white"/>
<path d="M28.9064 65.9349H28.186L27.9021 65.1768H26.5703L26.2865 65.9349H25.566L26.8542 62.6425H27.5747L28.9064 65.9349ZM27.662 64.6136L27.2035 63.379L26.745 64.6136H27.662Z" fill="white"/>
<path d="M29.2557 65.9349V62.6425H29.9326V65.9349H29.2557Z" fill="white"/>
<path d="M30.3912 64.8517L31.0462 64.7867C31.0899 65.0033 31.1554 65.1549 31.2864 65.2632C31.4174 65.3716 31.5702 65.4149 31.7667 65.4149C31.985 65.4149 32.1379 65.3716 32.247 65.2849C32.3562 65.1983 32.4217 65.09 32.4217 64.96C32.4217 64.8734 32.3998 64.8084 32.3562 64.7651C32.3125 64.7001 32.2252 64.6568 32.116 64.6134C32.0287 64.5918 31.854 64.5485 31.5702 64.4618C31.2209 64.3752 30.9589 64.2669 30.8061 64.1369C30.6096 63.9636 30.5004 63.7254 30.5004 63.4654C30.5004 63.2921 30.5441 63.1405 30.6532 62.9889C30.7406 62.8373 30.8934 62.729 31.0681 62.664C31.2427 62.5773 31.461 62.5557 31.723 62.5557C32.1379 62.5557 32.4653 62.6423 32.6618 62.8373C32.8802 63.0106 32.9893 63.2705 32.9893 63.5737L32.3125 63.5954C32.2907 63.4221 32.2252 63.3138 32.1379 63.2272C32.0505 63.1622 31.8977 63.1189 31.7012 63.1189C31.5047 63.1189 31.3519 63.1622 31.2427 63.2488C31.1772 63.2921 31.1335 63.3788 31.1335 63.4438C31.1335 63.5304 31.1772 63.5954 31.2427 63.6387C31.33 63.7037 31.5265 63.7903 31.854 63.8553C32.1815 63.9203 32.4217 64.0069 32.5745 64.0936C32.7273 64.1802 32.8583 64.2885 32.9457 64.4185C33.033 64.5485 33.0767 64.7434 33.0767 64.9383C33.0767 65.1333 33.033 65.3066 32.9238 65.4799C32.8147 65.6531 32.6618 65.7614 32.4653 65.8481C32.2688 65.9347 32.0287 65.9781 31.7449 65.9781C31.33 65.9781 31.0026 65.8914 30.7842 65.6965C30.5659 65.5015 30.4349 65.2199 30.3912 64.8517Z" fill="white"/>
<path d="M33.4915 64.8517L34.1464 64.7867C34.1901 65.0033 34.2556 65.1549 34.3866 65.2632C34.5176 65.3716 34.6704 65.4149 34.8669 65.4149C35.0852 65.4149 35.2381 65.3716 35.3472 65.2849C35.4564 65.1983 35.5219 65.09 35.5219 64.96C35.5219 64.8734 35.5001 64.8084 35.4564 64.7651C35.4127 64.7001 35.3254 64.6568 35.2162 64.6134C35.1289 64.5918 34.9542 64.5485 34.6704 64.4618C34.3211 64.3752 34.0591 64.2669 33.9063 64.1369C33.7098 63.9636 33.6006 63.7254 33.6006 63.4654C33.6006 63.2921 33.6443 63.1405 33.7535 62.9889C33.8408 62.8373 33.9936 62.729 34.1683 62.664C34.3429 62.5773 34.5613 62.5557 34.8233 62.5557C35.2381 62.5557 35.5656 62.6423 35.7621 62.8373C35.9804 63.0106 36.0896 63.2705 36.0896 63.5737L35.4127 63.5954C35.3909 63.4221 35.3254 63.3138 35.2381 63.2272C35.1507 63.1622 34.9979 63.1189 34.8014 63.1189C34.6049 63.1189 34.4521 63.1622 34.3429 63.2488C34.2774 63.2921 34.2338 63.3788 34.2338 63.4438C34.2338 63.5304 34.2774 63.5954 34.3429 63.6387C34.4303 63.7037 34.6268 63.7903 34.9542 63.8553C35.2817 63.9203 35.5219 64.0069 35.6747 64.0936C35.8276 64.1802 35.9586 64.2885 36.0459 64.4185C36.1332 64.5485 36.1769 64.7434 36.1769 64.9383C36.1769 65.1333 36.1332 65.3066 36.0241 65.4799C35.9149 65.6531 35.7621 65.7614 35.5656 65.8481C35.3691 65.9347 35.1289 65.9781 34.8451 65.9781C34.4303 65.9781 34.1028 65.8914 33.8844 65.6965C33.6661 65.5015 33.5351 65.2199 33.4915 64.8517Z" fill="white"/>
<path d="M36.7662 65.9349V62.6425H39.2333V63.2057H37.4431V63.9422H39.1242V64.5053H37.4431V65.3934H39.2988V65.9566H36.7662V65.9349Z" fill="white"/>
<path d="M41.1545 62.6209H42.3772C42.661 62.6209 42.8575 62.6425 43.0103 62.6859C43.2068 62.7508 43.3815 62.8375 43.5125 62.9891C43.6435 63.1407 43.7526 63.314 43.84 63.5306C43.9055 63.7472 43.9491 64.0072 43.9491 64.3104C43.9491 64.592 43.9055 64.8086 43.84 65.0035C43.7526 65.2418 43.6435 65.4368 43.4906 65.5884C43.3815 65.6967 43.2068 65.7833 43.0103 65.8483C42.8575 65.8916 42.661 65.9133 42.4208 65.9133H41.1545V62.6209ZM41.8314 63.1841V65.3718H42.3335C42.53 65.3718 42.661 65.3718 42.7483 65.3501C42.8575 65.3285 42.9448 65.2851 43.0103 65.2201C43.0758 65.1552 43.1413 65.0469 43.185 64.8952C43.2286 64.7436 43.2505 64.5487 43.2505 64.2887C43.2505 64.0288 43.2286 63.8339 43.185 63.7039C43.1413 63.574 43.0758 63.4656 42.9885 63.379C42.9012 63.2924 42.8138 63.249 42.6828 63.2274C42.5955 63.2057 42.399 63.2057 42.137 63.2057H41.8314V63.1841Z" fill="white"/>
<path d="M44.5168 65.9349V62.6425H46.9839V63.2057H45.1937V63.9422H46.8748V64.5053H45.1937V65.3934H47.0494V65.9566H44.5168V65.9349Z" fill="white"/>
<path d="M47.4427 64.8517L48.0977 64.7867C48.1414 65.0033 48.2069 65.1549 48.3379 65.2632C48.4689 65.3716 48.6217 65.4149 48.8182 65.4149C49.0365 65.4149 49.1894 65.3716 49.2985 65.2849C49.4077 65.1983 49.4732 65.09 49.4732 64.96C49.4732 64.8734 49.4514 64.8084 49.4077 64.7651C49.364 64.7001 49.2767 64.6568 49.1675 64.6134C49.0802 64.5918 48.9055 64.5485 48.6217 64.4618C48.2724 64.3752 48.0104 64.2669 47.8576 64.1369C47.6611 63.9636 47.5519 63.7254 47.5519 63.4654C47.5519 63.2921 47.5956 63.1405 47.7047 62.9889C47.7921 62.8373 47.9449 62.729 48.1196 62.664C48.2942 62.5773 48.5126 62.5557 48.7745 62.5557C49.1894 62.5557 49.5169 62.6423 49.7134 62.8373C49.9317 63.0106 50.0408 63.2705 50.0408 63.5737L49.364 63.5954C49.3422 63.4221 49.2767 63.3138 49.1894 63.2272C49.102 63.1622 48.9492 63.1189 48.7527 63.1189C48.5562 63.1189 48.4034 63.1622 48.2942 63.2488C48.2287 63.2921 48.1851 63.3788 48.1851 63.4438C48.1851 63.5304 48.2287 63.5954 48.2942 63.6387C48.3816 63.7037 48.578 63.7903 48.9055 63.8553C49.233 63.9203 49.4732 64.0069 49.626 64.0936C49.7788 64.1802 49.9098 64.2885 49.9972 64.4185C50.0845 64.5485 50.1282 64.7434 50.1282 64.9383C50.1282 65.1333 50.0845 65.3066 49.9753 65.4799C49.8662 65.6531 49.7134 65.7614 49.5169 65.8481C49.3204 65.9347 49.0802 65.9781 48.7964 65.9781C48.3816 65.9781 48.0541 65.8914 47.8357 65.6965C47.6174 65.5015 47.4864 65.2199 47.4427 64.8517Z" fill="white"/>
<path d="M52.0056 62.6209H53.2282C53.5121 62.6209 53.7086 62.6425 53.8614 62.6859C54.0579 62.7508 54.2326 62.8375 54.3635 62.9891C54.4945 63.1407 54.6037 63.314 54.691 63.5306C54.7565 63.7472 54.8002 64.0072 54.8002 64.3104C54.8002 64.592 54.7565 64.8086 54.691 65.0035C54.6037 65.2418 54.4945 65.4368 54.3417 65.5884C54.2326 65.6967 54.0579 65.7833 53.8614 65.8483C53.7086 65.8916 53.5121 65.9133 53.2719 65.9133H52.0056V62.6209ZM52.6824 63.1841V65.3718H53.1846C53.3811 65.3718 53.5121 65.3718 53.5994 65.3501C53.7086 65.3285 53.7959 65.2851 53.8614 65.2201C53.9269 65.1552 53.9924 65.0469 54.0361 64.8952C54.0797 64.7436 54.1016 64.5487 54.1016 64.2887C54.1016 64.0288 54.0797 63.8339 54.0361 63.7039C53.9924 63.574 53.9269 63.4656 53.8396 63.379C53.7522 63.2924 53.6649 63.249 53.5339 63.2274C53.4466 63.2057 53.2501 63.2057 52.9881 63.2057H52.6824V63.1841Z" fill="white"/>
<path d="M55.3677 65.9348V62.6424H57.8348V63.2055H56.0445V63.942H57.7256V64.5052H56.0445V65.3933H57.9003V65.9564H55.3677V65.9348ZM56.2192 62.4258L56.5248 61.7543H57.2453L56.6121 62.4258H56.2192Z" fill="white"/>
<path d="M58.4679 65.9349V62.6425H59.5377C59.9525 62.6425 60.2145 62.6642 60.3455 62.6858C60.542 62.7292 60.6948 62.8375 60.8258 63.0107C60.9568 63.184 61.0223 63.4006 61.0223 63.6606C61.0223 63.8555 60.9787 64.0288 60.9132 64.1804C60.8477 64.332 60.7385 64.4187 60.6293 64.5053C60.5202 64.592 60.3892 64.6353 60.28 64.6569C60.1272 64.6786 59.887 64.7003 59.5814 64.7003H59.1447V65.9566H58.4679V65.9349ZM59.1447 63.184V64.1154H59.5159C59.7779 64.1154 59.9525 64.0938 60.0399 64.0721C60.1272 64.0288 60.1927 63.9855 60.2582 63.9205C60.3237 63.8555 60.3237 63.7689 60.3237 63.6606C60.3237 63.5306 60.28 63.444 60.2145 63.3573C60.149 63.2707 60.0617 63.2274 59.9525 63.2057C59.8652 63.184 59.7124 63.184 59.4722 63.184H59.1447Z" fill="white"/>
<path d="M61.4371 64.2886C61.4371 63.942 61.4808 63.6604 61.59 63.4438C61.6555 63.2705 61.7646 63.1189 61.8956 62.9889C62.0266 62.859 62.1794 62.7507 62.3323 62.6857C62.5506 62.5991 62.7689 62.5557 63.0528 62.5557C63.5331 62.5557 63.9261 62.7074 64.2317 63.0106C64.5156 63.3138 64.6684 63.7254 64.6684 64.2669C64.6684 64.8084 64.5156 65.22 64.2317 65.5232C63.9479 65.8265 63.5549 65.9781 63.0528 65.9781C62.5506 65.9781 62.1576 65.8265 61.8738 65.5232C61.59 65.2416 61.4371 64.8084 61.4371 64.2886ZM62.1358 64.2669C62.1358 64.6351 62.2231 64.9167 62.3978 65.1117C62.5724 65.3066 62.7908 65.3933 63.0528 65.3933C63.3147 65.3933 63.5331 65.3066 63.7077 65.1117C63.8824 64.9167 63.9697 64.6351 63.9697 64.2453C63.9697 63.877 63.8824 63.5738 63.7296 63.4005C63.5549 63.2056 63.3366 63.1189 63.0528 63.1189C62.7689 63.1189 62.5506 63.2056 62.3759 63.4005C62.2013 63.5954 62.1358 63.8987 62.1358 64.2669ZM62.2449 62.4258L62.7253 61.7543H63.3147L63.7951 62.4258H63.2711L63.0091 62.1009L62.7689 62.4258H62.2449Z" fill="white"/>
<path d="M65.9349 65.9349V63.1841H64.9524V62.6209H67.5942V63.1841H66.6117V65.9349H65.9349Z" fill="white"/>
<path d="M67.8562 64.8517L68.5112 64.7867C68.5548 65.0033 68.6203 65.1549 68.7513 65.2632C68.8823 65.3716 69.0352 65.4149 69.2317 65.4149C69.45 65.4149 69.6028 65.3716 69.712 65.2849C69.8211 65.1983 69.8866 65.09 69.8866 64.96C69.8866 64.8734 69.8648 64.8084 69.8211 64.7651C69.7775 64.7001 69.6902 64.6568 69.581 64.6134C69.4937 64.5918 69.319 64.5485 69.0352 64.4618C68.6858 64.3752 68.4239 64.2669 68.271 64.1369C68.0745 63.9636 67.9654 63.7254 67.9654 63.4654C67.9654 63.2921 68.009 63.1405 68.1182 62.9889C68.2055 62.8373 68.3584 62.729 68.533 62.664C68.7077 62.5773 68.926 62.5557 69.188 62.5557C69.6028 62.5557 69.9303 62.6423 70.1268 62.8373C70.3451 63.0106 70.4543 63.2705 70.4543 63.5737L69.7775 63.5954C69.7557 63.4221 69.6901 63.3138 69.6028 63.2272C69.5155 63.1622 69.3627 63.1189 69.1662 63.1189C68.9697 63.1189 68.8168 63.1622 68.7077 63.2488C68.6422 63.2921 68.5985 63.3788 68.5985 63.4438C68.5985 63.5304 68.6422 63.5954 68.7077 63.6387C68.795 63.7037 68.9915 63.7903 69.319 63.8553C69.6465 63.9203 69.8866 64.0069 70.0395 64.0936C70.1923 64.1802 70.3233 64.2885 70.4106 64.4185C70.498 64.5485 70.5416 64.7434 70.5416 64.9383C70.5416 65.1333 70.498 65.3066 70.3888 65.4799C70.2796 65.6531 70.1268 65.7614 69.9303 65.8481C69.7338 65.9347 69.4937 65.9781 69.2098 65.9781C68.795 65.9781 68.4675 65.8914 68.2492 65.6965C68.0309 65.5015 67.8999 65.2199 67.8562 64.8517Z" fill="white"/>
<path d="M25.872 24.8446L22.7499 23.1334V7.10464L30.697 2.70756L33.9282 4.46206L25.872 8.88081V24.8446ZM45.2376 19.4945L48.3597 17.7833V7.08298L35.5438 0L32.3126 1.73284L45.2376 8.88081V19.4945ZM35.5438 26.5991L27.4657 22.1154V25.6677L35.5438 30.1514L48.3378 23.0684V19.5161L35.5438 26.5991Z" fill="white"/>
</svg>
