<?xml version="1.0" encoding="UTF-8"?>
<svg width="118px" height="36px" viewBox="0 0 118 36" version="1.1" xmlns="http://www.w3.org/2000/svg" xmlns:xlink="http://www.w3.org/1999/xlink">
    <title>lesperformeurs-blanc</title>
    <g id="Page-1" stroke="none" stroke-width="1" fill="none" fill-rule="evenodd">
        <g id="lesperformeurs-blanc" transform="translate(0, 0.3676)" fill="#FFFFFF" fill-rule="nonzero">
            <g id="Group" transform="translate(10.6796, 12.2581)">
                <path d="M0.905861248,21.8042392 C0.397307565,21.8042392 0,21.3910393 0,20.8983779 C0,19.0548708 0.651584406,18.1013327 1.2237073,17.2590406 C1.73226098,16.5121024 2.12956855,15.9240872 2.12956855,14.6368107 C2.12956855,13.3495342 1.73226098,12.761519 1.2237073,12.0145808 C0.651584406,11.1722887 0,10.2187506 0,8.37524347 C0,6.53173636 0.651584406,5.57819821 1.2237073,4.73590617 C1.68458407,4.06842946 2.05010703,3.52809118 2.11367624,2.51098381 C2.14546085,2.01832243 2.59044532,1.63690717 3.0831067,1.66869177 C3.57576808,1.70047638 3.95718334,2.14546085 3.92539874,2.63812223 C3.81415262,4.14789098 3.22613743,4.99018301 2.71758374,5.75301354 C2.20903006,6.49995176 1.8117225,7.08796696 1.8117225,8.35935116 C1.8117225,9.63073537 2.20903006,10.2346429 2.71758374,10.9815811 C3.28970664,11.8238731 3.94129104,12.7774113 3.94129104,14.6209184 C3.94129104,16.4644255 3.28970664,17.4179636 2.71758374,18.2602557 C2.20903006,19.0071939 1.8117225,19.5952091 1.8117225,20.8824856 C1.8117225,22.1697621 1.39852263,21.7883469 0.905861248,21.7883469 L0.905861248,21.8042392 Z" id="Path"></path>
                <path d="M5.68944433,21.8042392 C5.18089064,21.8042392 4.78358308,21.3910393 4.78358308,20.8983779 C4.78358308,19.0548708 5.43516749,18.1013327 6.00729038,17.2590406 C6.51584406,16.5121024 6.91315163,15.9240872 6.91315163,14.6368107 C6.91315163,13.3495342 6.51584406,12.761519 6.00729038,12.0145808 C5.43516749,11.1722887 4.78358308,10.2187506 4.78358308,8.37524347 C4.78358308,6.53173636 5.43516749,5.57819821 6.00729038,4.73590617 C6.43638255,4.10021407 6.78601321,3.59166039 6.88136702,2.66990684 C6.88136702,2.49509151 6.91315163,1.2395996 6.91315163,0.905861248 C6.91315163,0.397307565 7.32635149,2.25843203e-15 7.81901287,2.25843203e-15 C8.31167425,2.25843203e-15 8.72487412,0.413199867 8.72487412,0.905861248 C8.72487412,1.39852263 8.72487412,2.57455302 8.69308952,2.86061447 C8.55005879,4.22735249 7.9938282,5.03785992 7.50116682,5.75301354 C6.99261314,6.49995176 6.59530557,7.08796696 6.59530557,8.35935116 C6.59530557,9.63073537 6.99261314,10.2346429 7.50116682,10.9815811 C8.07328972,11.8238731 8.72487412,12.7774113 8.72487412,14.6209184 C8.72487412,16.4644255 8.07328972,17.4179636 7.50116682,18.2602557 C6.99261314,19.0071939 6.59530557,19.5952091 6.59530557,20.8824856 C6.59530557,22.1697621 6.18210571,21.7883469 5.68944433,21.7883469 L5.68944433,21.8042392 Z" id="Path"></path>
            </g>
            <path d="M28.9239907,7.50631652 L8.62952031,0.0528266042 C8.35935116,-0.0425272114 8.04150511,-0.0107426062 7.80312057,0.164072722 C7.56473603,0.338888051 7.42170531,0.609057195 7.42170531,0.911010944 L7.42170531,15.8020985 C7.42170531,15.8656677 7.42170531,15.9451292 7.45348991,16.0086984 L0.588015196,18.5832514 C0.238384539,18.7103898 0,19.0600205 0,19.4255435 L0,34.0941388 C0,34.5868001 0.413199867,35 0.905861248,35 L23.1709772,35 C23.6636386,35 24.0768384,34.5868001 24.0768384,34.0941388 L24.0768384,11.0503 C24.0768384,10.7483462 23.9338077,10.4781771 23.6795309,10.3033618 C23.4411463,10.1285464 23.1233003,10.0967618 22.8372388,10.208008 L9.2175355,15.3412217 L9.2175355,2.19828745 L27.6843911,8.98430066 L27.6843911,33.6968312 C27.6843911,34.1894926 28.097591,34.6026924 28.5902524,34.6026924 C29.0829137,34.6026924 29.4961136,34.1894926 29.4961136,33.6968312 L29.4961136,8.34860856 C29.4961136,7.96719329 29.2577291,7.63345494 28.9080984,7.49042422 L28.9239907,7.50631652 Z M1.8117225,20.0612356 L6.32513643,18.3607592 C6.07085959,18.9487744 5.88015196,19.6798203 5.88015196,20.6492508 C5.88015196,22.4927579 6.53173636,23.446296 7.10385926,24.2885881 C7.61241294,25.0355263 8.00972051,25.6235415 8.00972051,26.910818 C8.00972051,28.1980945 7.61241294,28.7861097 7.10385926,29.5330479 C6.53173636,30.3753399 5.88015196,31.3288781 5.88015196,33.1723852 C5.88015196,35.0158923 5.88015196,33.1882775 5.88015196,33.2041698 L1.8117225,33.2041698 L1.8117225,20.0771279 L1.8117225,20.0612356 Z M22.2651159,33.1882775 L7.69187445,33.1882775 C7.69187445,33.1882775 7.69187445,33.1723852 7.69187445,33.1564929 C7.69187445,31.8692164 8.08918202,31.2812012 8.5977357,30.534263 C9.16985859,29.6919709 9.821443,28.7384328 9.821443,26.8949257 C9.821443,25.0514186 9.16985859,24.0978804 8.5977357,23.2555884 C8.08918202,22.5086502 7.69187445,21.920635 7.69187445,20.6333585 C7.69187445,19.3460819 8.08918202,18.7580668 8.5977357,18.0270208 C8.70898182,17.8680978 8.82022794,17.6932825 8.93147406,17.5343595 C8.97915096,17.4707902 8.99504327,17.407221 9.02682787,17.3277595 L22.2651159,12.3375765 L22.2651159,33.1723852 L22.2651159,33.1882775 Z" id="Shape"></path>
            <g id="Group" transform="translate(35.9961, 23.6211)">
                <path d="M6.1503211,1.16013809 C6.7383363,1.46209184 7.19921307,1.87529171 7.51705913,2.38384539 C7.83490518,2.90829137 7.9938282,3.49630657 7.9938282,4.17967558 C7.9938282,4.86304459 7.83490518,5.41927518 7.51705913,5.91193656 C7.19921307,6.40459794 6.7542286,6.78601321 6.1662134,7.07207465 C5.57819821,7.3422438 4.8789369,7.48527452 4.06842946,7.48527452 L2.30438388,7.48527452 L2.30438388,11.029258 L-4.51686406e-15,11.029258 L-4.51686406e-15,0.731045919 L4.06842946,0.731045919 C4.86304459,0.731045919 5.56230591,0.874076642 6.1503211,1.17603039 L6.1503211,1.16013809 Z M5.26035216,5.22856755 C5.5305213,4.97429071 5.65765972,4.62466005 5.65765972,4.17967558 C5.65765972,3.73469111 5.59409051,3.60755269 5.48284439,3.36916815 C5.37159828,3.13078361 5.19678295,2.92418368 4.95839841,2.78115295 C4.72001387,2.63812223 4.41806012,2.55866072 4.05253716,2.55866072 L2.28849157,2.55866072 L2.28849157,5.60998281 L4.05253716,5.60998281 C4.59287545,5.60998281 4.99018301,5.48284439 5.26035216,5.22856755 Z" id="Shape"></path>
                <path d="M15.8287334,7.89847439 L11.029258,7.89847439 C11.1087195,8.34345886 11.3153194,8.70898182 11.6172732,8.96325866 C11.9192269,9.2175355 12.3165345,9.36056623 12.7933036,9.36056623 C13.2700727,9.36056623 13.5084572,9.29699702 13.810411,9.16985859 C14.128257,9.04272017 14.3825338,8.83612024 14.6050261,8.55005879 L15.6380257,9.7896584 C15.3678566,10.1710737 14.970549,10.4889197 14.4619954,10.7590889 C13.9375494,11.0133657 13.3336419,11.1563964 12.6502729,11.1563964 C11.9669039,11.1563964 11.1722887,10.9974734 10.5842735,10.663735 C9.99625833,10.3299967 9.55127386,9.88501221 9.2334278,9.31288932 C8.91558175,8.74076642 8.77255103,8.12096662 8.77255103,7.45348991 L8.77255103,7.18332077 C8.77255103,6.42049025 8.91558175,5.75301354 9.2016432,5.14910604 C9.48770465,4.54519854 9.90090451,4.08432177 10.4571351,3.73469111 C10.9974734,3.38506045 11.6490578,3.22613743 12.4118883,3.22613743 C13.1747188,3.22613743 13.7468417,3.38506045 14.2712877,3.6870142 C14.7798414,3.98896795 15.177149,4.41806012 15.4473181,4.99018301 C15.7174873,5.5464136 15.8446257,6.21389031 15.8446257,6.97672084 L15.8446257,7.91436669 L15.8287334,7.89847439 Z M13.6673802,6.26156722 C13.6673802,5.86425966 13.5561341,5.56230591 13.3495342,5.32392137 C13.1270419,5.10142913 12.8250882,4.99018301 12.395996,4.99018301 C11.6490578,4.99018301 11.188181,5.46695209 11.0451503,6.43638255 L13.6832725,6.43638255 L13.6832725,6.26156722 L13.6673802,6.26156722 Z" id="Shape"></path>
                <path d="M21.3910393,3.30559894 L21.3592547,5.43516749 C20.9937317,5.40338288 20.7394549,5.37159828 20.5964242,5.37159828 C20.2150089,5.37159828 19.8971628,5.43516749 19.6587783,5.56230591 C19.4203938,5.68944433 19.2455784,5.86425966 19.11844,6.1185365 L19.11844,11.0133657 L16.90941,11.0133657 L16.90941,3.35327585 L18.9754093,3.35327585 L19.0389785,4.2909217 C19.2296861,3.94129104 19.4680707,3.6711219 19.7541321,3.48041427 C20.0401936,3.28970664 20.3580396,3.19435282 20.7235626,3.19435282 C21.0890855,3.19435282 21.2003317,3.22613743 21.3592547,3.27381433 L21.3910393,3.30559894 Z" id="Path"></path>
                <path d="M25.9362378,2.01832243 C25.7455302,2.17724545 25.6501764,2.41562999 25.6501764,2.71758374 L25.6501764,3.35327585 L27.1599451,3.35327585 L27.1599451,5.38749058 L25.6501764,5.38749058 L25.6501764,11.0133657 L23.4411463,11.0133657 L23.4411463,5.38749058 L22.3286851,5.38749058 L22.3286851,3.35327585 L23.4411463,3.35327585 L23.4411463,2.71758374 C23.4411463,2.14546085 23.5523924,1.63690717 23.790777,1.2395996 C24.0291615,0.826399735 24.3470076,0.524445985 24.791992,0.317846052 C25.2210842,0.111246118 25.7296379,4.51686406e-15 26.3176531,4.51686406e-15 C26.9056683,4.51686406e-15 27.0010221,0.0476769078 27.3983297,0.143030723 L27.3983297,1.8435071 C27.2235143,1.79583019 27.0169144,1.77993789 26.7785299,1.77993789 C26.4130069,1.77993789 26.1428378,1.8593994 25.9521301,2.01832243 L25.9362378,2.01832243 Z" id="Path"></path>
                <path d="M28.2406217,5.10142913 C28.5266831,4.51341394 28.939883,4.05253716 29.4961136,3.71879881 C30.0523442,3.38506045 30.7039286,3.21024512 31.4667591,3.21024512 C32.2295897,3.21024512 32.8970664,3.38506045 33.453297,3.71879881 C34.0095275,4.05253716 34.4227274,4.51341394 34.7087889,5.10142913 C34.9948503,5.68944433 35.137881,6.35692104 35.137881,7.11975156 L35.137881,7.26278228 C35.137881,8.00972051 34.9948503,8.67719721 34.7087889,9.26521241 C34.4227274,9.85322761 34.0095275,10.3141044 33.453297,10.6478427 C32.8970664,10.9815811 32.245482,11.1405041 31.4826514,11.1405041 C30.7198209,11.1405041 30.0523442,10.9815811 29.4961136,10.6478427 C28.939883,10.3141044 28.5266831,9.85322761 28.2406217,9.26521241 C27.9545603,8.67719721 27.8115295,8.00972051 27.8115295,7.24688998 L27.8115295,7.10385926 C27.8115295,6.35692104 27.9545603,5.68944433 28.2406217,5.10142913 Z M30.3542979,8.80433563 C30.5767902,9.1857509 30.9582054,9.37645853 31.4667591,9.37645853 C31.9753128,9.37645853 32.3408358,9.1857509 32.563328,8.80433563 C32.7858202,8.42292037 32.9129587,7.91436669 32.9129587,7.26278228 L32.9129587,7.11975156 C32.9129587,6.48405946 32.8017125,5.97550577 32.563328,5.59409051 C32.3408358,5.21267525 31.9594205,5.00607532 31.4508668,5.00607532 C30.9423131,5.00607532 30.5767902,5.19678295 30.3542979,5.59409051 C30.1318057,5.97550577 30.0046673,6.49995176 30.0046673,7.11975156 L30.0046673,7.26278228 C30.0046673,7.91436669 30.1159134,8.42292037 30.3542979,8.80433563 Z" id="Shape"></path>
                <path d="M40.7796484,3.30559894 L40.7478638,5.43516749 C40.3823409,5.40338288 40.128064,5.37159828 39.9850333,5.37159828 C39.6036181,5.37159828 39.285772,5.43516749 39.0473875,5.56230591 C38.8090029,5.68944433 38.6341876,5.86425966 38.5070492,6.1185365 L38.5070492,11.0133657 L36.2980191,11.0133657 L36.2980191,3.35327585 L38.3640185,3.35327585 L38.4275877,4.2909217 C38.6182953,3.94129104 38.8566798,3.6711219 39.1427413,3.48041427 C39.4288027,3.28970664 39.7466488,3.19435282 40.1121717,3.19435282 C40.4776947,3.19435282 40.5889408,3.22613743 40.7478638,3.27381433 L40.7796484,3.30559894 Z" id="Path"></path>
                <path d="M52.0631833,3.90950644 C52.4922755,4.37038321 52.6988754,5.13321374 52.6988754,6.1662134 L52.6988754,10.9974734 L50.4898453,10.9974734 L50.4898453,6.1662134 C50.4898453,5.84836735 50.4421684,5.60998281 50.3627069,5.43516749 C50.2832454,5.26035216 50.1719993,5.14910604 50.0130763,5.08553683 C49.8541532,5.02196762 49.6793379,4.99018301 49.4409534,4.99018301 C49.2025688,4.99018301 48.9323997,5.05375222 48.741692,5.18089064 C48.5509844,5.30802907 48.3920614,5.4987367 48.2808153,5.73712124 L48.2808153,10.9974734 L46.0717852,10.9974734 L46.0717852,6.1662134 C46.0717852,5.84836735 46.0241083,5.60998281 45.9446468,5.43516749 C45.8651853,5.26035216 45.7539392,5.14910604 45.5950161,5.08553683 C45.4519854,5.02196762 45.2453855,4.99018301 45.0228932,4.99018301 C44.800401,4.99018301 44.5302319,5.05375222 44.3395242,5.16499834 C44.1488166,5.27624446 43.9898936,5.45105979 43.8627551,5.65765972 L43.8627551,10.9974734 L41.6537251,10.9974734 L41.6537251,3.33738354 L43.7197244,3.33738354 L43.7832936,4.21146019 C44.0375705,3.89361413 44.3554165,3.63933729 44.7209395,3.46452196 C45.0864624,3.28970664 45.4996623,3.21024512 45.9764314,3.21024512 C46.4532005,3.21024512 46.850508,3.30559894 47.2001387,3.49630657 C47.5497693,3.6870142 47.8040462,3.97307565 47.9788615,4.37038321 C48.2331384,4.00486025 48.5509844,3.71879881 48.9323997,3.51219887 C49.3138149,3.30559894 49.7587994,3.21024512 50.2514608,3.21024512 C51.0301836,3.21024512 51.6181988,3.44862966 52.047291,3.90950644 L52.0631833,3.90950644 Z" id="Path"></path>
                <path d="M60.9628727,7.89847439 L56.1633974,7.89847439 C56.2428589,8.34345886 56.4494588,8.70898182 56.7514125,8.96325866 C57.0533663,9.2175355 57.4506739,9.36056623 57.9274429,9.36056623 C58.404212,9.36056623 58.6425966,9.29699702 58.9445503,9.16985859 C59.2623964,9.04272017 59.5166732,8.83612024 59.7391654,8.55005879 L60.7721651,9.7896584 C60.501996,10.1710737 60.1046884,10.4889197 59.5961347,10.7590889 C59.0716887,11.0133657 58.4677812,11.1563964 57.7844122,11.1563964 C57.1010432,11.1563964 56.3064281,10.9974734 55.7184129,10.663735 C55.1303977,10.3299967 54.6854132,9.88501221 54.3675672,9.31288932 C54.0497211,8.74076642 53.9066904,8.12096662 53.9066904,7.45348991 L53.9066904,7.18332077 C53.9066904,6.42049025 54.0497211,5.75301354 54.3357826,5.14910604 C54.621844,4.54519854 55.0350439,4.08432177 55.5912745,3.73469111 C56.1316127,3.38506045 56.7831972,3.22613743 57.5460277,3.22613743 C58.3088582,3.22613743 58.8809811,3.38506045 59.4054271,3.6870142 C59.9139808,3.98896795 60.3112883,4.41806012 60.5814575,4.99018301 C60.8516266,5.5464136 60.978765,6.21389031 60.978765,6.97672084 L60.978765,7.91436669 L60.9628727,7.89847439 Z M58.8015196,6.26156722 C58.8015196,5.86425966 58.6902735,5.56230591 58.4836735,5.32392137 C58.2611813,5.10142913 57.9592275,4.99018301 57.5301354,4.99018301 C56.7831972,4.99018301 56.3223204,5.46695209 56.1792897,6.43638255 L58.8174119,6.43638255 L58.8174119,6.26156722 L58.8015196,6.26156722 Z" id="Shape"></path>
                <path d="M68.750101,3.35327585 L68.750101,11.0133657 L66.6841017,11.0133657 L66.6205325,10.2028583 C66.3821479,10.504812 66.0801942,10.7431966 65.7305635,10.9021196 C65.3809329,11.0610426 64.9995176,11.1405041 64.5545331,11.1405041 C63.759918,11.1405041 63.1401182,10.9021196 62.6792414,10.4412428 C62.2342569,9.98036603 61.9958724,9.26521241 61.9958724,8.29578195 L61.9958724,3.33738354 L64.2049025,3.33738354 L64.2049025,8.29578195 C64.2049025,8.64541261 64.3002563,8.91558175 64.4750716,9.09039708 C64.6498869,9.26521241 64.9041638,9.34467392 65.2220098,9.34467392 C65.8418096,9.34467392 66.2867941,9.12218169 66.5251786,8.69308952 L66.5251786,3.33738354 L68.7342087,3.33738354 L68.750101,3.35327585 Z" id="Path"></path>
                <path d="M74.6620376,3.30559894 L74.630253,5.43516749 C74.26473,5.40338288 74.0104532,5.37159828 73.8674224,5.37159828 C73.4860072,5.37159828 73.1681611,5.43516749 72.9297766,5.56230591 C72.691392,5.68944433 72.5165767,5.86425966 72.3894383,6.1185365 L72.3894383,11.0133657 L70.1804082,11.0133657 L70.1804082,3.35327585 L72.2464076,3.35327585 L72.3099768,4.2909217 C72.5006844,3.94129104 72.739069,3.6711219 73.0251304,3.48041427 C73.3111918,3.28970664 73.6290379,3.19435282 73.9945609,3.19435282 C74.3600838,3.19435282 74.4713299,3.22613743 74.630253,3.27381433 L74.6620376,3.30559894 Z" id="Path"></path>
                <path d="M76.1241294,7.13564386 C75.6473603,6.7542286 75.3930835,6.26156722 75.3930835,5.62587512 C75.3930835,4.99018301 75.5202219,4.78358308 75.7586064,4.41806012 C75.996991,4.05253716 76.3625139,3.75058341 76.839283,3.54398348 C77.3160521,3.32149124 77.8563904,3.22613743 78.4920825,3.22613743 C79.1277746,3.22613743 79.7316821,3.33738354 80.2243435,3.54398348 C80.7170049,3.75058341 81.0984201,4.05253716 81.3685893,4.41806012 C81.6387584,4.79947538 81.7658968,5.22856755 81.7658968,5.70533663 L79.5568668,5.70533663 C79.5568668,5.40338288 79.4774053,5.16499834 79.3025899,5.00607532 C79.1277746,4.84715229 78.8576055,4.75179847 78.4920825,4.75179847 C78.1265595,4.75179847 77.9517442,4.81536768 77.7769289,4.95839841 C77.6021135,5.10142913 77.5067597,5.27624446 77.5067597,5.4987367 C77.5067597,5.72122893 77.6180059,5.89604426 77.8246058,6.02318268 C78.0312057,6.1503211 78.3808364,6.27745952 78.8576055,6.35692104 C79.461513,6.46816715 79.9700666,6.61119788 80.3832665,6.78601321 C80.8123587,6.96082853 81.146097,7.21510538 81.4003739,7.53295143 C81.6546507,7.85079748 81.7817891,8.26399735 81.7817891,8.77255103 C81.7817891,9.28110471 81.6546507,9.63073537 81.3844816,9.98036603 C81.1143124,10.345889 80.7328972,10.6160581 80.2402358,10.8226581 C79.7475744,11.029258 79.1754515,11.1246118 78.5079748,11.1246118 C77.8404981,11.1246118 77.2206983,10.9974734 76.7121446,10.7431966 C76.2035909,10.4889197 75.8221757,10.1710737 75.5520065,9.77376609 C75.2818374,9.37645853 75.1546989,8.96325866 75.1546989,8.53416649 L77.2365906,8.53416649 C77.2365906,8.88379715 77.3796213,9.13807399 77.6180059,9.31288932 C77.8563904,9.48770465 78.1742364,9.56716616 78.5556517,9.56716616 C78.937067,9.56716616 79.1754515,9.50359695 79.3661591,9.36056623 C79.5568668,9.2175355 79.6522206,9.04272017 79.6522206,8.82022794 C79.6522206,8.5977357 79.6045437,8.5659511 79.5250822,8.45470498 C79.4456206,8.35935116 79.2866976,8.26399735 79.0642054,8.18453583 C78.8417131,8.10507432 78.5238671,8.00972051 78.1106672,7.93025899 C77.2683752,7.75544366 76.6167908,7.46938222 76.1400217,7.08796696 L76.1241294,7.13564386 Z" id="Path"></path>
            </g>
            <g id="Group" transform="translate(35.9802, 10.4146)">
                <polygon id="Path" points="7.3581361 8.45470498 7.3581361 10.2982121 -4.51686406e-15 10.2982121 -4.51686406e-15 0 2.30438388 0 2.30438388 8.45470498"></polygon>
                <path d="M15.4155335,7.18332077 L10.6160581,7.18332077 C10.6955196,7.62830524 10.9021196,7.9938282 11.2040733,8.24810504 C11.5060271,8.50238189 11.9033346,8.64541261 12.3801037,8.64541261 C12.8568728,8.64541261 13.0952573,8.5818434 13.3972111,8.45470498 C13.7150571,8.32756656 13.969334,8.12096662 14.1918262,7.83490518 L15.2248259,9.07450478 C14.9546567,9.45592004 14.5573492,9.77376609 14.0487955,10.0439352 C13.5243495,10.2982121 12.920442,10.4412428 12.237073,10.4412428 C11.553704,10.4412428 10.7590889,10.2823198 10.1710737,9.94858142 C9.58305846,9.61484307 9.13807399,9.16985859 8.82022794,8.5977357 C8.50238189,8.02561281 8.35935116,7.40581301 8.35935116,6.7383363 L8.35935116,6.46816715 C8.35935116,5.70533663 8.50238189,5.03785992 8.78844333,4.43395242 C9.07450478,3.83004492 9.48770465,3.36916815 10.0439352,3.01953749 C10.5842735,2.66990684 11.2358579,2.51098381 11.9986885,2.51098381 C12.761519,2.51098381 13.3336419,2.66990684 13.8580879,2.97186058 C14.3666415,3.27381433 14.7639491,3.7029065 15.0341183,4.2750294 C15.3042874,4.83125999 15.4314258,5.4987367 15.4314258,6.26156722 L15.4314258,7.19921307 L15.4155335,7.18332077 Z M13.2541804,5.5464136 C13.2541804,5.14910604 13.1429342,4.84715229 12.9363343,4.60876775 C12.7138421,4.38627551 12.4118883,4.2750294 11.9827962,4.2750294 C11.2358579,4.2750294 10.7749812,4.75179847 10.6319504,5.72122893 L13.2700727,5.72122893 L13.2700727,5.5464136 L13.2541804,5.5464136 Z" id="Shape"></path>
                <path d="M17.227256,6.42049025 C16.7504869,6.03907498 16.4962101,5.5464136 16.4962101,4.9107215 C16.4962101,4.2750294 16.6233485,4.06842946 16.861733,3.7029065 C17.1001176,3.33738354 17.4656405,3.03542979 17.9424096,2.82882986 C18.4191787,2.60633762 18.959517,2.51098381 19.5952091,2.51098381 C20.2309012,2.51098381 20.8348087,2.62222993 21.3274701,2.82882986 C21.8201315,3.03542979 22.2015467,3.33738354 22.4717159,3.7029065 C22.741885,4.08432177 22.8690234,4.51341394 22.8690234,4.99018301 L20.6599934,4.99018301 C20.6599934,4.68822926 20.5805319,4.44984473 20.4057165,4.2909217 C20.2309012,4.13199867 19.9607321,4.03664486 19.5952091,4.03664486 C19.2296861,4.03664486 19.0548708,4.10021407 18.8800555,4.24324479 C18.7052401,4.38627551 18.6098863,4.56109084 18.6098863,4.78358308 C18.6098863,5.00607532 18.7211325,5.18089064 18.9277324,5.30802907 C19.1343323,5.43516749 19.483963,5.56230591 19.9607321,5.64176742 C20.5646396,5.75301354 21.0731932,5.89604426 21.4863931,6.07085959 C21.9154853,6.24567492 22.2492236,6.49995176 22.5035005,6.81779781 C22.7577773,7.13564386 22.8849157,7.54884373 22.8849157,8.05739741 C22.8849157,8.5659511 22.7577773,8.91558175 22.4876082,9.26521241 C22.217439,9.63073537 21.8360238,9.90090451 21.3433624,10.1075044 C20.850701,10.3141044 20.2785781,10.4094582 19.6111014,10.4094582 C18.9436247,10.4094582 18.3238249,10.2823198 17.8152712,10.0280429 C17.3067175,9.77376609 16.9253023,9.45592004 16.6551331,9.05861248 C16.384964,8.66130491 16.2578255,8.24810504 16.2578255,7.81901287 L18.3397172,7.81901287 C18.3397172,8.16864353 18.4827479,8.42292037 18.7211325,8.5977357 C18.959517,8.77255103 19.277363,8.85201254 19.6587783,8.85201254 C20.0401936,8.85201254 20.2785781,8.78844333 20.4692857,8.64541261 C20.6599934,8.50238189 20.7553472,8.32756656 20.7553472,8.10507432 C20.7553472,7.88258208 20.7076703,7.85079748 20.6282088,7.73955136 C20.5487472,7.64419755 20.3898242,7.54884373 20.167332,7.46938222 C19.9448398,7.3899207 19.6269937,7.29456689 19.2137938,7.21510538 C18.3715018,7.04029005 17.7199174,6.7542286 17.2431483,6.37281334 L17.227256,6.42049025 Z" id="Path"></path>
            </g>
        </g>
    </g>
</svg>