<svg width="143" height="35" viewBox="0 0 143 35" fill="none" xmlns="http://www.w3.org/2000/svg">
<path opacity="0.5" d="M11.6125 34.0847C11.1002 34.0847 10.6946 33.6801 10.6946 33.1691C10.6946 31.3166 11.3564 30.3797 11.9114 29.528C12.4237 28.7827 12.8293 28.1865 12.8293 26.9089C12.8293 25.6313 12.4237 25.0351 11.9114 24.2899C11.335 23.4381 10.6946 22.5012 10.6946 20.6487C10.6946 18.7962 11.3564 17.8593 11.9114 17.0076C12.3597 16.3475 12.7226 15.8152 12.8079 14.7931C12.8506 14.3034 13.2776 13.9201 13.7899 13.9627C14.2808 14.0053 14.6651 14.4312 14.6224 14.9422C14.5157 16.454 13.918 17.3057 13.4056 18.051C12.8933 18.7962 12.4877 19.3712 12.4877 20.67C12.4877 21.9476 12.8933 22.5438 13.4056 23.2891C13.982 24.1408 14.6224 25.0777 14.6224 26.9302C14.6224 28.7827 13.9606 29.7196 13.4056 30.5713C12.8933 31.3166 12.4877 31.9128 12.4877 33.1904C12.5091 33.6801 12.1035 34.0847 11.6125 34.0847Z" fill="white"/>
<path opacity="0.5" d="M16.394 34.0843C15.8817 34.0843 15.4761 33.6797 15.4761 33.1687C15.4761 31.3162 16.1378 30.3793 16.6928 29.5276C17.2051 28.7823 17.6107 28.1861 17.6107 26.9085C17.6107 25.6309 17.2051 25.0347 16.6928 24.2895C16.1165 23.4377 15.4761 22.5009 15.4761 20.6484C15.4761 18.7959 16.1378 17.859 16.6928 17.0072C17.1197 16.3684 17.4826 15.8574 17.568 14.9418C17.5894 14.7715 17.5894 13.5152 17.5894 13.1745C17.5894 12.6634 17.995 12.2589 18.5073 12.2589C19.0196 12.2589 19.4252 12.6634 19.4252 13.1745C19.4252 13.1958 19.4252 14.8353 19.3825 15.1334C19.233 16.4962 18.678 17.3053 18.1871 18.0293C17.7174 18.7959 17.3119 19.3921 17.3119 20.6696C17.3119 21.9472 17.7175 22.5434 18.2298 23.2887C18.8061 24.1404 19.4465 25.0773 19.4465 26.9298C19.4465 28.7823 18.7848 29.7192 18.2298 30.5709C17.7175 31.3162 17.3119 31.9124 17.3119 33.19C17.3119 33.6797 16.9063 34.0843 16.394 34.0843Z" fill="white"/>
<path d="M28.9885 7.51062L8.66665 0.0580442C8.38915 -0.0484213 8.06895 -0.0058351 7.83414 0.16451C7.59933 0.334854 7.44991 0.611664 7.44991 0.909768V15.7936C7.44991 15.8575 7.44991 15.9214 7.47125 15.9853L0.5977 18.583C0.234811 18.7108 0 19.0515 0 19.4348V34.0844C0 34.5741 0.405582 35 0.917897 35H23.2249C23.7159 35 24.1428 34.5954 24.1428 34.0844V11.0666C24.1428 10.7685 23.9934 10.4917 23.7586 10.3213C23.5238 10.151 23.2036 10.1084 22.9261 10.2148L9.24301 15.3465V2.20865L27.7504 9.00114V33.7011C27.7504 34.1909 28.1559 34.6167 28.6683 34.6167C29.1592 34.6167 29.5862 34.2122 29.5862 33.7011V8.36235C29.5648 7.97907 29.33 7.63838 28.9885 7.51062ZM1.81445 20.0735L6.33989 18.3701C6.08373 18.9663 5.89162 19.6903 5.89162 20.6698C5.89162 22.5222 6.55335 23.4591 7.10836 24.3109C7.62068 25.0561 8.02626 25.6523 8.02626 26.9299C8.02626 28.2075 7.62068 28.8037 7.10836 29.549C6.53201 30.4007 5.89162 31.3376 5.89162 33.1901V33.2114H1.81445V20.0735ZM22.307 33.1901H7.70606V33.1688C7.70606 31.8912 8.11164 31.295 8.62396 30.5497C9.20031 29.698 9.84071 28.7611 9.84071 26.9086C9.84071 25.0561 9.17897 24.1192 8.62396 23.2675C8.11164 22.5222 7.70606 21.926 7.70606 20.6485C7.70606 19.3709 8.11164 18.7747 8.62396 18.0294C8.73069 17.8591 8.83742 17.71 8.94416 17.5397C8.98685 17.4758 9.00819 17.4119 9.02954 17.348L22.307 12.3654V33.1901Z" fill="white"/>
<path d="M44.1659 18.9442V20.6902H37.8687H36.3958V10.5973H38.5731V18.9442H44.1659Z" fill="white"/>
<path d="M51.8506 17.6242H47.0904C47.1758 18.0926 47.3679 18.4546 47.6667 18.7314C47.9869 19.0082 48.3712 19.136 48.8621 19.136C49.225 19.136 49.5666 19.0721 49.8654 18.923C50.1643 18.7953 50.4418 18.5824 50.6552 18.3055L51.6585 19.4554C51.4024 19.8386 51.0181 20.158 50.5058 20.4136C49.9935 20.6691 49.3958 20.7968 48.7127 20.7968C47.9442 20.7968 47.2825 20.6265 46.7062 20.3071C46.1298 19.9877 45.7029 19.5405 45.404 18.9869C45.1052 18.4333 44.9557 17.8158 44.9557 17.1557V16.9002C44.9557 16.1549 45.1052 15.4736 45.3827 14.8986C45.6602 14.3237 46.0658 13.8553 46.5994 13.5146C47.1331 13.1739 47.7735 13.0249 48.4993 13.0249C49.2037 13.0249 49.8227 13.1739 50.3137 13.472C50.8047 13.7701 51.1889 14.196 51.4451 14.7496C51.7012 15.3032 51.8293 15.9633 51.8293 16.7086V17.6242H51.8506ZM49.8014 16.0698C49.8014 15.6652 49.6733 15.3458 49.4598 15.1116C49.2464 14.8774 48.9262 14.7496 48.4993 14.7496C48.0937 14.7496 47.7948 14.8774 47.56 15.1542C47.3252 15.4097 47.1971 15.7717 47.1117 16.2401H49.78V16.0698H49.8014Z" fill="white"/>
<path d="M53.2381 15.4098C53.2381 14.984 53.3662 14.6007 53.601 14.2387C53.8358 13.8767 54.1987 13.5999 54.6469 13.387C55.1166 13.174 55.6502 13.0676 56.2479 13.0676C56.8883 13.0676 57.4647 13.174 57.9343 13.387C58.4253 13.5999 58.7882 13.8767 59.0443 14.2387C59.3005 14.6007 59.4285 15.0265 59.4285 15.495H57.3366C57.3366 15.1969 57.2512 14.9627 57.0591 14.7923C56.8883 14.622 56.6108 14.5368 56.2266 14.5368C55.9277 14.5368 55.6716 14.6007 55.5008 14.7497C55.3087 14.8988 55.2233 15.0691 55.2233 15.3034C55.2233 15.5163 55.33 15.6866 55.5435 15.8357C55.757 15.9634 56.0985 16.0912 56.5895 16.1764C57.1872 16.2828 57.6781 16.4319 58.1051 16.6022C58.5106 16.7726 58.8522 17.0281 59.087 17.3475C59.3218 17.6669 59.4499 18.0715 59.4499 18.5399C59.4499 18.9871 59.3218 19.3703 59.0657 19.7323C58.8095 20.073 58.4253 20.3498 57.9556 20.5627C57.4647 20.7544 56.9097 20.8609 56.2693 20.8609C55.5862 20.8609 55.0098 20.7331 54.5189 20.4989C54.0279 20.2434 53.6437 19.924 53.3875 19.5407C53.1313 19.1574 53.0033 18.7528 53.0033 18.327H54.9885C55.0098 18.689 55.1379 18.9445 55.3727 19.1361C55.6289 19.3065 55.9277 19.3916 56.312 19.3916C56.6748 19.3916 56.9524 19.3277 57.1445 19.1787C57.3366 19.0509 57.4433 18.8593 57.4433 18.6251C57.4433 18.476 57.4006 18.3696 57.3152 18.2631C57.2299 18.1566 57.0804 18.0715 56.8456 17.9863C56.6322 17.9011 56.312 17.8159 55.9064 17.7308C54.1346 17.3262 53.2381 16.5596 53.2381 15.4098Z" fill="white"/>
<path d="M44.3581 34.6158V34.7223H42.01L40.1528 31.0812H38.5732V34.7223H36.3958V24.6081H40.2169C41.0067 24.6081 41.6684 24.7145 42.2448 24.9488C42.7998 25.183 43.248 25.5237 43.5469 25.9921C43.8457 26.4393 43.9952 27.0142 43.9952 27.653C43.9952 28.3769 43.8457 28.9519 43.5256 29.4203C43.2054 29.8675 42.7784 30.2294 42.1807 30.5062L44.3581 34.6158ZM38.5732 29.2925H40.2169C40.7292 29.2925 41.1348 29.1648 41.3909 28.9093C41.6684 28.6537 41.7965 28.2918 41.7965 27.8446C41.7965 27.3762 41.6684 27.0142 41.3909 26.7587C41.1348 26.5031 40.7292 26.3754 40.1955 26.3754H38.5518V29.2925H38.5732Z" fill="white"/>
<path d="M51.8719 31.6352H47.1117C47.197 32.1036 47.3892 32.4656 47.688 32.7424C48.0082 33.0192 48.3925 33.147 48.8834 33.147C49.2463 33.147 49.5879 33.0831 49.8867 32.9341C50.1856 32.8063 50.4631 32.5934 50.6765 32.3166L51.6798 33.4664C51.4236 33.8497 51.0394 34.1691 50.5271 34.4246C50.0148 34.6801 49.4171 34.8079 48.734 34.8079C47.9655 34.8079 47.3038 34.6375 46.7274 34.3181C46.1511 33.9987 45.7241 33.5516 45.4253 32.998C45.1264 32.4443 44.977 31.8268 44.977 31.1667V30.9112C44.977 30.166 45.1264 29.4846 45.4039 28.9097C45.6815 28.3135 46.087 27.8663 46.6207 27.5256C47.1544 27.1849 47.7948 27.0359 48.5205 27.0359C49.225 27.0359 49.844 27.1849 50.335 27.483C50.8259 27.7811 51.2102 28.207 51.4663 28.7606C51.7225 29.3142 51.8506 29.9743 51.8506 30.7196V31.6352H51.8719ZM49.8227 30.0808C49.8227 29.6762 49.6946 29.3568 49.4811 29.1226C49.2677 28.8884 48.9475 28.7606 48.5205 28.7606C48.1149 28.7606 47.8161 28.8884 47.5813 29.1652C47.3465 29.4207 47.2184 29.7827 47.133 30.2511H49.8013V30.0808H49.8227Z" fill="white"/>
<path d="M59.4287 32.0821C59.4287 32.6145 59.2793 33.0829 59.0018 33.5088C58.7243 33.9346 58.34 34.254 57.8704 34.4883C57.4008 34.7225 56.8671 34.8502 56.2908 34.8502C55.5437 34.8502 54.9033 34.6799 54.3696 34.3605C53.8359 34.0411 53.4517 33.5727 53.1955 32.9977C52.9394 32.4228 52.8113 31.7627 52.8113 31.0388V30.8684C52.8113 30.1445 52.9394 29.4844 53.1955 28.9095C53.4517 28.3346 53.8573 27.8874 54.3696 27.5467C54.8819 27.2273 55.5223 27.057 56.2694 27.057C56.8885 27.057 57.4221 27.1847 57.9131 27.419C58.3827 27.6532 58.767 27.9939 59.0231 28.441C59.2793 28.8882 59.4287 29.4205 59.4287 30.0167H57.4648C57.4648 29.6547 57.3581 29.3353 57.1446 29.1011C56.9312 28.8669 56.6323 28.7391 56.2481 28.7391C55.7358 28.7391 55.3942 28.9308 55.2021 29.314C55.01 29.6973 54.9246 30.2084 54.9246 30.8684V31.0388C54.9246 31.6989 55.01 32.2099 55.2021 32.5932C55.3942 32.9765 55.7358 33.1468 56.2694 33.1468C56.6323 33.1468 56.9312 33.0403 57.1446 32.8487C57.3581 32.6571 57.4648 32.3802 57.4862 32.0609H59.4287V32.0821Z" fill="white"/>
<path d="M60.7948 28.9308C61.0723 28.3559 61.4779 27.9088 62.0329 27.5681C62.5665 27.2487 63.2069 27.0783 63.9541 27.0783C64.7012 27.0783 65.3416 27.2487 65.8966 27.5681C66.4303 27.8875 66.8572 28.3559 67.1347 28.9308C67.4122 29.5058 67.5616 30.1658 67.5616 30.9111V31.0601C67.5616 31.8054 67.4122 32.4442 67.1347 33.0191C66.8572 33.594 66.4516 34.0412 65.8966 34.3819C65.3629 34.7013 64.7225 34.8716 63.9754 34.8716C63.2283 34.8716 62.5879 34.7013 62.0329 34.3819C61.4992 34.0625 61.0723 33.594 60.7948 33.0191C60.5173 32.4442 60.3679 31.7841 60.3679 31.0601V30.8898C60.3892 30.1658 60.5173 29.5058 60.7948 28.9308ZM62.844 32.5932C63.0789 32.9765 63.4631 33.1682 63.9754 33.1682C64.4877 33.1682 64.8506 32.9765 65.0854 32.5932C65.3202 32.21 65.4483 31.6989 65.4483 31.0389V30.8898C65.4483 30.251 65.3202 29.74 65.0854 29.3354C64.8506 28.9521 64.4664 28.7392 63.9541 28.7392C63.4417 28.7392 63.0789 28.9308 62.844 29.3354C62.6092 29.74 62.4812 30.251 62.4812 30.8898V31.0389C62.4812 31.6776 62.6092 32.21 62.844 32.5932Z" fill="white"/>
<path d="M74.7768 27.7385C75.1824 28.1856 75.3958 28.9309 75.3958 29.953V34.7226H73.3039V29.953C73.3039 29.5058 73.2185 29.2077 73.0264 29.0161C72.8343 28.8457 72.5354 28.7606 72.1512 28.7606C71.8737 28.7606 71.6389 28.8244 71.4468 28.9309C71.2546 29.0374 71.0839 29.2077 70.9558 29.4206V34.7226H68.8638V27.2062H70.8277L70.8917 28.0792C71.1479 27.7598 71.4681 27.5043 71.831 27.3339C72.1939 27.1636 72.5995 27.0784 73.0477 27.0784C73.7949 27.0571 74.3712 27.2913 74.7768 27.7385Z" fill="white"/>
<path d="M76.8686 29.4206C76.8686 28.9947 76.9967 28.6114 77.2315 28.2495C77.4663 27.8875 77.8292 27.6107 78.2775 27.3977C78.7471 27.1848 79.2808 27.0783 79.8785 27.0783C80.5189 27.0783 81.0952 27.1848 81.5648 27.3977C82.0558 27.6107 82.4187 27.8875 82.6749 28.2495C82.931 28.6114 83.0591 29.0373 83.0591 29.5058H80.9671C80.9671 29.2076 80.8818 28.9734 80.6896 28.8031C80.5189 28.6327 80.2414 28.5476 79.8571 28.5476C79.5583 28.5476 79.3021 28.6114 79.1314 28.7605C78.9392 28.9095 78.8538 29.0799 78.8538 29.3141C78.8538 29.527 78.9606 29.6974 79.174 29.8464C79.3875 29.9742 79.729 30.102 80.22 30.1871C80.8177 30.2936 81.3087 30.4426 81.7356 30.613C82.1412 30.7833 82.4827 31.0389 82.7176 31.3582C82.9524 31.6776 83.0804 32.0822 83.0804 32.5507C83.0804 32.9978 82.9524 33.3811 82.6962 33.7431C82.44 34.0838 82.0558 34.3606 81.5862 34.5735C81.1166 34.7864 80.5402 34.8716 79.8998 34.8716C79.2167 34.8716 78.6404 34.7438 78.1494 34.5096C77.6584 34.2541 77.2742 33.9347 77.0181 33.5514C76.7619 33.1682 76.6338 32.7636 76.6338 32.3377H78.619C78.6404 32.6997 78.7685 32.9552 79.0033 33.1469C79.2594 33.3172 79.5583 33.4024 79.9425 33.4024C80.3054 33.4024 80.5829 33.3385 80.775 33.1895C80.9671 33.0617 81.0739 32.8701 81.0739 32.6358C81.0739 32.4868 81.0312 32.3803 80.9458 32.2739C80.8604 32.1674 80.711 32.0822 80.4762 31.997C80.2627 31.9119 79.9425 31.8267 79.5369 31.7415C77.7438 31.337 76.8686 30.5704 76.8686 29.4206Z" fill="white"/>
<path d="M88.3317 33.0832V34.6589C87.9688 34.7867 87.5632 34.8505 87.0936 34.8505C85.6207 34.8505 84.8735 34.1053 84.8735 32.5935V28.7181H83.8062V27.185H84.8735V25.3538H86.9655V27.2063H88.2249V28.7394H86.9655V32.3593C86.9655 32.6574 87.0295 32.849 87.1363 32.9768C87.243 33.0832 87.4565 33.1471 87.734 33.1471C87.9688 33.1258 88.1609 33.1258 88.3317 33.0832Z" fill="white"/>
<path d="M93.5188 27.0996C93.6469 27.1209 93.7323 27.1421 93.8176 27.1634L93.7963 29.1863C93.5188 29.1437 93.284 29.1224 93.0492 29.1224C92.302 29.1224 91.8111 29.3779 91.5763 29.8677V34.7225H89.4843V27.206H91.4695L91.5336 28.1216C91.7257 27.7809 91.9605 27.5254 92.238 27.3338C92.5155 27.1634 92.8357 27.057 93.1986 27.057C93.284 27.057 93.3907 27.0783 93.5188 27.0996Z" fill="white"/>
<path d="M101.396 27.2061V34.7225H99.4318L99.3678 33.9347C99.133 34.2328 98.8341 34.467 98.4926 34.6161C98.151 34.7651 97.7668 34.8503 97.3185 34.8503C96.5287 34.8503 95.931 34.6161 95.4827 34.1689C95.0344 33.7218 94.821 33.0191 94.821 32.0609V27.2061H96.9129V32.0822C96.9129 32.4442 96.9983 32.721 97.1904 32.8913C97.3826 33.0617 97.6174 33.1468 97.9589 33.1468C98.5993 33.1468 99.0476 32.9126 99.3037 32.4655V27.1848H101.396V27.2061Z" fill="white"/>
<path d="M109.315 32.0821C109.315 32.6145 109.166 33.0829 108.889 33.5088C108.611 33.9346 108.227 34.254 107.757 34.4883C107.288 34.7225 106.754 34.8502 106.178 34.8502C105.43 34.8502 104.79 34.6799 104.256 34.3605C103.723 34.0411 103.338 33.5727 103.082 32.9977C102.826 32.4228 102.698 31.7627 102.698 31.0388V30.8684C102.698 30.1445 102.826 29.4844 103.082 28.9095C103.338 28.3346 103.744 27.8874 104.256 27.5467C104.769 27.2273 105.409 27.057 106.156 27.057C106.775 27.057 107.309 27.1847 107.8 27.419C108.269 27.6532 108.654 27.9939 108.91 28.441C109.166 28.8882 109.315 29.4205 109.315 30.0167H107.352C107.352 29.6547 107.245 29.3353 107.031 29.1011C106.818 28.8669 106.519 28.7391 106.135 28.7391C105.623 28.7391 105.281 28.9308 105.089 29.314C104.897 29.6973 104.811 30.2084 104.811 30.8684V31.0388C104.811 31.6989 104.897 32.2099 105.089 32.5932C105.281 32.9765 105.623 33.1468 106.156 33.1468C106.519 33.1468 106.818 33.0403 107.031 32.8487C107.245 32.6571 107.352 32.3802 107.373 32.0609H109.315V32.0821Z" fill="white"/>
<path d="M114.417 33.0832V34.6589C114.054 34.7867 113.649 34.8505 113.179 34.8505C111.706 34.8505 110.959 34.1053 110.959 32.5935V28.7181H109.892V27.185H110.959V25.3538H113.051V27.2063H114.31V28.7394H113.051V32.3593C113.051 32.6574 113.115 32.849 113.222 32.9768C113.328 33.0832 113.542 33.1471 113.819 33.1471C114.054 33.1258 114.246 33.1258 114.417 33.0832Z" fill="white"/>
<path d="M122.166 31.6352H117.406C117.491 32.1036 117.683 32.4656 117.982 32.7424C118.302 33.0192 118.686 33.147 119.177 33.147C119.54 33.147 119.882 33.0831 120.181 32.9341C120.48 32.8063 120.757 32.5934 120.971 32.3166L121.974 33.4664C121.718 33.8497 121.333 34.1691 120.821 34.4246C120.309 34.6801 119.711 34.8079 119.028 34.8079C118.26 34.8079 117.598 34.6375 117.021 34.3181C116.445 33.9987 116.018 33.5516 115.719 32.998C115.42 32.4443 115.271 31.8268 115.271 31.1667V30.9112C115.271 30.166 115.42 29.4846 115.698 28.9097C115.975 28.3135 116.381 27.8663 116.915 27.5256C117.448 27.1849 118.089 27.0359 118.815 27.0359C119.519 27.0359 120.138 27.1849 120.629 27.483C121.12 27.7811 121.504 28.207 121.76 28.7606C122.017 29.3142 122.145 29.9743 122.145 30.7196V31.6352H122.166ZM120.117 30.0808C120.117 29.6762 119.989 29.3568 119.775 29.1226C119.562 28.8884 119.241 28.7606 118.815 28.7606C118.409 28.7606 118.11 28.8884 117.875 29.1652C117.641 29.4207 117.512 29.7827 117.427 30.2511H120.095V30.0808H120.117Z" fill="white"/>
<path d="M129.936 27.2061V34.7225H127.972L127.908 33.9347C127.673 34.2328 127.374 34.467 127.033 34.6161C126.691 34.7651 126.307 34.8503 125.859 34.8503C125.069 34.8503 124.471 34.6161 124.023 34.1689C123.575 33.7218 123.361 33.0191 123.361 32.0609V27.2061H125.453V32.0822C125.453 32.4442 125.538 32.721 125.731 32.8913C125.923 33.0617 126.158 33.1468 126.499 33.1468C127.139 33.1468 127.588 32.9126 127.844 32.4655V27.1848H129.936V27.2061Z" fill="white"/>
<path d="M135.593 27.0996C135.721 27.1209 135.806 27.1421 135.891 27.1634L135.87 29.1863C135.593 29.1437 135.358 29.1224 135.123 29.1224C134.376 29.1224 133.885 29.3779 133.65 29.8677V34.7225H131.558V27.206H133.543L133.607 28.1216C133.799 27.7809 134.034 27.5254 134.312 27.3338C134.589 27.1634 134.91 27.057 135.272 27.057C135.358 27.057 135.486 27.0783 135.593 27.0996Z" fill="white"/>
<path d="M136.788 29.4206C136.788 28.9947 136.916 28.6114 137.151 28.2495C137.386 27.8875 137.749 27.6107 138.197 27.3977C138.667 27.1848 139.2 27.0783 139.798 27.0783C140.438 27.0783 141.015 27.1848 141.484 27.3977C141.975 27.6107 142.338 27.8875 142.594 28.2495C142.851 28.6114 142.979 29.0373 142.979 29.5058H140.887C140.887 29.2076 140.801 28.9734 140.609 28.8031C140.438 28.6327 140.161 28.5476 139.777 28.5476C139.478 28.5476 139.222 28.6114 139.051 28.7605C138.859 28.9095 138.773 29.0799 138.773 29.3141C138.773 29.527 138.88 29.6974 139.094 29.8464C139.307 29.9742 139.649 30.102 140.14 30.1871C140.737 30.2936 141.228 30.4426 141.655 30.613C142.061 30.7833 142.402 31.0389 142.637 31.3582C142.872 31.6776 143 32.0822 143 32.5507C143 32.9978 142.872 33.3811 142.616 33.7431C142.36 34.0838 141.975 34.3606 141.506 34.5735C141.015 34.7651 140.46 34.8716 139.819 34.8716C139.136 34.8716 138.56 34.7438 138.069 34.5096C137.578 34.2541 137.194 33.9347 136.938 33.5514C136.681 33.1682 136.553 32.7636 136.553 32.3377H138.539C138.56 32.6997 138.688 32.9552 138.923 33.1469C139.179 33.3172 139.478 33.4024 139.862 33.4024C140.225 33.4024 140.502 33.3385 140.695 33.1895C140.887 33.0617 140.993 32.8701 140.993 32.6358C140.993 32.4868 140.951 32.3803 140.865 32.2739C140.78 32.1674 140.631 32.0822 140.396 31.997C140.182 31.9119 139.862 31.8267 139.456 31.7415C137.685 31.337 136.788 30.5704 136.788 29.4206Z" fill="white"/>
</svg>
